<svg width="22" height="24" viewBox="0 0 22 24" fill="none" xmlns="http://www.w3.org/2000/svg">
<path d="M19.75 22.9375C20.0815 22.9375 20.3995 22.8058 20.6339 22.5714C20.8683 22.337 21 22.019 21 21.6875V20.13C21.005 16.6225 16.0325 13.875 11 13.875C5.9675 13.875 1 16.6225 1 20.13V21.6875C1 22.019 1.1317 22.337 1.36612 22.5714C1.60054 22.8058 1.91848 22.9375 2.25 22.9375H19.75ZM15.505 5.5675C15.505 6.15911 15.3885 6.74492 15.1621 7.29149C14.9357 7.83806 14.6038 8.33469 14.1855 8.75302C13.7672 9.17134 13.2706 9.50318 12.724 9.72958C12.1774 9.95597 11.5916 10.0725 11 10.0725C10.4084 10.0725 9.82258 9.95597 9.27601 9.72958C8.72944 9.50318 8.23281 9.17134 7.81448 8.75302C7.39616 8.33469 7.06432 7.83806 6.83792 7.29149C6.61152 6.74492 6.495 6.15911 6.495 5.5675C6.495 4.3727 6.96963 3.22684 7.81448 2.38198C8.65933 1.53713 9.8052 1.0625 11 1.0625C12.1948 1.0625 13.3407 1.53713 14.1855 2.38198C15.0304 3.22684 15.505 4.3727 15.505 5.5675Z" stroke="#5EDA42" stroke-width="1.875" stroke-linecap="round" stroke-linejoin="round"/>
</svg>
