<svg width="30" height="30" viewBox="0 0 30 30" fill="none" xmlns="http://www.w3.org/2000/svg">
<rect x="0.5" y="0.5" width="29" height="29" rx="14.5" fill="#5EDA42"/>
<rect x="0.5" y="0.5" width="29" height="29" rx="14.5" stroke="white"/>
<path d="M22.6031 6.895C22.03 6.32194 21.2527 6 20.4422 6C19.6317 6 18.8544 6.32194 18.2812 6.895L7.47312 17.705C7.15793 18.02 6.94046 18.4193 6.84687 18.855L6.01374 22.7425C5.99177 22.8446 5.99574 22.9506 6.02527 23.0507C6.0548 23.1509 6.10897 23.2421 6.18281 23.3159C6.25666 23.3898 6.34783 23.4439 6.448 23.4735C6.54817 23.503 6.65415 23.507 6.75624 23.485L10.6437 22.6519C11.0794 22.5583 11.4788 22.3408 11.7937 22.0256L22.6031 11.2162C23.176 10.6431 23.4978 9.86596 23.4978 9.05562C23.4978 8.24528 23.176 7.46812 22.6031 6.895ZM19.1656 7.77875C19.5074 7.45556 19.9617 7.27843 20.432 7.28502C20.9023 7.29162 21.3515 7.48141 21.6841 7.81404C22.0166 8.14668 22.2063 8.59591 22.2128 9.06623C22.2193 9.53654 22.042 9.99083 21.7187 10.3325L21.1562 10.895L18.6025 8.34187L19.1656 7.77875ZM17.7181 9.22562L20.2719 11.7794L10.9106 21.1425C10.7658 21.2873 10.5821 21.3871 10.3819 21.43L7.43749 22.0612L8.06874 19.1175C8.11161 18.9172 8.21145 18.7336 8.35624 18.5887L17.7181 9.22562Z" fill="white"/>
</svg>
