<svg width="26" height="26" viewBox="0 0 26 26" fill="none" xmlns="http://www.w3.org/2000/svg">
<path d="M19.25 20.5V18M13 20.5V16.75M6.75 20.5V14.25M5.5 6.75C9.49625 10.835 14.5425 11.8512 19.4263 10.49M17.61 8.59L20.2025 9.86C20.51 10.0112 20.5925 10.36 20.3875 10.64L18.6588 13" stroke="#5EDA42" stroke-width="1.875" stroke-linecap="round" stroke-linejoin="round"/>
<path d="M1.125 13C1.125 7.4025 1.125 4.6025 2.86375 2.86375C4.6025 1.125 7.40125 1.125 13 1.125C18.5975 1.125 21.3975 1.125 23.1362 2.86375C24.875 4.6025 24.875 7.40125 24.875 13C24.875 18.5975 24.875 21.3975 23.1362 23.1362C21.3975 24.875 18.5988 24.875 13 24.875C7.4025 24.875 4.6025 24.875 2.86375 23.1362C1.125 21.3975 1.125 18.5988 1.125 13Z" stroke="#5EDA42" stroke-width="1.875" stroke-linecap="round" stroke-linejoin="round"/>
</svg>
