<svg width="159" height="52" viewBox="0 0 159 52" fill="none" xmlns="http://www.w3.org/2000/svg">
<g clip-path="url(#clip0_292_1825)">
<path d="M10.7031 42.4688C9.04948 42.4688 7.67578 42.319 6.58203 42.0195C5.5013 41.7201 4.62891 41.349 3.96484 40.9062C3.3138 40.4505 2.8125 40.0013 2.46094 39.5586C2.34375 39.3893 2.23958 39.2266 2.14844 39.0703C2.05729 38.9141 1.99219 38.7383 1.95312 38.543C1.90104 38.2826 1.84896 37.944 1.79688 37.5273C1.74479 37.0977 1.73828 36.6029 1.77734 36.043C1.79036 35.8086 1.83594 35.6458 1.91406 35.5547C2.00521 35.4505 2.15495 35.3724 2.36328 35.3203C2.74089 35.2292 3.22917 35.151 3.82812 35.0859C4.4401 35.0078 4.8763 34.9688 5.13672 34.9688C5.41016 34.9688 5.63151 35.0208 5.80078 35.125C5.97005 35.2292 6.17188 35.4049 6.40625 35.6523C6.66667 35.9258 7.11589 36.2773 7.75391 36.707C8.39193 37.1237 9.375 37.332 10.7031 37.332C11.9792 37.332 12.9427 37.0651 13.5938 36.5312C14.2448 35.9974 14.5703 35.2552 14.5703 34.3047C14.5703 33.7969 14.4141 33.3216 14.1016 32.8789C13.8021 32.4232 13.2487 31.974 12.4414 31.5312C11.6341 31.0755 10.4818 30.6003 8.98438 30.1055C6.51042 29.2721 4.72656 28.237 3.63281 27C2.53906 25.763 1.99219 24.0443 1.99219 21.8438C1.99219 20.0208 2.4349 18.4974 3.32031 17.2734C4.20573 16.0495 5.42969 15.125 6.99219 14.5C8.55469 13.875 10.3581 13.5625 12.4023 13.5625C13.9779 13.5625 15.2799 13.7513 16.3086 14.1289C17.3503 14.4935 18.1576 14.9102 18.7305 15.3789C19.3034 15.8346 19.6745 16.2057 19.8438 16.4922C19.9479 16.6615 20.013 16.7917 20.0391 16.8828C20.0781 16.9609 20.1042 17.0716 20.1172 17.2148C20.1562 17.6185 20.1693 18.0677 20.1562 18.5625C20.1432 19.0573 20.0977 19.6172 20.0195 20.2422C19.9805 20.4505 19.9089 20.5938 19.8047 20.6719C19.7135 20.737 19.5703 20.7695 19.375 20.7695C18.112 20.7956 17.1354 20.7305 16.4453 20.5742C16.1719 20.5091 15.9896 20.444 15.8984 20.3789C15.8073 20.3138 15.6901 20.2096 15.5469 20.0664C15.3385 19.819 15.0065 19.5326 14.5508 19.207C14.1081 18.8685 13.3919 18.6992 12.4023 18.6992C11.0352 18.6992 10.0651 19.0117 9.49219 19.6367C8.91927 20.2487 8.63281 20.9388 8.63281 21.707C8.63281 22.6185 9.05599 23.3346 9.90234 23.8555C10.7487 24.3633 12.0833 24.9427 13.9062 25.5938C15.4297 26.1276 16.7383 26.707 17.832 27.332C18.9258 27.957 19.7591 28.7578 20.332 29.7344C20.918 30.7109 21.2109 32 21.2109 33.6016C21.2109 35.5938 20.7487 37.2474 19.8242 38.5625C18.9128 39.8776 17.6628 40.8607 16.0742 41.5117C14.4987 42.1497 12.7083 42.4688 10.7031 42.4688ZM29.7859 42.4883C27.8719 42.4883 26.3484 41.9544 25.2156 40.8867C24.0958 39.806 23.5359 38.3216 23.5359 36.4336C23.5359 35.457 23.7117 34.5521 24.0633 33.7188C24.4279 32.8724 25.0529 32.1302 25.9383 31.4922C26.8367 30.8411 28.0867 30.3203 29.6883 29.9297C31.3029 29.5391 33.3602 29.3112 35.8602 29.2461C35.8602 28.0612 35.5607 27.2083 34.9617 26.6875C34.3758 26.1667 33.4904 25.9062 32.3055 25.9062C31.2378 25.9062 30.3654 26.0885 29.6883 26.4531C29.0112 26.8177 28.588 27.0651 28.4188 27.1953C28.2365 27.3516 28.0151 27.4102 27.7547 27.3711C27.4031 27.319 27.0255 27.2279 26.6219 27.0977C26.2313 26.9674 25.8081 26.8177 25.3523 26.6484C25.2872 26.6224 25.2156 26.5833 25.1375 26.5312C25.0594 26.4661 25.0138 26.375 25.0008 26.2578C25.0008 26.1927 25.0073 26.1146 25.0203 26.0234C25.0333 25.9193 25.0659 25.737 25.118 25.4766C25.1701 25.2161 25.2482 24.8971 25.3523 24.5195C25.4565 24.1289 25.5542 23.8294 25.6453 23.6211C25.7625 23.3997 25.9578 23.1914 26.2313 22.9961C26.4526 22.8138 27.1232 22.5208 28.243 22.1172C29.3628 21.7135 30.9839 21.5117 33.1063 21.5117C38.9526 21.5117 41.8758 24.3568 41.8758 30.0469V41.1016C41.8758 41.349 41.8042 41.5638 41.6609 41.7461C41.5307 41.9154 41.3029 42 40.9773 42H38.0477C37.8393 42 37.6505 41.974 37.4813 41.9219C37.325 41.8568 37.1753 41.7396 37.032 41.5703L35.8211 40.0078H35.6844C35.0854 40.8802 34.2781 41.5117 33.2625 41.9023C32.2599 42.293 31.101 42.4883 29.7859 42.4883ZM31.9344 37.957C33.1323 37.957 34.0372 37.651 34.6492 37.0391C35.2612 36.4271 35.6518 35.7956 35.8211 35.1445V32.9766C34.0112 32.9766 32.6505 33.1198 31.7391 33.4062C30.8406 33.6797 30.2417 34.0443 29.9422 34.5C29.6427 34.9427 29.493 35.4245 29.493 35.9453C29.493 36.7005 29.7273 37.2279 30.1961 37.5273C30.6648 37.8138 31.2443 37.957 31.9344 37.957ZM76.6633 42.4883C74.4628 42.4883 72.5487 42.1367 70.9211 41.4336C69.2935 40.7174 68.0305 39.6107 67.132 38.1133C66.2336 36.6159 65.7844 34.6823 65.7844 32.3125C65.7844 28.7578 66.6958 26.069 68.5188 24.2461C70.3417 22.4232 72.7635 21.5117 75.7844 21.5117C77.7505 21.5117 79.4107 21.8633 80.7648 22.5664C82.132 23.2695 83.1672 24.2396 83.8703 25.4766C84.5865 26.7135 84.9445 28.1263 84.9445 29.7148C84.9445 31.2643 84.5474 32.3451 83.7531 32.957C82.9589 33.569 81.8 33.875 80.2766 33.875H71.8977C72.0018 35.2161 72.4901 36.2383 73.3625 36.9414C74.2479 37.6445 75.4458 37.9961 76.9563 37.9961C78.1542 37.9961 79.1112 37.8203 79.8273 37.4688C80.5565 37.1042 81.0643 36.8177 81.3508 36.6094C81.5982 36.4271 81.8781 36.3424 82.1906 36.3555C82.438 36.3555 82.7896 36.4076 83.2453 36.5117C83.7141 36.6029 84.1763 36.7786 84.632 37.0391C84.9576 37.2083 85.1203 37.4427 85.1203 37.7422C85.1203 37.9115 85.0878 38.1523 85.0227 38.4648C84.9836 38.6471 84.9185 38.9141 84.8273 39.2656C84.7362 39.6042 84.619 39.9232 84.4758 40.2227C84.3977 40.3659 84.274 40.5026 84.1047 40.6328C83.8443 40.8151 83.4211 41.056 82.8352 41.3555C82.2622 41.6549 81.4745 41.9154 80.4719 42.1367C79.4693 42.3711 78.1997 42.4883 76.6633 42.4883ZM71.8586 29.8711H78.2258C78.8898 29.8711 79.2219 29.5651 79.2219 28.9531C79.2219 28.0286 78.9289 27.2539 78.343 26.6289C77.7701 25.9909 76.9042 25.6719 75.7453 25.6719C74.4823 25.6719 73.5513 26.0755 72.9523 26.8828C72.3664 27.6901 72.0018 28.6862 71.8586 29.8711ZM93.7539 42C92.4128 42 91.3906 41.8307 90.6875 41.4922C89.9974 41.1536 89.5286 40.6003 89.2812 39.832C89.0469 39.0638 88.9297 38.0417 88.9297 36.7656V19.2266C88.9297 17.9245 89.0469 16.8958 89.2812 16.1406C89.5286 15.3724 89.9974 14.8255 90.6875 14.5C91.3906 14.1615 92.4128 13.9922 93.7539 13.9922H99.125C102.25 13.9922 104.652 14.5651 106.332 15.7109C108.012 16.8568 108.852 18.4714 108.852 20.5547C108.852 21.5833 108.617 22.5208 108.148 23.3672C107.68 24.2135 107.061 24.9362 106.293 25.5352C105.538 26.1341 104.711 26.5833 103.812 26.8828V26.9609C104.958 27.1172 105.993 27.4948 106.918 28.0938C107.842 28.6797 108.578 29.4479 109.125 30.3984C109.685 31.3359 109.965 32.4167 109.965 33.6406C109.965 35.4635 109.522 37 108.637 38.25C107.764 39.487 106.553 40.4245 105.004 41.0625C103.467 41.6875 101.697 42 99.6914 42H93.7539ZM95.2383 34.9102C95.2383 35.7826 95.3945 36.4076 95.707 36.7852C96.0195 37.1628 96.6055 37.3516 97.4648 37.3516H98.9492C100.264 37.3516 101.319 37.013 102.113 36.3359C102.921 35.6589 103.324 34.7344 103.324 33.5625C103.324 32.4427 102.934 31.5638 102.152 30.9258C101.371 30.2878 100.362 29.9688 99.125 29.9688H99.1445C98.832 29.9688 98.5977 29.9232 98.4414 29.832C98.1029 29.6107 97.7513 29.3568 97.3867 29.0703C97.0352 28.7708 96.651 28.4128 96.2344 27.9961C96.1042 27.8268 96.0391 27.7031 96.0391 27.625C96.0391 27.5208 96.1042 27.3971 96.2344 27.2539C96.651 26.8372 97.0352 26.4792 97.3867 26.1797C97.7513 25.8802 98.1029 25.6263 98.4414 25.418C98.6237 25.3268 98.8581 25.2812 99.1445 25.2812H99.125C99.8932 25.2812 100.596 24.9948 101.234 24.4219C101.885 23.849 102.211 22.9505 102.211 21.7266C102.211 20.4896 101.866 19.6693 101.176 19.2656C100.486 18.849 99.6003 18.6406 98.5195 18.6406H97.4648C96.6055 18.6406 96.0195 18.8229 95.707 19.1875C95.3945 19.5521 95.2383 20.1771 95.2383 21.0625V34.9102ZM112.485 15.4375C112.485 15.2682 112.537 15.1185 112.641 14.9883C112.746 14.8581 112.882 14.6888 113.052 14.4805C113.416 14.0638 113.839 13.6276 114.321 13.1719C114.803 12.7031 115.291 12.2539 115.786 11.8242C116.098 11.5768 116.333 11.4531 116.489 11.4531C116.645 11.4531 116.886 11.5768 117.212 11.8242C118.266 12.7357 119.165 13.6211 119.907 14.4805C120.076 14.6758 120.213 14.8451 120.317 14.9883C120.434 15.1185 120.493 15.2682 120.493 15.4375C120.493 15.6068 120.434 15.7565 120.317 15.8867C120.213 16.0169 120.07 16.1927 119.887 16.4141C119.536 16.8177 119.126 17.2539 118.657 17.7227C118.188 18.1784 117.707 18.6146 117.212 19.0312C117.029 19.1875 116.886 19.2917 116.782 19.3438C116.678 19.3828 116.58 19.4023 116.489 19.4023C116.398 19.4023 116.3 19.3828 116.196 19.3438C116.105 19.2917 115.955 19.1875 115.747 19.0312C115.226 18.6146 114.738 18.1784 114.282 17.7227C113.826 17.2539 113.416 16.8047 113.052 16.375C112.882 16.1667 112.746 16.0039 112.641 15.8867C112.537 15.7565 112.485 15.6068 112.485 15.4375ZM119.555 40.9648C119.555 41.3555 119.471 41.6289 119.302 41.7852C119.145 41.9284 118.872 42 118.481 42H114.458C114.067 42 113.787 41.9284 113.618 41.7852C113.462 41.6289 113.384 41.3555 113.384 40.9648V23.0352C113.384 22.6445 113.462 22.3776 113.618 22.2344C113.787 22.0781 114.067 22 114.458 22H118.481C118.872 22 119.145 22.0781 119.302 22.2344C119.471 22.3776 119.555 22.6445 119.555 23.0352V40.9648ZM131.978 42.4883C127.629 42.4883 125.455 40.2292 125.455 35.7109V26.5508H123.248C122.857 26.5508 122.584 26.4727 122.427 26.3164C122.284 26.1471 122.213 25.8672 122.213 25.4766V23.0742C122.213 22.6836 122.284 22.4102 122.427 22.2539C122.584 22.0846 122.857 22 123.248 22H125.455V18.8555C125.455 18.543 125.52 18.3021 125.65 18.1328C126.197 17.4167 126.998 16.6419 128.052 15.8086C128.235 15.6784 128.397 15.6133 128.541 15.6133C128.697 15.6133 128.853 15.6784 129.009 15.8086C129.569 16.2383 130.038 16.6419 130.416 17.0195C130.806 17.3971 131.138 17.7682 131.412 18.1328C131.542 18.3021 131.607 18.543 131.607 18.8555V22H135.064C135.455 22 135.722 22.0846 135.865 22.2539C136.021 22.4102 136.099 22.6836 136.099 23.0742V25.4766C136.099 25.8672 136.021 26.1471 135.865 26.3164C135.722 26.4727 135.455 26.5508 135.064 26.5508H131.607V34.6367C131.607 36.7201 132.362 37.7617 133.873 37.7617C134.107 37.7617 134.322 37.7422 134.517 37.7031C134.713 37.651 134.882 37.599 135.025 37.5469C135.298 37.4427 135.487 37.4036 135.591 37.4297C135.709 37.4557 135.813 37.599 135.904 37.8594L137.037 40.8867C137.154 41.2122 137.076 41.4466 136.802 41.5898C136.607 41.681 136.132 41.8503 135.377 42.0977C134.634 42.3581 133.502 42.4883 131.978 42.4883ZM148.932 42.4883C146.732 42.4883 144.817 42.1367 143.19 41.4336C141.562 40.7174 140.299 39.6107 139.401 38.1133C138.502 36.6159 138.053 34.6823 138.053 32.3125C138.053 28.7578 138.965 26.069 140.788 24.2461C142.61 22.4232 145.032 21.5117 148.053 21.5117C150.019 21.5117 151.679 21.8633 153.034 22.5664C154.401 23.2695 155.436 24.2396 156.139 25.4766C156.855 26.7135 157.213 28.1263 157.213 29.7148C157.213 31.2643 156.816 32.3451 156.022 32.957C155.228 33.569 154.069 33.875 152.545 33.875H144.166C144.271 35.2161 144.759 36.2383 145.631 36.9414C146.517 37.6445 147.715 37.9961 149.225 37.9961C150.423 37.9961 151.38 37.8203 152.096 37.4688C152.825 37.1042 153.333 36.8177 153.62 36.6094C153.867 36.4271 154.147 36.3424 154.459 36.3555C154.707 36.3555 155.058 36.4076 155.514 36.5117C155.983 36.6029 156.445 36.7786 156.901 37.0391C157.226 37.2083 157.389 37.4427 157.389 37.7422C157.389 37.9115 157.357 38.1523 157.291 38.4648C157.252 38.6471 157.187 38.9141 157.096 39.2656C157.005 39.6042 156.888 39.9232 156.745 40.2227C156.666 40.3659 156.543 40.5026 156.373 40.6328C156.113 40.8151 155.69 41.056 155.104 41.3555C154.531 41.6549 153.743 41.9154 152.741 42.1367C151.738 42.3711 150.468 42.4883 148.932 42.4883ZM144.127 29.8711H150.495C151.159 29.8711 151.491 29.5651 151.491 28.9531C151.491 28.0286 151.198 27.2539 150.612 26.6289C150.039 25.9909 149.173 25.6719 148.014 25.6719C146.751 25.6719 145.82 26.0755 145.221 26.8828C144.635 27.6901 144.271 28.6862 144.127 29.8711Z" fill="#5EDA42"/>
<mask id="mask0_292_1825" style="mask-type:luminance" maskUnits="userSpaceOnUse" x="69" y="12" width="2" height="1">
<path d="M69.5002 12.6475L70.0025 12.932C69.8866 12.8694 69.7541 12.8352 69.6051 12.858L69.1028 12.5735C69.2463 12.5507 69.3843 12.5849 69.5002 12.6475Z" fill="white"/>
</mask>
<g mask="url(#mask0_292_1825)">
<path d="M69.6117 12.8581L69.1094 12.5735C69.1977 12.5622 69.2805 12.5679 69.3578 12.5849L69.86 12.8694C69.7828 12.8467 69.7 12.841 69.6117 12.8581Z" fill="#5EDA42"/>
<path d="M69.8534 12.8694L69.3511 12.5848C69.3952 12.5962 69.4339 12.6133 69.478 12.6304L69.9803 12.9149C69.9417 12.8921 69.8975 12.8807 69.8534 12.8694Z" fill="#5EDA42"/>
<path d="M69.9809 12.9145L69.4786 12.63L69.5007 12.6414L70.003 12.9259L69.9809 12.9145Z" fill="#5EDA42"/>
</g>
<mask id="mask1_292_1825" style="mask-type:luminance" maskUnits="userSpaceOnUse" x="53" y="12" width="17" height="27">
<path d="M54.3734 38.7261L53.8711 38.4416C54.3844 36.6776 54.9088 34.908 55.4883 33.1611C58.077 25.3313 62.0124 17.2454 68.7683 12.7103C68.8843 12.6306 68.9946 12.5908 69.105 12.5737L69.6073 12.8582C69.5024 12.8753 69.3865 12.9151 69.2706 12.9948C62.5147 17.5299 58.5793 25.6158 55.9906 33.4456C55.411 35.1982 54.8812 36.9622 54.3734 38.7261Z" fill="white"/>
</mask>
<g mask="url(#mask1_292_1825)">
<path d="M54.3731 38.7259L53.8708 38.4414C54.3842 36.6774 54.9085 34.9077 55.4881 33.1608C55.6813 32.5804 55.88 32.0057 56.0842 31.4253L56.5865 31.7098C56.3822 32.2902 56.1835 32.8706 55.9904 33.4453C55.4108 35.1979 54.8809 36.9619 54.3731 38.7259Z" fill="#5EDA42"/>
<path d="M56.5926 31.7101L56.0903 31.4256C56.99 28.9048 58.0332 26.3897 59.2806 24.0055L59.7829 24.29C58.5355 26.6742 57.4923 29.195 56.5926 31.7101Z" fill="#5EDA42"/>
<path d="M59.7829 24.2898L59.2806 24.0053C60.0037 22.6169 60.7985 21.274 61.6651 19.9937L62.1674 20.2782C61.3008 21.5528 60.506 22.9014 59.7829 24.2898Z" fill="#5EDA42"/>
<path d="M62.167 20.2783L61.6647 19.9938C62.327 19.015 63.039 18.0762 63.8007 17.1885L64.303 17.473C63.5413 18.3607 62.8348 19.2996 62.167 20.2783Z" fill="#5EDA42"/>
<path d="M64.3027 17.4731L63.8004 17.1886C64.4683 16.409 65.1748 15.6693 65.9199 14.9751L66.4222 15.2596C65.6771 15.9538 64.9706 16.6936 64.3027 17.4731Z" fill="#5EDA42"/>
<path d="M66.4226 15.2594L65.9203 14.9749C66.6654 14.2807 67.4547 13.6377 68.2827 13.0459L68.7849 13.3304C67.9515 13.9222 67.1677 14.5652 66.4226 15.2594Z" fill="#5EDA42"/>
<path d="M68.784 13.3303L68.2817 13.0458C68.4418 12.932 68.6074 12.8182 68.773 12.7044C68.8116 12.6759 68.8503 12.6532 68.8889 12.6361L69.3912 12.9206C69.3525 12.9377 69.3139 12.9605 69.2753 12.9889C69.1097 13.097 68.9496 13.2108 68.784 13.3303Z" fill="#5EDA42"/>
<path d="M69.3923 12.9265L68.89 12.642C68.9673 12.6079 69.039 12.5851 69.1108 12.5737L69.6131 12.8582C69.5413 12.8696 69.4696 12.8924 69.3923 12.9265Z" fill="#5EDA42"/>
</g>
<mask id="mask2_292_1825" style="mask-type:luminance" maskUnits="userSpaceOnUse" x="43" y="16" width="12" height="26">
<path d="M54.0184 41.9181L53.5161 41.6336C53.3781 41.5539 53.2622 41.4231 53.196 41.2296C50.4859 33.3372 47.3839 25.6781 43.8955 18.2808C43.6085 17.672 44.1218 17.0005 44.6076 16.9322C44.7179 16.9151 44.8283 16.9322 44.9277 16.9891L45.43 17.2736C45.3306 17.2167 45.2202 17.2054 45.1098 17.2167C44.6241 17.285 44.1108 17.9565 44.3978 18.5653C47.8917 25.9627 50.9937 33.6217 53.6982 41.5141C53.7645 41.7076 53.8804 41.8385 54.0184 41.9181Z" fill="white"/>
</mask>
<g mask="url(#mask2_292_1825)">
<path d="M54.0185 41.9182L53.5163 41.6337C53.3783 41.554 53.2624 41.4232 53.1961 41.2297C50.486 33.3373 47.384 25.6782 43.8957 18.2809C43.7853 18.0533 43.7908 17.8143 43.8681 17.6038L44.3704 17.8883C44.2931 18.0988 44.2876 18.3378 44.398 18.5654C47.8918 25.9627 50.9938 33.6218 53.6984 41.5142C53.7646 41.7077 53.8806 41.8386 54.0185 41.9182Z" fill="#5EDA42"/>
<path d="M44.3641 17.8824L43.8618 17.5979C43.8784 17.5523 43.9005 17.5068 43.9225 17.4613L44.4248 17.7458C44.4027 17.7913 44.3807 17.8369 44.3641 17.8824Z" fill="#5EDA42"/>
<path d="M44.4251 17.7513L43.9229 17.4668C43.9449 17.427 43.967 17.3929 43.9891 17.353L44.4914 17.6375C44.4693 17.6717 44.4472 17.7115 44.4251 17.7513Z" fill="#5EDA42"/>
<path d="M44.4915 17.6378L43.9893 17.3533C44.0113 17.3191 44.0389 17.285 44.0665 17.2509L44.5688 17.5354C44.5412 17.5695 44.5136 17.598 44.4915 17.6378Z" fill="#5EDA42"/>
<path d="M44.5686 17.5411L44.0663 17.2566C44.0939 17.2224 44.1215 17.194 44.1546 17.1655L44.6569 17.45C44.6238 17.4785 44.5962 17.5069 44.5686 17.5411Z" fill="#5EDA42"/>
<path d="M44.6563 17.4499L44.1541 17.1654C44.1872 17.137 44.2203 17.1085 44.2589 17.0801L44.7612 17.3646C44.7226 17.393 44.6895 17.4215 44.6563 17.4499Z" fill="#5EDA42"/>
<path d="M44.7625 17.3647L44.2603 17.0802C44.3044 17.0517 44.3486 17.0232 44.3927 17.0005L44.895 17.285C44.8508 17.3078 44.8067 17.3362 44.7625 17.3647Z" fill="#5EDA42"/>
<path d="M44.894 17.2851L44.3917 17.0006C44.4635 16.9665 44.5297 16.9437 44.6015 16.9323C44.6732 16.9209 44.745 16.9266 44.8112 16.9437L45.3135 17.2282C45.2473 17.2111 45.1755 17.2054 45.1037 17.2168C45.032 17.2282 44.9602 17.251 44.894 17.2851Z" fill="#5EDA42"/>
<path d="M45.3137 17.2282L44.8114 16.9437C44.8445 16.9494 44.8721 16.9608 44.8997 16.9779L45.402 17.2624C45.3744 17.2453 45.3413 17.2339 45.3137 17.2282Z" fill="#5EDA42"/>
<path d="M45.408 17.2624L44.9058 16.9779L44.9223 16.9893L45.4246 17.2738L45.408 17.2624Z" fill="#5EDA42"/>
</g>
<path d="M69.6122 12.8583C70.3022 12.7559 70.7603 13.8029 70.0152 14.3036C68.3041 15.4531 66.7366 16.8643 65.3401 18.486C59.8316 24.8875 57.403 33.3205 55.1234 41.3096C55.0075 41.7193 54.7205 41.9469 54.428 41.9924C54.1354 42.0379 53.8263 41.8786 53.6994 41.5144C50.9893 33.6221 47.8873 25.963 44.399 18.5656C44.1119 17.9568 44.6253 17.2853 45.111 17.2171C45.3318 17.1829 45.547 17.2796 45.674 17.5528C48.9029 24.3982 51.8062 31.4655 54.3783 38.7262C54.8916 36.9622 55.416 35.1926 55.9955 33.4457C58.5842 25.6159 62.5196 17.53 69.2755 12.9949C69.3915 12.9152 69.5018 12.8754 69.6122 12.8583Z" fill="#5EDA42"/>
<mask id="mask3_292_1825" style="mask-type:luminance" maskUnits="userSpaceOnUse" x="83" y="1" width="2" height="1">
<path d="M83.8196 1.06814L84.3219 1.35265C84.2281 1.30144 84.1177 1.27299 84.0073 1.29006L83.505 1.00554C83.6154 0.988474 83.7258 1.01123 83.8196 1.06814Z" fill="white"/>
</mask>
<g mask="url(#mask3_292_1825)">
<path d="M84.0077 1.28398L83.5054 0.999465C83.5716 0.988084 83.6378 0.999465 83.6986 1.01085L84.2008 1.29536C84.1401 1.27829 84.0739 1.2726 84.0077 1.28398Z" fill="#5EDA42"/>
<path d="M84.1949 1.29587L83.6926 1.01135C83.7257 1.02273 83.7644 1.03411 83.7975 1.05118L84.2998 1.3357C84.2667 1.31863 84.2335 1.30725 84.1949 1.29587Z" fill="#5EDA42"/>
<path d="M84.2999 1.33566L83.7976 1.05115L83.8197 1.06253L84.322 1.34704L84.2999 1.33566Z" fill="#5EDA42"/>
</g>
<mask id="mask4_292_1825" style="mask-type:luminance" maskUnits="userSpaceOnUse" x="61" y="4" width="21" height="23">
<path d="M62.8717 26.3043L62.3694 26.0197C62.0658 25.849 61.8616 25.445 62.0548 24.95C62.9048 22.7706 64.4006 20.9611 66.073 19.4759C67.762 17.9794 69.6387 16.8243 71.4435 15.5497C73.0939 14.3832 74.6725 13.0687 76.1186 11.5722C78.1719 9.44403 79.9547 7.02567 81.4229 4.40247L81.9252 4.68698C80.457 7.31019 78.6742 9.72854 76.6209 11.8567C75.1748 13.3532 73.5962 14.6677 71.9458 15.8342C70.1409 17.1088 68.2643 18.2639 66.5753 19.7605C64.9029 21.2399 63.4071 23.0551 62.5571 25.2345C62.3694 25.7238 62.5681 26.1335 62.8717 26.3043Z" fill="white"/>
</mask>
<g mask="url(#mask4_292_1825)">
<path d="M62.8732 26.3044L62.3709 26.0199C62.0729 25.8549 61.8742 25.4622 62.0453 24.9843L62.5476 25.2688C62.3765 25.7467 62.5807 26.1394 62.8732 26.3044Z" fill="#5EDA42"/>
<path d="M62.5467 25.2686L62.0444 24.9841L62.0555 24.95C62.21 24.5573 62.3866 24.1704 62.5798 23.8005L63.0821 24.085C62.8889 24.4549 62.7123 24.8419 62.5578 25.2345L62.5467 25.2686Z" fill="#5EDA42"/>
<path d="M63.082 24.0909L62.5797 23.8064C62.8115 23.3683 63.0654 22.9415 63.3414 22.5375L63.8437 22.822C63.5677 23.226 63.3138 23.6528 63.082 24.0909Z" fill="#5EDA42"/>
<path d="M63.8444 22.822L63.3422 22.5375C63.6457 22.0879 63.9769 21.6612 64.3302 21.2515L64.8324 21.536C64.4792 21.9457 64.148 22.3724 63.8444 22.822Z" fill="#5EDA42"/>
<path d="M64.8326 21.5303L64.3303 21.2458C64.7719 20.7337 65.241 20.25 65.7268 19.7948L66.229 20.0793C65.7378 20.5345 65.2686 21.0182 64.8326 21.5303Z" fill="#5EDA42"/>
<path d="M66.2298 20.0793L65.7275 19.7948C65.8434 19.6866 65.9594 19.5842 66.0753 19.4818C66.8094 18.8274 67.5821 18.2413 68.3714 17.678L68.8737 17.9625C68.0844 18.5258 67.3172 19.1119 66.5775 19.7663C66.4616 19.8687 66.3457 19.9768 66.2298 20.0793Z" fill="#5EDA42"/>
<path d="M68.8729 17.9626L68.3706 17.6781C69.3862 16.9554 70.4294 16.2726 71.445 15.5556C71.4891 15.5271 71.5333 15.493 71.5775 15.4589L72.0797 15.7434C72.0356 15.7775 71.9914 15.806 71.9473 15.8401C70.9317 16.5571 69.8885 17.2399 68.8729 17.9626Z" fill="#5EDA42"/>
<path d="M72.0792 15.7489L71.5769 15.4644C72.747 14.628 73.8786 13.7232 74.9493 12.7274L75.4516 13.0119C74.3808 14.0077 73.2438 14.9125 72.0792 15.7489Z" fill="#5EDA42"/>
<path d="M75.4527 13.0119L74.9504 12.7274C75.3478 12.3576 75.7397 11.9763 76.1206 11.5837C76.5787 11.1057 77.0203 10.6163 77.4563 10.1156L77.9586 10.4001C77.5281 10.9009 77.081 11.3902 76.6229 11.8682C76.242 12.2608 75.8501 12.6421 75.4527 13.0119Z" fill="#5EDA42"/>
<path d="M77.9524 10.3943L77.4501 10.1098C78.2835 9.13679 79.0618 8.11823 79.7904 7.04846L80.2926 7.33297C79.5696 8.39705 78.7858 9.4213 77.9524 10.3943Z" fill="#5EDA42"/>
<path d="M80.2927 7.33873L79.7904 7.05422C80.37 6.20068 80.9164 5.31869 81.4242 4.41394L81.9265 4.69845C81.4187 5.6032 80.8722 6.48519 80.2927 7.33873Z" fill="#5EDA42"/>
</g>
<mask id="mask5_292_1825" style="mask-type:luminance" maskUnits="userSpaceOnUse" x="62" y="1" width="23" height="18">
<path d="M63.5985 18.0588L63.0962 17.7743C62.9637 17.7003 62.8644 17.5524 62.8313 17.3248C62.5498 15.3559 63.0741 13.3473 64.1725 11.5833C68.7924 4.16891 77.5629 6.77504 83.1321 1.20998C83.2591 1.08479 83.386 1.0222 83.5075 1.00513L84.0098 1.28964C83.8883 1.30671 83.7614 1.3693 83.6344 1.49449C78.0652 7.05956 69.2946 4.45342 64.6748 11.8678C63.5764 13.6375 63.052 15.6405 63.3335 17.6093C63.3667 17.8426 63.466 17.9848 63.5985 18.0588Z" fill="white"/>
</mask>
<g mask="url(#mask5_292_1825)">
<path d="M63.598 18.0587L63.0957 17.7742C62.9633 17.7002 62.8639 17.5522 62.8308 17.3246C62.6431 16.033 62.8087 14.7242 63.2503 13.478L63.7526 13.7625C63.311 15.0087 63.1454 16.3175 63.3331 17.6092C63.3662 17.8425 63.4656 17.9847 63.598 18.0587Z" fill="#5EDA42"/>
<path d="M63.7536 13.757L63.2513 13.4725C63.4004 13.0571 63.577 12.6531 63.7867 12.2548L64.289 12.5393C64.0793 12.9376 63.9026 13.3416 63.7536 13.757Z" fill="#5EDA42"/>
<path d="M64.2889 12.5391L63.7866 12.2546C63.9081 12.027 64.035 11.7994 64.173 11.5775C64.2613 11.4352 64.3551 11.2929 64.449 11.1564L64.9512 11.4409C64.8574 11.5775 64.7691 11.7197 64.6753 11.862C64.5373 12.0839 64.4103 12.3115 64.2889 12.5391Z" fill="#5EDA42"/>
<path d="M64.9503 11.4409L64.448 11.1564C64.7019 10.7808 64.9724 10.4337 65.2483 10.1094L65.7506 10.3939C65.4746 10.7182 65.2097 11.0653 64.9503 11.4409Z" fill="#5EDA42"/>
<path d="M65.7512 10.3937L65.2489 10.1092C65.5359 9.77343 65.834 9.46615 66.1375 9.18164L66.6398 9.46615C66.3307 9.75067 66.0382 10.0579 65.7512 10.3937Z" fill="#5EDA42"/>
<path d="M66.6397 9.4721L66.1375 9.18759C66.4962 8.85755 66.866 8.55597 67.2524 8.28284L67.7547 8.56735C67.3683 8.84048 66.9985 9.14207 66.6397 9.4721Z" fill="#5EDA42"/>
<path d="M67.7541 8.56735L67.2518 8.28284C67.8479 7.86176 68.4717 7.50327 69.1119 7.19031L69.6142 7.47482C68.9739 7.78778 68.3502 8.14627 67.7541 8.56735Z" fill="#5EDA42"/>
<path d="M69.6148 7.47475L69.1125 7.19023C72.4519 5.5742 76.3321 5.2271 79.7211 3.59399L80.2234 3.87851C76.8344 5.51161 72.9541 5.85872 69.6148 7.47475Z" fill="#5EDA42"/>
<path d="M80.2231 3.87847L79.7208 3.59396C80.3832 3.2753 81.029 2.90543 81.6471 2.46729L82.1494 2.7518C81.5312 3.18995 80.8855 3.55981 80.2231 3.87847Z" fill="#5EDA42"/>
<path d="M82.1436 2.74614L81.6414 2.46162C82.0443 2.17711 82.4362 1.85846 82.8115 1.51135L83.3138 1.79587C82.9385 2.14297 82.5466 2.46162 82.1436 2.74614Z" fill="#5EDA42"/>
<path d="M83.3138 1.79582L82.8115 1.51131C82.9164 1.41457 83.0268 1.31215 83.1317 1.20404C83.1427 1.19265 83.1482 1.18696 83.1592 1.18127L83.6615 1.46579C83.6615 1.46579 83.645 1.48286 83.6339 1.48855C83.5291 1.59097 83.4242 1.6934 83.3138 1.79582Z" fill="#5EDA42"/>
<path d="M83.6618 1.46608L83.1595 1.18156C83.1871 1.15311 83.2147 1.13035 83.2479 1.11328L83.7501 1.39779C83.7225 1.42055 83.6949 1.44332 83.6618 1.46608Z" fill="#5EDA42"/>
<path d="M83.7495 1.39757L83.2472 1.11305C83.2803 1.09029 83.3134 1.06753 83.3465 1.05615L83.8488 1.34067C83.8157 1.35774 83.7826 1.37481 83.7495 1.39757Z" fill="#5EDA42"/>
<path d="M83.8491 1.33511L83.3468 1.0506C83.402 1.02215 83.4572 1.01077 83.5069 0.99939L84.0091 1.2839C83.9539 1.28959 83.9043 1.30666 83.8491 1.33511Z" fill="#5EDA42"/>
</g>
<path d="M82.8644 1.44562C83.3557 1.37734 83.7475 2.06586 83.4992 2.6292C82.5498 4.75166 81.4073 6.7717 80.0936 8.66655C77.7478 12.0523 74.8556 14.96 71.6487 17.2361C68.3315 19.5918 64.3574 21.7598 62.6905 26.0389C62.5691 26.3576 62.3593 26.5112 62.1385 26.5453C61.6639 26.6136 61.1505 26.0901 61.4155 25.3959C62.2655 23.2165 63.7613 21.407 65.4337 19.9219C67.1227 18.4253 68.9993 17.2702 70.8042 15.9956C72.4546 14.8291 74.0331 13.5147 75.4793 12.0181C77.5325 9.88996 79.3154 7.4716 80.7836 4.84839C77.8472 6.5953 74.4858 7.07897 71.3672 8.1146C69.3802 8.77467 67.3103 9.70218 65.7594 11.432C64.3905 12.9513 63.3142 15.0795 63.6067 17.1223C63.695 17.7311 63.2148 18.2091 62.7898 18.2717C62.5083 18.3115 62.2489 18.1693 62.1882 17.7653C61.9067 15.7964 62.4311 13.7878 63.5295 12.0238C68.1493 4.6094 76.9199 7.21554 82.4891 1.65047C82.616 1.52529 82.743 1.46269 82.8644 1.44562Z" fill="#5EDA42"/>
<mask id="mask6_292_1825" style="mask-type:luminance" maskUnits="userSpaceOnUse" x="42" y="2" width="2" height="1">
<path d="M43.1849 2.39121L43.6871 2.67573C43.5712 2.61313 43.4443 2.59606 43.3173 2.61313L42.8151 2.32862C42.942 2.31155 43.069 2.32862 43.1849 2.39121Z" fill="white"/>
</mask>
<g mask="url(#mask6_292_1825)">
<path d="M43.3222 2.61316L42.8199 2.32864C42.9027 2.31726 42.9855 2.31726 43.0628 2.34002L43.5651 2.62454C43.4878 2.60177 43.405 2.60177 43.3222 2.61316Z" fill="#5EDA42"/>
<path d="M43.5638 2.6246L43.0615 2.34009C43.1002 2.35147 43.1333 2.36285 43.1664 2.37992L43.6687 2.66443C43.6356 2.64736 43.5969 2.63598 43.5638 2.6246Z" fill="#5EDA42"/>
<path d="M43.6687 2.66452L43.1664 2.38L43.1885 2.39139L43.6907 2.6759L43.6687 2.66452Z" fill="#5EDA42"/>
</g>
<mask id="mask7_292_1825" style="mask-type:luminance" maskUnits="userSpaceOnUse" x="39" y="2" width="7" height="15">
<path d="M40.009 16.1054L39.5067 15.8209C40.2519 16.242 41.1074 16.4468 41.9684 16.3216C42.4707 16.2477 42.9785 16.0599 43.4753 15.7355C45.4899 14.4097 45.4016 11.8662 44.9435 9.87457C44.4081 7.55295 43.3097 5.54429 42.1395 3.63237C41.7863 3.06334 42.2996 2.39758 42.8129 2.32361L43.3152 2.60812C42.8019 2.68209 42.2886 3.34216 42.6418 3.91688C43.812 5.8288 44.9103 7.83746 45.4457 10.1591C45.9039 12.1507 45.9922 14.6942 43.9775 16.02C43.4808 16.3444 42.973 16.5322 42.4707 16.6061C41.6041 16.7313 40.7541 16.5208 40.009 16.1054Z" fill="white"/>
</mask>
<g mask="url(#mask7_292_1825)">
<path d="M40.0095 16.1053L39.5072 15.8208C39.5624 15.8549 39.6176 15.8834 39.6783 15.9118L40.1806 16.1964C40.1254 16.1679 40.0647 16.1395 40.0095 16.1053Z" fill="#5EDA42"/>
<path d="M40.1809 16.1963L39.6786 15.9117C39.9435 16.0483 40.2195 16.1564 40.5065 16.2304L41.0088 16.5149C40.7218 16.4409 40.4458 16.3328 40.1809 16.1963Z" fill="#5EDA42"/>
<path d="M41.0083 16.515L40.506 16.2304C40.9807 16.3556 41.4719 16.3955 41.9742 16.3215C42.3274 16.2703 42.6807 16.1622 43.0339 15.9915L43.5362 16.276C43.183 16.4467 42.8297 16.5548 42.4765 16.606C41.9797 16.68 41.4829 16.6401 41.0083 16.515Z" fill="#5EDA42"/>
<path d="M43.5305 16.276L43.0282 15.9915C43.1772 15.9175 43.3263 15.8322 43.4753 15.7354C43.5139 15.707 43.5526 15.6842 43.5912 15.6558L44.0935 15.9403C44.0548 15.9687 44.0162 15.9915 43.9776 16.0199C43.8285 16.1167 43.6795 16.202 43.5305 16.276Z" fill="#5EDA42"/>
<path d="M44.1003 15.946L43.598 15.6615C43.736 15.5648 43.8574 15.4624 43.9734 15.3542L44.4756 15.6388C44.3597 15.7469 44.2328 15.8493 44.1003 15.946Z" fill="#5EDA42"/>
<path d="M44.4748 15.6388L43.9725 15.3542C44.0719 15.2575 44.1712 15.1608 44.254 15.0583L44.7563 15.3429C44.668 15.4453 44.5742 15.542 44.4748 15.6388Z" fill="#5EDA42"/>
<path d="M44.7564 15.3427L44.2542 15.0582C44.3425 14.9558 44.4197 14.8534 44.4915 14.7452L44.9938 15.0298C44.922 15.1379 44.8392 15.2403 44.7564 15.3427Z" fill="#5EDA42"/>
<path d="M44.9995 15.0297L44.4972 14.7452C44.58 14.6257 44.6517 14.5006 44.718 14.3754L45.2203 14.6599C45.154 14.7851 45.0823 14.9102 44.9995 15.0297Z" fill="#5EDA42"/>
<path d="M45.2199 14.66L44.7177 14.3755C44.8004 14.2104 44.8777 14.0397 44.9384 13.869L45.4407 14.1535C45.38 14.3299 45.3082 14.4949 45.2199 14.66Z" fill="#5EDA42"/>
<path d="M45.4352 14.1536L44.9329 13.8691C45.3745 12.6172 45.2365 11.1378 44.9495 9.88021C44.4141 7.55859 43.3157 5.54993 42.1455 3.638C42.0075 3.41608 42.002 3.17709 42.0793 2.96655L42.5816 3.25107C42.5043 3.4616 42.5153 3.7006 42.6478 3.92252C43.818 5.83444 44.9163 7.8431 45.4517 10.1647C45.7388 11.4223 45.8823 12.9017 45.4352 14.1536Z" fill="#5EDA42"/>
<path d="M42.5755 3.25105L42.0732 2.96654C42.0898 2.92671 42.1064 2.88688 42.1229 2.84705L42.6252 3.13156C42.6031 3.17139 42.5866 3.21122 42.5755 3.25105Z" fill="#5EDA42"/>
<path d="M42.6261 3.13125L42.1238 2.84673C42.1403 2.81259 42.1624 2.77845 42.1845 2.75L42.6868 3.03451C42.6647 3.06865 42.6426 3.09711 42.6261 3.13125Z" fill="#5EDA42"/>
<path d="M42.6858 3.03461L42.1835 2.7501C42.2055 2.71596 42.2276 2.68751 42.2552 2.65906L42.7575 2.94357C42.7299 2.97202 42.7078 3.00047 42.6858 3.03461Z" fill="#5EDA42"/>
<path d="M42.7575 2.9436L42.2552 2.65908C42.2828 2.63063 42.3104 2.59649 42.338 2.57373L42.8403 2.85824C42.8127 2.88669 42.7851 2.91515 42.7575 2.9436Z" fill="#5EDA42"/>
<path d="M42.8411 2.85265L42.3389 2.56814C42.372 2.53969 42.4051 2.51124 42.4437 2.48279L42.946 2.7673C42.9074 2.79006 42.8743 2.81851 42.8411 2.85265Z" fill="#5EDA42"/>
<path d="M42.9461 2.76733L42.4438 2.48281C42.488 2.44867 42.5377 2.42591 42.5818 2.39746L43.0841 2.68197C43.0344 2.70473 42.9903 2.73319 42.9461 2.76733Z" fill="#5EDA42"/>
<path d="M43.0842 2.68783L42.5819 2.40332C42.6592 2.36918 42.7365 2.34073 42.8137 2.32935L43.316 2.61386C43.2387 2.62524 43.1559 2.648 43.0842 2.68783Z" fill="#5EDA42"/>
</g>
<mask id="mask8_292_1825" style="mask-type:luminance" maskUnits="userSpaceOnUse" x="34" y="8" width="6" height="10">
<path d="M39.246 17.6643L38.7437 17.3798C36.3041 16.0141 35.007 12.6967 34.0466 9.89142C33.8534 9.31671 34.295 8.86149 34.7476 8.7932C34.8966 8.77044 35.0401 8.7932 35.1726 8.86149L35.6749 9.146C35.5479 9.07203 35.3989 9.05495 35.2498 9.07772C34.7972 9.146 34.3557 9.60122 34.5489 10.1759C35.5093 12.9869 36.8064 16.2986 39.246 17.6643Z" fill="white"/>
</mask>
<g mask="url(#mask8_292_1825)">
<path d="M39.245 17.664L38.7427 17.3795C36.303 16.0138 35.006 12.6964 34.0456 9.89113C33.9793 9.69766 33.9848 9.51558 34.0456 9.36194L34.5478 9.64645C34.4926 9.80009 34.4871 9.98218 34.5478 10.1756C35.5082 12.9866 36.8053 16.2984 39.245 17.664Z" fill="#5EDA42"/>
<path d="M34.5427 9.64658L34.0404 9.36207C34.0514 9.32793 34.068 9.29379 34.0846 9.25964L34.5868 9.54416C34.5703 9.5783 34.5537 9.61244 34.5427 9.64658Z" fill="#5EDA42"/>
<path d="M34.5865 9.54423L34.0842 9.25972C34.1008 9.23127 34.1173 9.20281 34.1339 9.18005L34.6362 9.46457C34.6362 9.46457 34.6031 9.51578 34.5865 9.54423Z" fill="#5EDA42"/>
<path d="M34.6357 9.45883L34.1334 9.17431C34.1334 9.17431 34.1721 9.1231 34.1886 9.10034L34.6909 9.38485C34.6909 9.38485 34.6523 9.43607 34.6357 9.45883Z" fill="#5EDA42"/>
<path d="M34.6967 9.3851L34.1945 9.10059C34.1945 9.10059 34.2386 9.04937 34.2662 9.02661L34.7685 9.31112C34.7685 9.31112 34.7188 9.35665 34.6967 9.3851Z" fill="#5EDA42"/>
<path d="M34.7685 9.311L34.2662 9.02649C34.2938 8.99804 34.3269 8.97528 34.3601 8.95251L34.8623 9.23703C34.8292 9.25979 34.8016 9.28255 34.7685 9.311Z" fill="#5EDA42"/>
<path d="M34.8575 9.23673L34.3552 8.95222C34.3994 8.92377 34.4435 8.89532 34.4877 8.87256L34.99 9.15707C34.9458 9.17983 34.8961 9.20828 34.8575 9.23673Z" fill="#5EDA42"/>
<path d="M34.9943 9.15717L34.4921 8.87266C34.5749 8.83283 34.6632 8.80438 34.746 8.793C34.8398 8.78162 34.9391 8.78162 35.0275 8.80438L35.5297 9.08889C35.4414 9.06613 35.3421 9.06044 35.2482 9.07751C35.1599 9.08889 35.0716 9.11734 34.9943 9.15717Z" fill="#5EDA42"/>
<path d="M35.5362 9.08896L35.0339 8.80444C35.0726 8.81582 35.1112 8.8272 35.1498 8.84997L35.6521 9.13448C35.6135 9.11741 35.5749 9.10034 35.5362 9.08896Z" fill="#5EDA42"/>
<path d="M35.6517 9.13449L35.1494 8.84998L35.1715 8.86136L35.6738 9.14587L35.6517 9.13449Z" fill="#5EDA42"/>
</g>
<path d="M43.3189 2.61368C43.5452 2.57953 43.766 2.6592 43.9206 2.90957C45.157 4.92392 46.3105 7.07483 46.868 9.52164C47.3261 11.5075 47.4807 13.8804 46.2167 15.8094C45.306 17.1921 43.8378 18.0513 42.4082 18.2562C42.2095 18.2846 42.0108 18.3017 41.8176 18.3017C37.6338 18.3586 35.8068 13.8349 34.5539 10.1703C34.3607 9.59562 34.8023 9.1404 35.2549 9.07211C35.5529 9.02659 35.851 9.15178 35.978 9.52733C36.7065 11.6726 37.4737 13.9316 39.0579 15.3997C39.9796 16.2589 41.216 16.7881 42.48 16.6003C42.9823 16.5263 43.4901 16.3386 43.9868 16.0142C46.0014 14.6884 45.9131 12.1449 45.455 10.1533C44.9196 7.83164 43.8212 5.82298 42.6511 3.91105C42.2978 3.34203 42.8111 2.67627 43.3245 2.60229L43.3189 2.61368Z" fill="#5EDA42"/>
<mask id="mask9_292_1825" style="mask-type:luminance" maskUnits="userSpaceOnUse" x="38" y="5" width="2" height="1">
<path d="M38.641 5.47411L39.1432 5.75862C39.0439 5.70172 38.9335 5.68465 38.8176 5.70172L38.3153 5.4172C38.4312 5.40013 38.5416 5.4172 38.641 5.47411Z" fill="white"/>
</mask>
<g mask="url(#mask9_292_1825)">
<path d="M38.8175 5.70169L38.3152 5.41718C38.3869 5.4058 38.4587 5.41149 38.5304 5.42856L39.0327 5.71307C38.961 5.696 38.8892 5.69031 38.8175 5.70169Z" fill="#5EDA42"/>
<path d="M39.0324 5.7131L38.5302 5.42859C38.5633 5.43428 38.5909 5.45135 38.624 5.46273L39.1263 5.74724C39.0987 5.73017 39.0655 5.71879 39.0324 5.7131Z" fill="#5EDA42"/>
<path d="M39.1268 5.7474L38.6245 5.46289L38.6411 5.47427L39.1434 5.75878L39.1268 5.7474Z" fill="#5EDA42"/>
</g>
<mask id="mask10_292_1825" style="mask-type:luminance" maskUnits="userSpaceOnUse" x="37" y="5" width="6" height="12">
<path d="M42.7792 16.2857L42.277 16.0012C42.1831 15.95 42.0948 15.8589 42.0341 15.7281C40.5604 12.7407 39.0867 9.75328 37.6185 6.76021C37.3204 6.15704 37.8337 5.48559 38.325 5.41162L38.8272 5.69613C38.336 5.76442 37.8227 6.43587 38.1207 7.04472C39.5945 10.0321 41.0682 13.0195 42.5364 16.0126C42.6026 16.1434 42.6854 16.2345 42.7792 16.2857Z" fill="white"/>
</mask>
<g mask="url(#mask10_292_1825)">
<path d="M42.7787 16.2857L42.2764 16.0012C42.1825 15.95 42.0942 15.8589 42.0335 15.7281C40.5598 12.7407 39.0861 9.7533 37.6179 6.76022C37.5075 6.53261 37.5075 6.29362 37.5848 6.07739L38.087 6.36191C38.0098 6.57244 38.0098 6.81144 38.1202 7.04474C39.5939 10.0321 41.0676 13.0195 42.5358 16.0126C42.602 16.1435 42.6848 16.2345 42.7787 16.2857Z" fill="#5EDA42"/>
<path d="M38.0819 6.36754L37.5796 6.08302C37.5961 6.0375 37.6127 5.99198 37.6348 5.95215L38.1371 6.23666C38.115 6.28218 38.0929 6.32202 38.0819 6.36754Z" fill="#5EDA42"/>
<path d="M38.1377 6.23088L37.6354 5.94637C37.6575 5.90654 37.6795 5.8724 37.7016 5.83826L38.2039 6.12277C38.1818 6.15691 38.1597 6.19674 38.1377 6.23088Z" fill="#5EDA42"/>
<path d="M38.2041 6.12295L37.7018 5.83843C37.7239 5.80429 37.7515 5.77015 37.7791 5.7417L38.2813 6.02621C38.2537 6.06035 38.2317 6.0888 38.2041 6.12295Z" fill="#5EDA42"/>
<path d="M38.2811 6.02631L37.7788 5.7418C37.8064 5.70766 37.834 5.67921 37.8671 5.65076L38.3694 5.93527C38.3363 5.96372 38.3087 5.99217 38.2811 6.02631Z" fill="#5EDA42"/>
<path d="M38.3687 5.93517L37.8665 5.65066C37.8996 5.62221 37.9327 5.59376 37.9713 5.56531L38.4736 5.84982C38.435 5.87827 38.4019 5.90672 38.3687 5.93517Z" fill="#5EDA42"/>
<path d="M38.4736 5.84989L37.9713 5.56538C38.0155 5.53693 38.0596 5.50848 38.1038 5.48572L38.6061 5.77023C38.5619 5.79299 38.5177 5.82144 38.4736 5.84989Z" fill="#5EDA42"/>
<path d="M38.6064 5.7704L38.1041 5.48589C38.1759 5.45174 38.2476 5.42898 38.3194 5.4176L38.8217 5.70212C38.7499 5.7135 38.6782 5.73626 38.6064 5.7704Z" fill="#5EDA42"/>
</g>
<path d="M38.8204 5.7013C39.0412 5.66716 39.2565 5.75821 39.389 6.03134C40.8627 9.02441 42.3364 12.0118 43.8046 14.9992C44.1027 15.6023 43.5893 16.2681 43.1036 16.3421C42.8828 16.3762 42.6676 16.2852 42.5296 16.012C41.0559 13.0247 39.5821 10.0373 38.1139 7.0442C37.8159 6.44104 38.3292 5.76959 38.8204 5.69561V5.7013Z" fill="#5EDA42"/>
</g>
<defs>
<clipPath id="clip0_292_1825">
<rect width="159" height="52" fill="white"/>
</clipPath>
</defs>
</svg>
