<svg width="12" height="21" viewBox="0 0 12 21" fill="none" xmlns="http://www.w3.org/2000/svg">
    <path d="M11.2573 1.84056C11.3513 1.74111 11.4248 1.62412 11.4735 1.49628C11.5223 1.36844 11.5454 1.23224 11.5415 1.09547C11.5377 0.958698 11.5069 0.824027 11.451 0.699145C11.3951 0.574264 11.3151 0.461619 11.2156 0.367642C11.1162 0.273665 10.9992 0.200196 10.8714 0.15143C10.7435 0.102664 10.6073 0.0795554 10.4705 0.0834245C10.3338 0.0872936 10.1991 0.118064 10.0742 0.17398C9.94934 0.229895 9.8367 0.30986 9.74272 0.409309L0.888553 9.78431C0.705702 9.97771 0.603821 10.2338 0.603821 10.4999C0.603821 10.7661 0.705702 11.0222 0.888553 11.2156L9.74272 20.5916C9.83608 20.6932 9.9487 20.7753 10.074 20.833C10.1994 20.8908 10.3349 20.923 10.4729 20.9279C10.6108 20.9328 10.7483 20.9103 10.8774 20.8616C11.0065 20.8129 11.1247 20.739 11.225 20.6443C11.3253 20.5495 11.4059 20.4358 11.4619 20.3097C11.5179 20.1835 11.5483 20.0475 11.5513 19.9096C11.5543 19.7716 11.5298 19.6344 11.4794 19.506C11.4289 19.3775 11.3534 19.2604 11.2573 19.1614L3.07814 10.4999L11.2573 1.84056Z" fill="#666666"/>
</svg>
