<svg width="18" height="20" viewBox="0 0 18 20" fill="none" xmlns="http://www.w3.org/2000/svg">
<path d="M5.33333 11.833C5.07361 11.833 4.85606 11.745 4.68067 11.569C4.50528 11.393 4.41728 11.1755 4.41667 10.9163C4.41606 10.6572 4.50406 10.4397 4.68067 10.2637C4.85728 10.0877 5.07483 9.99968 5.33333 9.99968C5.59183 9.99968 5.80969 10.0877 5.98692 10.2637C6.16414 10.4397 6.25183 10.6572 6.25 10.9163C6.24817 11.1755 6.16017 11.3933 5.986 11.5699C5.81183 11.7465 5.59428 11.8342 5.33333 11.833ZM9 11.833C8.74028 11.833 8.52272 11.745 8.34733 11.569C8.17194 11.393 8.08394 11.1755 8.08333 10.9163C8.08272 10.6572 8.17072 10.4397 8.34733 10.2637C8.52394 10.0877 8.7415 9.99968 9 9.99968C9.2585 9.99968 9.47636 10.0877 9.65358 10.2637C9.83081 10.4397 9.9185 10.6572 9.91667 10.9163C9.91483 11.1755 9.82683 11.3933 9.65267 11.5699C9.4785 11.7465 9.26094 11.8342 9 11.833ZM12.6667 11.833C12.4069 11.833 12.1894 11.745 12.014 11.569C11.8386 11.393 11.7506 11.1755 11.75 10.9163C11.7494 10.6572 11.8374 10.4397 12.014 10.2637C12.1906 10.0877 12.4082 9.99968 12.6667 9.99968C12.9252 9.99968 13.143 10.0877 13.3202 10.2637C13.4975 10.4397 13.5852 10.6572 13.5833 10.9163C13.5815 11.1755 13.4935 11.3933 13.3193 11.5699C13.1452 11.7465 12.9276 11.8342 12.6667 11.833ZM2.58333 19.1663C2.07917 19.1663 1.64772 18.987 1.289 18.6283C0.930278 18.2695 0.750611 17.8378 0.75 17.333V4.49968C0.75 3.99551 0.929667 3.56407 1.289 3.20534C1.64833 2.84662 2.07978 2.66696 2.58333 2.66634H3.5V1.74968C3.5 1.48996 3.588 1.2724 3.764 1.09701C3.94 0.921622 4.15756 0.833622 4.41667 0.833011C4.67578 0.8324 4.89364 0.9204 5.07025 1.09701C5.24686 1.27362 5.33456 1.49118 5.33333 1.74968V2.66634H12.6667V1.74968C12.6667 1.48996 12.7547 1.2724 12.9307 1.09701C13.1067 0.921622 13.3242 0.833622 13.5833 0.833011C13.8424 0.8324 14.0603 0.9204 14.2369 1.09701C14.4135 1.27362 14.5012 1.49118 14.5 1.74968V2.66634H15.4167C15.9208 2.66634 16.3526 2.84601 16.7119 3.20534C17.0713 3.56468 17.2506 3.99612 17.25 4.49968V17.333C17.25 17.8372 17.0706 18.2689 16.7119 18.6283C16.3532 18.9876 15.9214 19.167 15.4167 19.1663H2.58333ZM2.58333 17.333H15.4167V8.16635H2.58333V17.333Z" fill="#999999"/>
</svg>
