<svg width="19" height="21" viewBox="0 0 19 21" fill="none" xmlns="http://www.w3.org/2000/svg">
<path d="M5.33333 12.5835C5.03819 12.5835 4.79097 12.4835 4.59167 12.2835C4.39236 12.0835 4.29236 11.8363 4.29167 11.5418C4.29097 11.2474 4.39097 11.0002 4.59167 10.8002C4.79236 10.6002 5.03958 10.5002 5.33333 10.5002C5.62708 10.5002 5.87465 10.6002 6.07604 10.8002C6.27743 11.0002 6.37708 11.2474 6.375 11.5418C6.37292 11.8363 6.27292 12.0838 6.075 12.2845C5.87708 12.4852 5.62986 12.5849 5.33333 12.5835ZM9.5 12.5835C9.20486 12.5835 8.95764 12.4835 8.75833 12.2835C8.55903 12.0835 8.45903 11.8363 8.45833 11.5418C8.45764 11.2474 8.55764 11.0002 8.75833 10.8002C8.95903 10.6002 9.20625 10.5002 9.5 10.5002C9.79375 10.5002 10.0413 10.6002 10.2427 10.8002C10.4441 11.0002 10.5437 11.2474 10.5417 11.5418C10.5396 11.8363 10.4396 12.0838 10.2417 12.2845C10.0438 12.4852 9.79653 12.5849 9.5 12.5835ZM13.6667 12.5835C13.3715 12.5835 13.1243 12.4835 12.925 12.2835C12.7257 12.0835 12.6257 11.8363 12.625 11.5418C12.6243 11.2474 12.7243 11.0002 12.925 10.8002C13.1257 10.6002 13.3729 10.5002 13.6667 10.5002C13.9604 10.5002 14.208 10.6002 14.4094 10.8002C14.6108 11.0002 14.7104 11.2474 14.7083 11.5418C14.7063 11.8363 14.6062 12.0838 14.4083 12.2845C14.2104 12.4852 13.9632 12.5849 13.6667 12.5835ZM2.20833 20.9168C1.63542 20.9168 1.14514 20.713 0.7375 20.3054C0.329861 19.8977 0.125694 19.4071 0.125 18.8335V4.25017C0.125 3.67725 0.329167 3.18697 0.7375 2.77933C1.14583 2.37169 1.63611 2.16753 2.20833 2.16683H3.25V1.12517C3.25 0.830028 3.35 0.582805 3.55 0.3835C3.75 0.184194 3.99722 0.0841941 4.29167 0.0834997C4.58611 0.0828052 4.83368 0.182805 5.03438 0.3835C5.23507 0.584194 5.33472 0.831416 5.33333 1.12517V2.16683H13.6667V1.12517C13.6667 0.830028 13.7667 0.582805 13.9667 0.3835C14.1667 0.184194 14.4139 0.0841941 14.7083 0.0834997C15.0028 0.0828052 15.2503 0.182805 15.451 0.3835C15.6517 0.584194 15.7514 0.831416 15.75 1.12517V2.16683H16.7917C17.3646 2.16683 17.8552 2.371 18.2635 2.77933C18.6719 3.18767 18.8757 3.67794 18.875 4.25017V18.8335C18.875 19.4064 18.6712 19.897 18.2635 20.3054C17.8559 20.7137 17.3653 20.9175 16.7917 20.9168H2.20833ZM2.20833 18.8335H16.7917V8.41683H2.20833V18.8335Z" fill="#999999"/>
</svg>
