<svg width="40" height="40" viewBox="0 0 40 40" fill="none" xmlns="http://www.w3.org/2000/svg">
<rect width="40" height="40" rx="20" fill="#FFF9E6"/>
<g clip-path="url(#clip0_1780_11232)">
<path fill-rule="evenodd" clip-rule="evenodd" d="M24.7095 9.34545C24.8745 9.17999 25.0849 9.0673 25.3141 9.02169C25.5432 8.97609 25.7808 8.99962 25.9965 9.08931L29.339 10.4753C29.6272 10.5943 29.8565 10.8227 29.9767 11.1105C30.0969 11.3983 30.0981 11.7219 29.9801 12.0106L28.6145 15.353C28.5263 15.5689 28.3761 15.7537 28.1828 15.8841C27.9895 16.0145 27.7619 16.0846 27.5287 16.0856C27.2955 16.0867 27.0673 16.0185 26.8729 15.8898C26.6785 15.761 26.5266 15.5775 26.4365 15.3625L25.8975 14.0739L12.3235 19.874C12.1811 19.9349 12.0282 19.9671 11.8733 19.9689C11.7185 19.9706 11.5648 19.9419 11.4211 19.8842C11.2773 19.8266 11.1464 19.7412 11.0356 19.633C10.9249 19.5247 10.8366 19.3957 10.7757 19.2533C10.7148 19.1109 10.6826 18.9579 10.6808 18.8031C10.6791 18.6482 10.7078 18.4946 10.7655 18.3508C10.8231 18.2071 10.9085 18.0761 11.0167 17.9654C11.125 17.8547 11.254 17.7663 11.3964 17.7055L24.9877 11.899L24.4581 10.634C24.3675 10.4185 24.343 10.1809 24.3878 9.95149C24.4326 9.72203 24.5446 9.51108 24.7095 9.34545ZM29.0357 17.6112C29.4524 17.6112 29.8521 17.7767 30.1468 18.0714C30.4415 18.3661 30.6071 18.7658 30.6071 19.1826V30.1826C30.6071 30.391 30.5243 30.5908 30.377 30.7382C30.2296 30.8855 30.0298 30.9683 29.8214 30.9683H25.8928C25.6844 30.9683 25.4846 30.8855 25.3372 30.7382C25.1899 30.5908 25.1071 30.391 25.1071 30.1826V19.1826C25.1071 18.7658 25.2727 18.3661 25.5674 18.0714C25.8621 17.7767 26.2618 17.6112 26.6785 17.6112H29.0357ZM22.2895 20.4272C21.9946 20.133 21.595 19.968 21.1785 19.9683H18.8214C18.4046 19.9683 18.0049 20.1339 17.7102 20.4286C17.4155 20.7233 17.25 21.123 17.25 21.5397V30.1826C17.25 30.391 17.3327 30.5908 17.4801 30.7382C17.6274 30.8855 17.8273 30.9683 18.0357 30.9683H21.9643C22.1726 30.9683 22.3725 30.8855 22.5198 30.7382C22.6672 30.5908 22.75 30.391 22.75 30.1826V21.5397C22.7501 21.3331 22.7095 21.1285 22.6305 20.9376C22.5515 20.7467 22.4357 20.5732 22.2895 20.4272ZM13.3214 22.3254C13.7382 22.3254 14.1379 22.491 14.4326 22.7857C14.7273 23.0804 14.8928 23.4801 14.8928 23.8969V30.1826C14.8928 30.391 14.81 30.5908 14.6627 30.7382C14.5153 30.8855 14.3155 30.9683 14.1071 30.9683H10.1785C9.97015 30.9683 9.7703 30.8855 9.62295 30.7382C9.4756 30.5908 9.39282 30.391 9.39282 30.1826V23.8969C9.39282 23.4801 9.55838 23.0804 9.85308 22.7857C10.1478 22.491 10.5475 22.3254 10.9643 22.3254H13.3214Z" fill="#FFE9A2"/>
</g>
<defs>
<clipPath id="clip0_1780_11232">
<rect width="22" height="22" fill="white" transform="translate(9 9)"/>
</clipPath>
</defs>
</svg>
