<svg width="27" height="27" viewBox="0 0 27 27" fill="none" xmlns="http://www.w3.org/2000/svg">
<g clip-path="url(#clip0_1417_11212)">
<path d="M13.5 16.3126C12.4171 16.3135 11.3508 16.0461 10.3965 15.5342C9.44227 15.0223 8.62972 14.2819 8.03156 13.3792L9.59344 12.3413C10.021 12.9861 10.6015 13.515 11.2831 13.8809C11.9648 14.2467 12.7264 14.4382 13.5 14.4382C14.2736 14.4382 15.0352 14.2467 15.7169 13.8809C16.3985 13.515 16.979 12.9861 17.4066 12.3413L18.9684 13.3792C18.3703 14.2819 17.5577 15.0223 16.6035 15.5342C15.6492 16.0461 14.5829 16.3135 13.5 16.3126ZM17.25 6.0001C16.8792 6.0001 16.5166 6.11006 16.2083 6.31609C15.9 6.52212 15.6596 6.81495 15.5177 7.15756C15.3758 7.50018 15.3387 7.87718 15.411 8.24089C15.4834 8.6046 15.662 8.9387 15.9242 9.20092C16.1864 9.46314 16.5205 9.64172 16.8842 9.71407C17.2479 9.78642 17.6249 9.74928 17.9675 9.60737C18.3101 9.46546 18.603 9.22513 18.809 8.91679C19.015 8.60845 19.125 8.24594 19.125 7.8751C19.1275 7.62817 19.0807 7.38323 18.9874 7.15461C18.894 6.92599 18.756 6.71829 18.5814 6.54368C18.4068 6.36907 18.1991 6.23105 17.9705 6.13771C17.7419 6.04437 17.4969 5.99759 17.25 6.0001ZM9.75 6.0001C9.37916 6.0001 9.01665 6.11006 8.70831 6.31609C8.39996 6.52212 8.15964 6.81495 8.01773 7.15756C7.87581 7.50018 7.83868 7.87718 7.91103 8.24089C7.98338 8.6046 8.16195 8.9387 8.42418 9.20092C8.6864 9.46314 9.02049 9.64172 9.38421 9.71407C9.74792 9.78642 10.1249 9.74928 10.4675 9.60737C10.8101 9.46546 11.103 9.22513 11.309 8.91679C11.515 8.60845 11.625 8.24594 11.625 7.8751C11.6275 7.62817 11.5807 7.38323 11.4874 7.15461C11.394 6.92599 11.256 6.71829 11.0814 6.54368C10.9068 6.36907 10.6991 6.23105 10.4705 6.13771C10.2419 6.04437 9.99693 5.99759 9.75 6.0001Z" fill="#B3B3B3"/>
<path d="M15.1275 26.625L13.5 25.6875L17.25 19.125H22.875C23.1213 19.1254 23.3653 19.0771 23.593 18.983C23.8206 18.8889 24.0275 18.7508 24.2017 18.5767C24.3758 18.4025 24.5139 18.1956 24.608 17.968C24.7021 17.7403 24.7504 17.4963 24.75 17.25V4.125C24.7504 3.87867 24.7021 3.63468 24.608 3.40703C24.5139 3.17938 24.3758 2.97253 24.2017 2.79835C24.0275 2.62417 23.8206 2.48607 23.593 2.39197C23.3653 2.29788 23.1213 2.24963 22.875 2.25H4.125C3.87867 2.24963 3.63468 2.29788 3.40703 2.39197C3.17938 2.48607 2.97253 2.62417 2.79835 2.79835C2.62417 2.97253 2.48607 3.17938 2.39197 3.40703C2.29788 3.63468 2.24963 3.87867 2.25 4.125V17.25C2.24963 17.4963 2.29788 17.7403 2.39197 17.968C2.48607 18.1956 2.62417 18.4025 2.79835 18.5767C2.97253 18.7508 3.17938 18.8889 3.40703 18.983C3.63468 19.0771 3.87867 19.1254 4.125 19.125H12.5625V21H4.125C3.13044 21 2.17661 20.6049 1.47335 19.9016C0.770088 19.1984 0.375 18.2446 0.375 17.25V4.125C0.375 3.13044 0.770088 2.17661 1.47335 1.47335C2.17661 0.770088 3.13044 0.375 4.125 0.375H22.875C23.8696 0.375 24.8234 0.770088 25.5266 1.47335C26.2299 2.17661 26.625 3.13044 26.625 4.125V17.25C26.625 18.2446 26.2299 19.1984 25.5266 19.9016C24.8234 20.6049 23.8696 21 22.875 21H18.3422L15.1275 26.625Z" fill="#B3B3B3"/>
</g>
<defs>
<clipPath id="clip0_1417_11212">
<rect width="27" height="27" fill="white"/>
</clipPath>
</defs>
</svg>
