<svg width="37" height="41" viewBox="0 0 37 41" fill="none" xmlns="http://www.w3.org/2000/svg">
    <path d="M24.8713 6.269C25.888 5.58944 27.0702 5.19879 28.2917 5.13876C29.5132 5.07873 30.728 5.35157 31.8065 5.92817C32.885 6.50476 33.7866 7.36344 34.4151 8.41252C35.0436 9.4616 35.3754 10.6617 35.375 11.8846C35.376 13.6025 34.7219 15.2561 33.5462 16.5085C32.3704 17.7609 30.7614 18.5179 29.0469 18.6253H27.875M24.8713 6.269C24.4073 4.94965 23.5451 3.80687 22.4039 2.99846C21.2626 2.19004 19.8986 1.75586 18.5 1.75586C17.1014 1.75586 15.7374 2.19004 14.5961 2.99846C13.4549 3.80687 12.5927 4.94965 12.1288 6.269M24.8713 6.269C25.3147 7.53166 25.3728 8.89763 25.0381 10.1934M12.1288 6.269C12.9884 6.84443 13.7044 7.60976 14.2213 8.50588M12.1288 6.269C11.112 5.58944 9.92977 5.19879 8.7083 5.13876C7.48683 5.07873 6.272 5.35157 5.19351 5.92817C4.11503 6.50476 3.21339 7.36344 2.58489 8.41252C1.95639 9.4616 1.62461 10.6617 1.625 11.8846C1.62403 13.6025 2.27806 15.2561 3.45383 16.5085C4.6296 17.7609 6.23864 18.5179 7.95313 18.6253H9.125M27.875 24.2503V16.7503M9.125 24.2503V16.7503M29.75 25.1878C26.7519 24.0215 22.8125 23.3128 18.5 23.3128C14.1875 23.3128 10.25 24.0215 7.25 25.1878M27.875 29.8753C27.875 32.3617 26.8873 34.7462 25.1291 36.5044C23.371 38.2625 20.9864 39.2503 18.5 39.2503C16.0136 39.2503 13.629 38.2625 11.8709 36.5044C10.1127 34.7462 9.125 32.3617 9.125 29.8753" stroke="#5EDA42" stroke-width="3" stroke-linecap="round" stroke-linejoin="round"/>
</svg>
