<svg width="20" height="20" viewBox="0 0 20 20" fill="none" xmlns="http://www.w3.org/2000/svg">
    <g clip-path="url(#clip0_1864_7768)">
        <path d="M10 0C4.47656 0 0 4.47656 0 10C0 15.5234 4.47656 20 10 20C15.5234 20 20 15.5234 20 10C20 4.47656 15.5234 0 10 0ZM10 18.332C5.39844 18.332 1.66797 14.6016 1.66797 10C1.66797 5.39844 5.39844 1.66797 10 1.66797C14.6016 1.66797 18.332 5.39844 18.332 10C18.332 14.6016 14.6016 18.332 10 18.332ZM9.16797 9.16797H5V10.8359H10.832V3.33594H9.16406V9.16797H9.16797Z" fill="#DA4289"/>
    </g>
    <defs>
        <clipPath id="clip0_1864_7768">
            <rect width="20" height="20" fill="white"/>
        </clipPath>
    </defs>
</svg>
