<svg width="16" height="18" viewBox="0 0 16 18" fill="none" xmlns="http://www.w3.org/2000/svg">
<path d="M8.00001 16.7077V6.41185M8.00001 2.77768V1.29102M8.00001 2.77768C8.48182 2.77768 8.9439 2.96908 9.28459 3.30977C9.62528 3.65046 9.81668 4.11254 9.81668 4.59435C9.81668 5.07616 9.62528 5.53824 9.28459 5.87893C8.9439 6.21962 8.48182 6.41102 8.00001 6.41102C7.5182 6.41102 7.05612 6.21962 6.71543 5.87893C6.37474 5.53824 6.18334 5.07616 6.18334 4.59435C6.18334 4.11254 6.37474 3.65046 6.71543 3.30977C7.05612 2.96908 7.5182 2.77768 8.00001 2.77768ZM2.49418 16.7077V11.9177M2.49418 11.9177C2.01226 11.9177 1.54966 11.7258 1.20889 11.3851C0.86812 11.0443 0.676677 10.5821 0.676677 10.1002C0.676677 9.61837 0.868909 9.1563 1.2096 8.81561C1.55029 8.47491 2.01237 8.28352 2.49418 8.28352M2.49418 11.9177C2.9761 11.9177 3.43786 11.7258 3.77863 11.3851C4.1194 11.0443 4.31084 10.5821 4.31084 10.1002C4.31084 9.61837 4.11945 9.1563 3.77875 8.81561C3.43806 8.47491 2.97599 8.28352 2.49418 8.28352M2.49418 8.28352V1.29102M13.5058 16.7077V14.1202M13.5058 10.486V1.29102M13.5058 10.486C13.9877 10.486 14.4497 10.6774 14.7904 11.0181C15.1311 11.3588 15.3225 11.8209 15.3225 12.3027C15.3225 12.5413 15.2755 12.7775 15.1842 12.9979C15.0929 13.2183 14.9591 13.4186 14.7904 13.5873C14.6217 13.756 14.4215 13.8898 14.2011 13.9811C13.9806 14.0724 13.7444 14.1193 13.5058 14.1193C13.2673 14.1193 13.031 14.0724 12.8106 13.9811C12.5902 13.8898 12.39 13.756 12.2213 13.5873C12.0526 13.4186 11.9188 13.2183 11.8275 12.9979C11.7362 12.7775 11.6892 12.5413 11.6892 12.3027C11.6892 11.8209 11.8806 11.3588 12.2213 11.0181C12.562 10.6774 13.024 10.486 13.5058 10.486Z" stroke="#5EDA42" stroke-width="1.3" stroke-miterlimit="10" stroke-linecap="round"/>
</svg>
