<svg width="16" height="17" viewBox="0 0 16 17" fill="none" xmlns="http://www.w3.org/2000/svg">
<path d="M3.12465 4.64174L4.53331 13.1504C4.59775 13.5399 4.79837 13.8939 5.09945 14.1494C5.40052 14.4048 5.78249 14.545 6.17731 14.5451H8.40931M12.8746 4.64174L11.4666 13.1504C11.4022 13.5399 11.2016 13.8939 10.9005 14.1494C10.5994 14.4048 10.2175 14.545 9.82265 14.5451H7.59065M6.68131 7.91041V11.2764M9.31865 7.91041V11.2764M1.83331 4.64174H14.1666M9.85131 4.64174V3.45508C9.85131 3.18986 9.74596 2.93551 9.55842 2.74797C9.37088 2.56043 9.11653 2.45508 8.85131 2.45508H7.14865C6.88343 2.45508 6.62908 2.56043 6.44154 2.74797C6.254 2.93551 6.14865 3.18986 6.14865 3.45508V4.64174H9.85131Z" stroke="#FF3333" stroke-width="1.2" stroke-linecap="round" stroke-linejoin="round"/>
</svg>
