<svg width="24" height="22" viewBox="0 0 24 22" fill="none" xmlns="http://www.w3.org/2000/svg">
<path d="M14.0475 1.94591C13.844 1.58207 13.5472 1.27908 13.1876 1.06818C12.828 0.857276 12.4187 0.746094 12.0019 0.746094C11.585 0.746094 11.1757 0.857276 10.8161 1.06818C10.4565 1.27908 10.1597 1.58207 9.95624 1.94591L1.04436 17.8872C0.845011 18.2437 0.742316 18.6462 0.746458 19.0547C0.750601 19.4632 0.861436 19.8635 1.06798 20.2159C1.27452 20.5684 1.56959 20.8607 1.92394 21.064C2.27829 21.2672 2.67961 21.3743 3.08811 21.3747H20.9081C21.3168 21.3746 21.7183 21.2678 22.0729 21.0647C22.4275 20.8615 22.7229 20.5692 22.9296 20.2167C23.1364 19.8642 23.2474 19.4638 23.2516 19.0551C23.2559 18.6465 23.1532 18.2439 22.9537 17.8872L14.0475 1.94591ZM13.4062 16.2184C13.4062 16.5914 13.2581 16.9491 12.9944 17.2128C12.7306 17.4765 12.3729 17.6247 12 17.6247C11.627 17.6247 11.2693 17.4765 11.0056 17.2128C10.7419 16.9491 10.5937 16.5914 10.5937 16.2184C10.5937 15.8455 10.7419 15.4878 11.0056 15.224C11.2693 14.9603 11.627 14.8122 12 14.8122C12.3729 14.8122 12.7306 14.9603 12.9944 15.224C13.2581 15.4878 13.4062 15.8455 13.4062 16.2184ZM11.0625 11.9997V7.31216C11.0625 7.06352 11.1613 6.82506 11.3371 6.64925C11.5129 6.47343 11.7513 6.37466 12 6.37466C12.2486 6.37466 12.4871 6.47343 12.6629 6.64925C12.8387 6.82506 12.9375 7.06352 12.9375 7.31216V11.9997C12.9375 12.2483 12.8387 12.4868 12.6629 12.6626C12.4871 12.8384 12.2486 12.9372 12 12.9372C11.7513 12.9372 11.5129 12.8384 11.3371 12.6626C11.1613 12.4868 11.0625 12.2483 11.0625 11.9997Z" fill="#FF3333"/>
</svg>
