<svg width="16" height="18" viewBox="0 0 16 18" fill="none" xmlns="http://www.w3.org/2000/svg">
<path d="M0.5 9.83268C0.5 11.8218 1.29018 13.7295 2.6967 15.136C4.10322 16.5425 6.01088 17.3327 8 17.3327C8 15.3436 7.20982 13.4359 5.8033 12.0294C4.39678 10.6229 2.48912 9.83268 0.5 9.83268ZM8 17.3327C9.98912 17.3327 11.8968 16.5425 13.3033 15.136C14.7098 13.7295 15.5 11.8218 15.5 9.83268C13.5109 9.83268 11.6032 10.6229 10.1967 12.0294C8.79018 13.4359 8 15.3436 8 17.3327ZM13 1.49935V5.66602C13 6.9921 12.4732 8.26387 11.5355 9.20155C10.5979 10.1392 9.32608 10.666 8 10.666C6.67392 10.666 5.40215 10.1392 4.46447 9.20155C3.52678 8.26387 3 6.9921 3 5.66602V1.49935C3.61667 1.49935 4.225 1.59935 4.8 1.82435C5.25833 2.01602 5.66667 2.29935 6.00833 2.65768L8 0.666016L9.99167 2.65768C10.3333 2.29935 10.7417 2.01602 11.2 1.82435C11.7744 1.60438 12.385 1.49414 13 1.49935Z" fill="#B3B3B3"/>
</svg>
