<svg width="10" height="7" viewBox="0 0 10 7" fill="none" xmlns="http://www.w3.org/2000/svg">
<path d="M5.00002 6.75C4.80855 6.74903 4.6197 6.70546 4.44717 6.62244C4.27463 6.53941 4.12274 6.41902 4.00252 6.27L0.845022 2.445C0.660517 2.21473 0.544411 1.93725 0.509934 1.6442C0.475458 1.35115 0.523997 1.05431 0.650021 0.7875C0.752231 0.55562 0.919026 0.35806 1.13049 0.218417C1.34195 0.0787738 1.58913 0.00294979 1.84252 0H8.15752C8.41091 0.00294979 8.6581 0.0787738 8.86956 0.218417C9.08102 0.35806 9.24781 0.55562 9.35002 0.7875C9.47605 1.05431 9.52459 1.35115 9.49011 1.6442C9.45563 1.93725 9.33953 2.21473 9.15502 2.445L5.99752 6.27C5.8773 6.41902 5.72541 6.53941 5.55288 6.62244C5.38034 6.70546 5.19149 6.74903 5.00002 6.75Z" fill="#CCCCCC"/>
</svg>
