<svg width="14" height="15" viewBox="0 0 14 15" fill="none" xmlns="http://www.w3.org/2000/svg">
<path d="M13.2825 1.21697C12.824 0.758525 12.2021 0.500977 11.5538 0.500977C10.9054 0.500977 10.2835 0.758525 9.82501 1.21697L1.17851 9.86497C0.926356 10.117 0.75238 10.4364 0.677507 10.785L0.0110071 13.895C-0.0065695 13.9767 -0.00339926 14.0614 0.0202282 14.1416C0.0438556 14.2217 0.087187 14.2946 0.146264 14.3537C0.20534 14.4128 0.278278 14.4561 0.358414 14.4798C0.438551 14.5034 0.52333 14.5065 0.605007 14.489L3.71501 13.8225C4.06354 13.7476 4.38302 13.5736 4.63501 13.3215L13.2825 4.67397C13.7408 4.21548 13.9983 3.59374 13.9983 2.94547C13.9983 2.2972 13.7408 1.67547 13.2825 1.21697ZM10.5325 1.92397C10.8059 1.66543 11.1694 1.52372 11.5456 1.529C11.9219 1.53427 12.2812 1.6861 12.5473 1.95221C12.8133 2.21832 12.9651 2.57771 12.9702 2.95396C12.9754 3.33021 12.8336 3.69364 12.575 3.96697L12.125 4.41697L10.082 2.37447L10.5325 1.92397ZM9.37451 3.08147L11.4175 5.12447L3.92851 12.615C3.81262 12.7308 3.66573 12.8107 3.50551 12.845L1.15001 13.35L1.65501 10.995C1.6893 10.8348 1.76917 10.6879 1.88501 10.572L9.37451 3.08147Z" fill="#B3B3B3"/>
</svg>
