<svg width="30" height="30" viewBox="0 0 30 30" fill="none" xmlns="http://www.w3.org/2000/svg">
<path d="M13.2312 13.2336C12.7624 13.7026 12.4992 14.3385 12.4993 15.0016C12.4994 15.6646 12.7629 16.3005 13.2318 16.7693C13.7008 17.238 14.3367 17.5013 14.9998 17.5012C15.6628 17.5011 16.2987 17.2376 16.7675 16.7686" stroke="#666666" stroke-width="2.5" stroke-linecap="round" stroke-linejoin="round"/>
<path d="M20.8512 20.8413C19.0983 21.9394 17.0685 22.5148 15 22.5C10.5 22.5 6.75 20 3.75 15C5.34 12.35 7.14 10.4025 9.15 9.1575M12.725 7.725C13.4737 7.57294 14.236 7.49756 15 7.5C19.5 7.5 23.25 10 26.25 15C25.4167 16.3875 24.5258 17.5833 23.5775 18.5875M3.75 3.75L26.25 26.25" stroke="#666666" stroke-width="2.5" stroke-linecap="round" stroke-linejoin="round"/>
</svg>
