<svg width="28" height="28" viewBox="0 0 28 28" fill="none" xmlns="http://www.w3.org/2000/svg">
<path d="M2.97493 15.6403C2.6576 15.2051 2.49893 14.9869 2.38927 14.5669C2.31523 14.1929 2.31523 13.8081 2.38927 13.4341C2.49893 13.0129 2.6576 12.7948 2.97493 12.3608C4.7121 9.97492 8.5201 5.83325 13.9999 5.83325C19.4798 5.83325 23.2878 9.97492 25.0249 12.3596C25.3423 12.7948 25.5009 13.0129 25.6106 13.4329C25.6846 13.8069 25.6846 14.1918 25.6106 14.5658C25.5009 14.9869 25.3423 15.2051 25.0249 15.6391C23.2878 18.0249 19.4798 22.1666 13.9999 22.1666C8.5201 22.1666 4.7121 18.0249 2.97493 15.6403Z" stroke="#666666" stroke-width="2.1875" stroke-linecap="round" stroke-linejoin="round"/>
<path d="M13.9998 16.3332C14.6187 16.3332 15.2122 16.0873 15.6498 15.6498C16.0873 15.2122 16.3332 14.6187 16.3332 13.9998C16.3332 13.381 16.0873 12.7875 15.6498 12.3499C15.2122 11.9123 14.6187 11.6665 13.9998 11.6665C13.381 11.6665 12.7875 11.9123 12.3499 12.3499C11.9123 12.7875 11.6665 13.381 11.6665 13.9998C11.6665 14.6187 11.9123 15.2122 12.3499 15.6498C12.7875 16.0873 13.381 16.3332 13.9998 16.3332Z" stroke="#666666" stroke-width="2.1875" stroke-linecap="round" stroke-linejoin="round"/>
</svg>
