<svg width="20" height="24" viewBox="0 0 20 24" fill="none" xmlns="http://www.w3.org/2000/svg">
<path fill-rule="evenodd" clip-rule="evenodd" d="M17.4825 2.77991C12.5096 2.22524 7.4904 2.22524 2.51748 2.77991C2.44125 2.78865 2.36875 2.81769 2.30756 2.86401C2.24638 2.91032 2.19874 2.9722 2.16963 3.0432C2.14051 3.1142 2.13098 3.19171 2.14204 3.26765C2.1531 3.34359 2.18433 3.41516 2.23248 3.47491L6.62873 8.90991C8.20344 10.8567 9.06252 13.2848 9.06248 15.7887V19.3999L10.9375 20.7749V15.7874C10.9377 13.2839 11.7968 10.8563 13.3712 8.90991L17.7675 3.47491C17.8156 3.41516 17.8469 3.34359 17.8579 3.26765C17.869 3.19171 17.8595 3.1142 17.8303 3.0432C17.8012 2.9722 17.7536 2.91032 17.6924 2.86401C17.6312 2.81769 17.5587 2.78865 17.4825 2.77991ZM2.30998 0.916163C7.42116 0.345003 12.5801 0.345003 17.6912 0.916163C19.4987 1.11866 20.37 3.23866 19.2262 4.65366L14.83 10.0887C13.5248 11.7017 12.8126 13.7137 12.8125 15.7887V22.6249C12.8126 22.7983 12.7647 22.9683 12.674 23.116C12.5833 23.2638 12.4534 23.3835 12.2987 23.4619C12.1441 23.5402 11.9707 23.5742 11.7979 23.5599C11.6252 23.5457 11.4597 23.4838 11.32 23.3812L7.56998 20.6312C7.45132 20.544 7.35486 20.4301 7.2884 20.2987C7.22195 20.1673 7.18738 20.0221 7.18748 19.8749V15.7874C7.18748 13.7124 6.47498 11.7012 5.17123 10.0874L0.774984 4.65491C-0.370016 3.23991 0.499985 1.11866 2.30998 0.916163Z" fill="white"/>
</svg>
