<svg width="16" height="14" viewBox="0 0 16 14" fill="none" xmlns="http://www.w3.org/2000/svg">
<path d="M7.70703 0.292787C7.8945 0.480314 7.99982 0.734622 7.99982 0.999786C7.99982 1.26495 7.8945 1.51926 7.70703 1.70679L3.41403 5.99979H15C15.2652 5.99979 15.5196 6.10514 15.7071 6.29268C15.8947 6.48022 16 6.73457 16 6.99979C16 7.265 15.8947 7.51936 15.7071 7.70689C15.5196 7.89443 15.2652 7.99979 15 7.99979H3.41403L7.70703 12.2928C7.88919 12.4814 7.98998 12.734 7.98771 12.9962C7.98543 13.2584 7.88026 13.5092 7.69485 13.6946C7.50944 13.88 7.25863 13.9852 6.99643 13.9875C6.73424 13.9897 6.48163 13.8889 6.29303 13.7068L0.293031 7.70679C0.10556 7.51926 0.000244141 7.26495 0.000244141 6.99979C0.000244141 6.73462 0.10556 6.48031 0.293031 6.29279L6.29303 0.292787C6.48056 0.105316 6.73487 0 7.00003 0C7.2652 0 7.5195 0.105316 7.70703 0.292787Z" fill="#5EDA42"/>
</svg>
