<svg width="30" height="30" viewBox="0 0 30 30" fill="none" xmlns="http://www.w3.org/2000/svg">
<g clip-path="url(#clip0_595_1085)">
<path d="M18.3837 7.04494L25.455 14.1162C25.6893 14.3506 25.821 14.6685 25.821 14.9999C25.821 15.3314 25.6893 15.6493 25.455 15.8837L18.3837 22.9549C18.148 23.1826 17.8322 23.3086 17.5045 23.3058C17.1768 23.3029 16.8632 23.1715 16.6315 22.9397C16.3997 22.708 16.2683 22.3944 16.2654 22.0667C16.2626 21.7389 16.3886 21.4232 16.6163 21.1874L21.5537 16.2499H5C4.66848 16.2499 4.35054 16.1182 4.11612 15.8838C3.8817 15.6494 3.75 15.3315 3.75 14.9999C3.75 14.6684 3.8817 14.3505 4.11612 14.1161C4.35054 13.8816 4.66848 13.7499 5 13.7499H21.5537L16.6163 8.81244C16.4969 8.69713 16.4016 8.5592 16.3361 8.4067C16.2706 8.25419 16.2361 8.09017 16.2347 7.92419C16.2332 7.75822 16.2649 7.59362 16.3277 7.44C16.3906 7.28638 16.4834 7.14681 16.6008 7.02945C16.7181 6.91208 16.8577 6.81926 17.0113 6.75641C17.1649 6.69356 17.3295 6.66194 17.4955 6.66338C17.6615 6.66482 17.8255 6.6993 17.978 6.76481C18.1305 6.83032 18.2684 6.92555 18.3837 7.04494Z" fill="white"/>
</g>
<defs>
<clipPath id="clip0_595_1085">
<rect width="30" height="30" fill="white"/>
</clipPath>
</defs>
</svg>
