<svg width="23" height="24" viewBox="0 0 23 24" fill="none" xmlns="http://www.w3.org/2000/svg">
<rect width="23" height="24" rx="11.5" fill="#FFE5E5"/>
<g clip-path="url(#clip0_559_6768)">
<path fill-rule="evenodd" clip-rule="evenodd" d="M11.6197 6.01126L11.3302 6.04126C9.92549 6.18151 8.51024 6.90601 7.55324 7.97551C6.49499 9.15826 5.95724 10.626 6.00674 12.1898C6.09299 14.8905 7.94924 17.1773 10.5825 17.8283C11.3578 18.0156 12.1625 18.0472 12.9501 17.921C13.7377 17.7948 14.4923 17.5135 15.1702 17.0933C16.5036 16.2625 17.4579 14.942 17.8282 13.4153C17.9572 12.8895 17.9872 12.6218 17.9872 12C17.9872 11.3783 17.9572 11.1105 17.8282 10.5848C17.2342 8.15851 15.2362 6.37351 12.75 6.04801C12.537 6.02026 11.7622 5.99551 11.6197 6.01126ZM12.6397 7.17226C13.1578 7.23813 13.6614 7.38943 14.13 7.62001C14.6535 7.87501 15.015 8.13451 15.4402 8.55976C15.8298 8.93637 16.1482 9.38025 16.38 9.87001C16.7137 10.5563 16.8645 11.2185 16.8645 12C16.8744 12.7461 16.7046 13.4836 16.3695 14.1503C16.2405 14.4135 15.9802 14.8358 15.8587 14.979L15.8175 15.0278L12.3952 11.6048L8.97224 8.18251L9.02099 8.14126C9.16424 8.01976 9.58649 7.75951 9.84974 7.63051C10.7132 7.20289 11.6848 7.0433 12.6397 7.17226ZM11.61 12.4005L15.03 15.8213L14.9797 15.861C14.7181 16.0541 14.4406 16.2247 14.1502 16.371C13.6801 16.6005 13.1775 16.7564 12.66 16.833C12.342 16.8818 11.658 16.8818 11.34 16.833C9.87899 16.611 8.64599 15.8138 7.86974 14.5883C7.67879 14.2717 7.51952 13.9371 7.39424 13.5893C7.0996 12.7236 7.05054 11.7932 7.25249 10.9013C7.40744 10.2565 7.68665 9.64815 8.07449 9.11026C8.12699 9.03901 8.17424 8.98051 8.18024 8.98051C8.18624 8.98051 9.72899 10.5195 11.61 12.4005Z" fill="#CC0000"/>
</g>
<defs>
<clipPath id="clip0_559_6768">
<rect width="12" height="12" fill="white" transform="translate(6 6)"/>
</clipPath>
</defs>
</svg>
