<svg width="29" height="29" viewBox="0 0 29 29" fill="none" xmlns="http://www.w3.org/2000/svg">
<path d="M15.6878 1.88229C15.5346 1.72181 15.3505 1.59406 15.1465 1.50679C14.9425 1.41951 14.723 1.37451 14.5011 1.37451C14.2793 1.37451 14.0597 1.41951 13.8557 1.50679C13.6517 1.59406 13.4676 1.72181 13.3144 1.88229L1.83002 13.9135C1.60818 14.1458 1.4594 14.4381 1.40214 14.7542C1.34487 15.0702 1.38165 15.3961 1.50789 15.6915C1.63414 15.9869 1.84431 16.2386 2.11233 16.4157C2.38036 16.5927 2.69445 16.6871 3.01565 16.6873H5.75002V25.4373C5.75002 26.0174 5.98049 26.5738 6.39073 26.9841C6.80096 27.3943 7.35736 27.6248 7.93752 27.6248H10.125C10.7052 27.6248 11.2616 27.3943 11.6718 26.9841C12.0821 26.5738 12.3125 26.0174 12.3125 25.4373V23.2498C12.3125 22.6696 12.543 22.1132 12.9532 21.703C13.3635 21.2928 13.9199 21.0623 14.5 21.0623C15.0802 21.0623 15.6366 21.2928 16.0468 21.703C16.4571 22.1132 16.6875 22.6696 16.6875 23.2498V25.4373C16.6875 26.0174 16.918 26.5738 17.3282 26.9841C17.7385 27.3943 18.2949 27.6248 18.875 27.6248H21.0625C21.6427 27.6248 22.1991 27.3943 22.6093 26.9841C23.0196 26.5738 23.25 26.0174 23.25 25.4373V16.6873H25.9844C26.3058 16.6876 26.6202 16.5934 26.8885 16.4166C27.1569 16.2397 27.3674 15.9879 27.4939 15.6925C27.6204 15.3971 27.6574 15.071 27.6002 14.7547C27.543 14.4385 27.3942 14.146 27.1722 13.9135L15.6878 1.88229Z" stroke="#B3B3B3" stroke-width="1.8"/>
</svg>
