<svg width="31" height="32" viewBox="0 0 31 32" fill="none" xmlns="http://www.w3.org/2000/svg">
    <path d="M29.3833 25.428C29.5666 24.818 29.6666 24.1697 29.6666 23.4997V8.49967C29.6666 6.73156 28.9643 5.03587 27.714 3.78563C26.4638 2.53539 24.7681 1.83301 23 1.83301H7.99998C6.23187 1.83301 4.53618 2.53539 3.28593 3.78563C2.03569 5.03587 1.33331 6.73156 1.33331 8.49967V23.6163C1.3639 25.3642 2.07977 27.03 3.32671 28.2551C4.57365 29.4803 6.2519 30.1666 7.99998 30.1663H23L23.195 30.163M29.3833 25.428L29.2366 25.2547L25.1266 20.2947C24.8148 19.9184 24.424 19.6154 23.982 19.4069C23.54 19.1985 23.0576 19.0898 22.5689 19.0885C22.0803 19.0872 21.5973 19.1934 21.1542 19.3996C20.7111 19.6057 20.3188 19.9067 20.005 20.2813L17.8183 22.8913L17.4616 23.3263M29.3833 25.428C28.979 26.7669 28.1639 27.943 27.0533 28.7931C25.9427 29.6431 24.593 30.1224 23.195 30.163M17.4616 23.3263L23.04 29.9863L23.195 30.163M17.4616 23.3263L12.0833 16.9047C11.7704 16.5313 11.3795 16.231 10.9381 16.025C10.4967 15.8189 10.0155 15.7122 9.52831 15.7122C9.04117 15.7122 8.55994 15.8189 8.11851 16.025C7.67708 16.231 7.28618 16.5313 6.97331 16.9047L1.62998 23.283L1.33498 23.618" stroke="#B3B3B3" stroke-width="1.875" stroke-linecap="round" stroke-linejoin="round"/>
</svg>
