<svg width="15" height="29" viewBox="0 0 15 29" fill="none" xmlns="http://www.w3.org/2000/svg">
<path d="M14.4996 3.06948C14.6237 2.93821 14.7206 2.78379 14.785 2.61503C14.8494 2.44628 14.8799 2.2665 14.8748 2.08596C14.8697 1.90542 14.8291 1.72766 14.7552 1.56281C14.6814 1.39797 14.5759 1.24928 14.4446 1.12523C14.3133 1.00118 14.1589 0.9042 13.9902 0.839829C13.8214 0.775458 13.6416 0.744954 13.4611 0.750062C13.2806 0.755169 13.1028 0.795786 12.9379 0.869594C12.7731 0.943403 12.6244 1.04896 12.5004 1.18023L0.812858 13.5552C0.571495 13.8105 0.437012 14.1485 0.437012 14.4999C0.437012 14.8512 0.571495 15.1892 0.812858 15.4445L12.5004 27.8209C12.6236 27.955 12.7722 28.0633 12.9377 28.1395C13.1031 28.2157 13.2821 28.2583 13.4641 28.2648C13.6462 28.2713 13.8277 28.2415 13.9981 28.1772C14.1686 28.1129 14.3245 28.0154 14.457 27.8904C14.5894 27.7653 14.6957 27.6152 14.7696 27.4487C14.8435 27.2822 14.8837 27.1027 14.8876 26.9206C14.8916 26.7385 14.8593 26.5574 14.7927 26.3878C14.7261 26.2183 14.6265 26.0637 14.4996 25.933L3.70311 14.4999L14.4996 3.06948Z" fill="#666666"/>
</svg>
