<svg width="14" height="18" viewBox="0 0 14 18" fill="none" xmlns="http://www.w3.org/2000/svg">
<path fill-rule="evenodd" clip-rule="evenodd" d="M6.38504 17.4444C6.38504 17.4444 0.333374 12.3477 0.333374 7.33268C0.333374 5.56457 1.03575 3.86888 2.286 2.61864C3.53624 1.36839 5.23193 0.666016 7.00004 0.666016C8.76815 0.666016 10.4638 1.36839 11.7141 2.61864C12.9643 3.86888 13.6667 5.56457 13.6667 7.33268C13.6667 12.3477 7.61504 17.4444 7.61504 17.4444C7.27837 17.7544 6.72421 17.751 6.38504 17.4444ZM7.00004 10.2493C7.38306 10.2493 7.76233 10.1739 8.1162 10.0273C8.47007 9.88076 8.7916 9.66591 9.06244 9.39508C9.33327 9.12424 9.54811 8.80271 9.69469 8.44884C9.84127 8.09498 9.91671 7.7157 9.91671 7.33268C9.91671 6.94966 9.84127 6.57039 9.69469 6.21652C9.54811 5.86266 9.33327 5.54113 9.06244 5.27029C8.7916 4.99945 8.47007 4.78461 8.1162 4.63803C7.76233 4.49146 7.38306 4.41602 7.00004 4.41602C6.22649 4.41602 5.48463 4.72331 4.93765 5.27029C4.39067 5.81727 4.08337 6.55913 4.08337 7.33268C4.08337 8.10623 4.39067 8.8481 4.93765 9.39508C5.48463 9.94206 6.22649 10.2493 7.00004 10.2493Z" fill="#B3B3B3"/>
</svg>
