<svg width="26" height="20" viewBox="0 0 26 20" fill="none" xmlns="http://www.w3.org/2000/svg">
    <path d="M9.25 2.5H24.25M9.25 10H24.25M9.25 17.5H19.25M3 3.75C3.33152 3.75 3.64946 3.6183 3.88388 3.38388C4.1183 3.14946 4.25 2.83152 4.25 2.5C4.25 2.16848 4.1183 1.85054 3.88388 1.61612C3.64946 1.3817 3.33152 1.25 3 1.25C2.66848 1.25 2.35054 1.3817 2.11612 1.61612C1.8817 1.85054 1.75 2.16848 1.75 2.5C1.75 2.83152 1.8817 3.14946 2.11612 3.38388C2.35054 3.6183 2.66848 3.75 3 3.75ZM3 11.25C3.33152 11.25 3.64946 11.1183 3.88388 10.8839C4.1183 10.6495 4.25 10.3315 4.25 10C4.25 9.66848 4.1183 9.35054 3.88388 9.11612C3.64946 8.8817 3.33152 8.75 3 8.75C2.66848 8.75 2.35054 8.8817 2.11612 9.11612C1.8817 9.35054 1.75 9.66848 1.75 10C1.75 10.3315 1.8817 10.6495 2.11612 10.8839C2.35054 11.1183 2.66848 11.25 3 11.25ZM3 18.75C3.33152 18.75 3.64946 18.6183 3.88388 18.3839C4.1183 18.1495 4.25 17.8315 4.25 17.5C4.25 17.1685 4.1183 16.8505 3.88388 16.6161C3.64946 16.3817 3.33152 16.25 3 16.25C2.66848 16.25 2.35054 16.3817 2.11612 16.6161C1.8817 16.8505 1.75 17.1685 1.75 17.5C1.75 17.8315 1.8817 18.1495 2.11612 18.3839C2.35054 18.6183 2.66848 18.75 3 18.75Z" stroke="#B3B3B3" stroke-width="2.5" stroke-linecap="round"/>
</svg>
