<svg width="28" height="24" viewBox="0 0 28 24" fill="none" xmlns="http://www.w3.org/2000/svg">
<path d="M14 1.5C13.2043 1.5 12.4413 1.81607 11.8786 2.37868C11.316 2.94129 11 3.70435 11 4.5C11 5.29565 11.316 6.05871 11.8786 6.62132C12.4413 7.18393 13.2043 7.5 14 7.5C14.7956 7.5 15.5587 7.18393 16.1213 6.62132C16.6839 6.05871 17 5.29565 17 4.5C17 3.70435 16.6839 2.94129 16.1213 2.37868C15.5587 1.81607 14.7956 1.5 14 1.5ZM9.49997 4.5C9.49997 3.30653 9.97407 2.16193 10.818 1.31802C11.6619 0.474106 12.8065 0 14 0C15.1934 0 16.338 0.474106 17.1819 1.31802C18.0259 2.16193 18.5 3.30653 18.5 4.5C18.5 5.69347 18.0259 6.83807 17.1819 7.68198C16.338 8.52589 15.1934 9 14 9C12.8065 9 11.6619 8.52589 10.818 7.68198C9.97407 6.83807 9.49997 5.69347 9.49997 4.5ZM6.57947 11.994C6.52847 12.238 6.50297 12.49 6.50297 12.75V13.5675L2.55647 14.625C2.36433 14.6763 2.20046 14.8019 2.10088 14.974C2.0013 15.1462 1.97418 15.3509 2.02547 15.543L2.99597 19.1655C3.28071 20.2264 3.94365 21.1465 4.85986 21.7524C5.77607 22.3584 6.88226 22.6082 7.96997 22.455C8.31497 22.92 8.71247 23.346 9.15347 23.7195L8.89697 23.7945C8.13582 23.9987 7.34192 24.0509 6.56058 23.9482C5.77925 23.8455 5.02581 23.5899 4.34327 23.196C3.66074 22.8021 3.06249 22.2776 2.5827 21.6524C2.1029 21.0272 1.75096 20.3137 1.54697 19.5525L0.576467 15.93C0.500028 15.6446 0.480558 15.3469 0.519171 15.0539C0.557784 14.761 0.653722 14.4785 0.801508 14.2226C0.949294 13.9668 1.14603 13.7425 1.38049 13.5627C1.61495 13.3828 1.88253 13.2509 2.16797 13.1745L6.57947 11.994ZM21.503 13.5675V12.75C21.502 12.49 21.477 12.238 21.428 11.994L25.838 13.176C26.4141 13.3307 26.9053 13.7078 27.2035 14.2245C27.5016 14.7413 27.5824 15.3553 27.428 15.9315L26.4575 19.554C26.2476 20.3367 25.8814 21.0689 25.3809 21.7062C24.8804 22.3435 24.2559 22.8729 23.5452 23.2623C22.8345 23.6517 22.0523 23.8931 21.2458 23.9719C20.4393 24.0508 19.6251 23.9654 18.8525 23.721C19.2955 23.345 19.69 22.9235 20.036 22.4565C21.1236 22.6093 22.2296 22.359 23.1455 21.7528C24.0615 21.1466 24.7241 20.2264 25.0085 19.1655L25.9805 15.543C26.0318 15.3509 26.0046 15.1462 25.9051 14.974C25.8055 14.8019 25.6416 14.6763 25.4495 14.625L21.503 13.5675ZM21.5 6.75C21.5 6.15326 21.737 5.58097 22.159 5.15901C22.5809 4.73705 23.1532 4.5 23.75 4.5C24.3467 4.5 24.919 4.73705 25.341 5.15901C25.7629 5.58097 26 6.15326 26 6.75C26 7.34674 25.7629 7.91903 25.341 8.34099C24.919 8.76295 24.3467 9 23.75 9C23.1532 9 22.5809 8.76295 22.159 8.34099C21.737 7.91903 21.5 7.34674 21.5 6.75ZM23.75 3C22.7554 3 21.8016 3.39509 21.0983 4.09835C20.3951 4.80161 20 5.75544 20 6.75C20 7.74456 20.3951 8.69839 21.0983 9.40165C21.8016 10.1049 22.7554 10.5 23.75 10.5C24.7445 10.5 25.6984 10.1049 26.4016 9.40165C27.1049 8.69839 27.5 7.74456 27.5 6.75C27.5 5.75544 27.1049 4.80161 26.4016 4.09835C25.6984 3.39509 24.7445 3 23.75 3ZM4.24997 4.5C3.65323 4.5 3.08093 4.73705 2.65898 5.15901C2.23702 5.58097 1.99997 6.15326 1.99997 6.75C1.99997 7.34674 2.23702 7.91903 2.65898 8.34099C3.08093 8.76295 3.65323 9 4.24997 9C4.8467 9 5.419 8.76295 5.84096 8.34099C6.26291 7.91903 6.49997 7.34674 6.49997 6.75C6.49997 6.15326 6.26291 5.58097 5.84096 5.15901C5.419 4.73705 4.8467 4.5 4.24997 4.5ZM0.499967 6.75C0.499967 5.75544 0.895055 4.80161 1.59832 4.09835C2.30158 3.39509 3.2554 3 4.24997 3C5.24453 3 6.19836 3.39509 6.90162 4.09835C7.60488 4.80161 7.99997 5.75544 7.99997 6.75C7.99997 7.74456 7.60488 8.69839 6.90162 9.40165C6.19836 10.1049 5.24453 10.5 4.24997 10.5C3.2554 10.5 2.30158 10.1049 1.59832 9.40165C0.895055 8.69839 0.499967 7.74456 0.499967 6.75ZM10.25 10.5C9.65323 10.5 9.08093 10.7371 8.65898 11.159C8.23702 11.581 7.99997 12.1533 7.99997 12.75V18C7.99997 19.5913 8.63211 21.1174 9.75733 22.2426C10.8825 23.3679 12.4087 24 14 24C15.5913 24 17.1174 23.3679 18.2426 22.2426C19.3678 21.1174 20 19.5913 20 18V12.75C20 12.1533 19.7629 11.581 19.341 11.159C18.919 10.7371 18.3467 10.5 17.75 10.5H10.25ZM9.49997 12.75C9.49997 12.5511 9.57898 12.3603 9.71964 12.2197C9.86029 12.079 10.0511 12 10.25 12H17.75C17.9489 12 18.1396 12.079 18.2803 12.2197C18.4209 12.3603 18.5 12.5511 18.5 12.75V18C18.5 19.1935 18.0259 20.3381 17.1819 21.182C16.338 22.0259 15.1934 22.5 14 22.5C12.8065 22.5 11.6619 22.0259 10.818 21.182C9.97407 20.3381 9.49997 19.1935 9.49997 18V12.75Z" fill="#5EDA42"/>
</svg>
