<svg width="41" height="40" viewBox="0 0 41 40" fill="none" xmlns="http://www.w3.org/2000/svg">
<rect x="0.5" width="40" height="40" rx="20" fill="#FFEFEF"/>
<path d="M9.5625 21.25H14.1625C14.574 21.2499 14.9791 21.3514 15.342 21.5455C15.7048 21.7396 16.0141 22.0202 16.2425 22.3625L17.2575 23.8875C17.4859 24.2298 17.7952 24.5104 18.158 24.7045C18.5209 24.8986 18.926 25.0001 19.3375 25H21.6625C22.074 25.0001 22.4791 24.8986 22.842 24.7045C23.2048 24.5104 23.5141 24.2298 23.7425 23.8875L24.7575 22.3625C24.9859 22.0202 25.2952 21.7396 25.658 21.5455C26.0209 21.3514 26.426 21.2499 26.8375 21.25H31.4375" stroke="#FF6969" stroke-width="1.875" stroke-linecap="round" stroke-linejoin="round"/>
<path d="M18 15.625H23M12.3125 10.1375L9.61 19.9462C9.37134 20.8115 9.25025 21.7049 9.25 22.6025V28.75C9.25 29.413 9.51339 30.0489 9.98223 30.5178C10.4511 30.9866 11.087 31.25 11.75 31.25H29.25C29.913 31.25 30.5489 30.9866 31.0178 30.5178C31.4866 30.0489 31.75 29.413 31.75 28.75V22.6025C31.7498 21.7049 31.6287 20.8115 31.39 19.9462L28.6875 10.1375C28.4805 9.72098 28.1615 9.37046 27.7662 9.12535C27.3709 8.88023 26.9151 8.75025 26.45 8.75H14.55C14.0849 8.75025 13.6291 8.88023 13.2338 9.12535C12.8385 9.37046 12.5195 9.72098 12.3125 10.1375Z" stroke="#FF6969" stroke-width="1.875" stroke-linecap="round" stroke-linejoin="round"/>
</svg>
