<svg width="30" height="30" viewBox="0 0 30 30" fill="none" xmlns="http://www.w3.org/2000/svg">
<g clip-path="url(#clip0_1417_11099)">
<path d="M27.0916 23.1915C26.288 22.4751 25.5845 21.6539 25 20.7498C24.3612 19.5022 23.9787 18.1393 23.875 16.7415V12.6248C23.8805 10.4295 23.0841 8.30773 21.6356 6.65815C20.187 5.00856 18.1859 3.94472 16.0083 3.6665V2.5915C16.0083 2.29645 15.8911 2.01348 15.6824 1.80485C15.4738 1.59621 15.1908 1.479 14.8958 1.479C14.6007 1.479 14.3178 1.59621 14.1091 1.80485C13.9005 2.01348 13.7833 2.29645 13.7833 2.5915V3.68317C11.6252 3.98144 9.64827 5.05172 8.21873 6.69576C6.7892 8.3398 6.0039 10.4462 6.00829 12.6248V16.7415C5.90459 18.1393 5.52207 19.5022 4.88329 20.7498C4.30903 21.6518 3.61679 22.473 2.82496 23.1915C2.73607 23.2696 2.66483 23.3657 2.61597 23.4735C2.56712 23.5813 2.54178 23.6982 2.54163 23.8165V24.9498C2.54163 25.1709 2.62942 25.3828 2.7857 25.5391C2.94198 25.6954 3.15395 25.7832 3.37496 25.7832H26.5416C26.7626 25.7832 26.9746 25.6954 27.1309 25.5391C27.2872 25.3828 27.375 25.1709 27.375 24.9498V23.8165C27.3748 23.6982 27.3495 23.5813 27.3006 23.4735C27.2518 23.3657 27.1805 23.2696 27.0916 23.1915ZM4.27496 24.1165C5.05012 23.3673 5.73276 22.528 6.30829 21.6165C7.11312 20.1098 7.5822 18.4467 7.68329 16.7415V12.6248C7.65024 11.6482 7.81406 10.6749 8.165 9.76289C8.51593 8.85089 9.0468 8.01882 9.726 7.31625C10.4052 6.61369 11.2188 6.05498 12.1184 5.6734C13.0181 5.29182 13.9853 5.09518 14.9625 5.09518C15.9397 5.09518 16.9069 5.29182 17.8065 5.6734C18.7061 6.05498 19.5197 6.61369 20.1989 7.31625C20.8781 8.01882 21.409 8.85089 21.7599 9.76289C22.1109 10.6749 22.2747 11.6482 22.2416 12.6248V16.7415C22.3427 18.4467 22.8118 20.1098 23.6166 21.6165C24.1922 22.528 24.8748 23.3673 25.65 24.1165H4.27496Z" fill="#B3B3B3"/>
<path d="M15.0001 28.5665C15.525 28.5544 16.0288 28.3571 16.4222 28.0094C16.8157 27.6616 17.0735 27.186 17.1501 26.6665H12.7667C12.8455 27.2001 13.1153 27.6869 13.5261 28.0364C13.937 28.3859 14.4607 28.5743 15.0001 28.5665Z" fill="#B3B3B3"/>
<circle cx="21" cy="6" r="3" fill="#DD2929"/>
</g>
<defs>
<clipPath id="clip0_1417_11099">
<rect width="30" height="30" fill="white"/>
</clipPath>
</defs>
</svg>
