<svg width="16" height="16" viewBox="0 0 16 16" fill="none" xmlns="http://www.w3.org/2000/svg">
<path d="M8 0.125C6.44248 0.125 4.91992 0.586861 3.62489 1.45218C2.32985 2.31749 1.32049 3.5474 0.724452 4.98637C0.128412 6.42534 -0.0275391 8.00874 0.276319 9.53634C0.580178 11.0639 1.3302 12.4671 2.43154 13.5685C3.53288 14.6698 4.93607 15.4198 6.46367 15.7237C7.99127 16.0275 9.57467 15.8716 11.0136 15.2756C12.4526 14.6795 13.6825 13.6702 14.5478 12.3751C15.4131 11.0801 15.875 9.55753 15.875 8C15.8726 5.91215 15.0422 3.9105 13.5658 2.43417C12.0895 0.957832 10.0879 0.127382 8 0.125ZM8 14.75C6.20979 14.75 4.4929 14.0388 3.22703 12.773C1.96116 11.5071 1.25 9.79021 1.25 8C1.25 6.20979 1.96116 4.4929 3.22703 3.22703C4.4929 1.96116 6.20979 1.25 8 1.25V8L12.7706 12.7706C12.145 13.3985 11.4015 13.8966 10.5828 14.2363C9.76412 14.576 8.88637 14.7506 8 14.75Z" fill="white"/>
</svg>
