<svg width="41" height="40" viewBox="0 0 41 40" fill="none" xmlns="http://www.w3.org/2000/svg">
<rect x="0.25" width="40" height="40" rx="20" fill="#FFFAE8"/>
<path d="M9.8125 21.25H14.4125C14.824 21.2499 15.2291 21.3514 15.592 21.5455C15.9548 21.7396 16.2641 22.0202 16.4925 22.3625L17.5075 23.8875C17.7359 24.2298 18.0452 24.5104 18.408 24.7045C18.7709 24.8986 19.176 25.0001 19.5875 25H21.9125C22.324 25.0001 22.7291 24.8986 23.092 24.7045C23.4548 24.5104 23.7641 24.2298 23.9925 23.8875L25.0075 22.3625C25.2359 22.0202 25.5452 21.7396 25.908 21.5455C26.2709 21.3514 26.676 21.2499 27.0875 21.25H31.6875" stroke="#FFD95D" stroke-width="1.875" stroke-linecap="round" stroke-linejoin="round"/>
<path d="M18.25 15.625H23.25M20.75 13.125V18.125M12.5625 10.1375L9.86 19.9462C9.62134 20.8115 9.50025 21.7049 9.5 22.6025V28.75C9.5 29.413 9.76339 30.0489 10.2322 30.5178C10.7011 30.9866 11.337 31.25 12 31.25H29.5C30.163 31.25 30.7989 30.9866 31.2678 30.5178C31.7366 30.0489 32 29.413 32 28.75V22.6025C31.9998 21.7049 31.8787 20.8115 31.64 19.9462L28.9375 10.1375C28.7305 9.72098 28.4115 9.37046 28.0162 9.12535C27.6209 8.88023 27.1651 8.75025 26.7 8.75H14.8C14.3349 8.75025 13.8791 8.88023 13.4838 9.12535C13.0885 9.37046 12.7695 9.72098 12.5625 10.1375Z" stroke="#FFD95D" stroke-width="1.875" stroke-linecap="round" stroke-linejoin="round"/>
</svg>
