<svg width="20" height="26" viewBox="0 0 20 26" fill="none" xmlns="http://www.w3.org/2000/svg">
<path d="M5 10.5V6.75C5 5.42392 5.52678 4.15215 6.46447 3.21447C7.40215 2.27678 8.67392 1.75 10 1.75C11.3261 1.75 12.5979 2.27678 13.5355 3.21447C14.4732 4.15215 15 5.42392 15 6.75V10.5" stroke="#5EDA42" stroke-width="1.75" stroke-linecap="round"/>
<path d="M1.25 10.5H18.75V21.75C18.75 22.413 18.4866 23.0489 18.0178 23.5178C17.5489 23.9866 16.913 24.25 16.25 24.25H3.75C3.08696 24.25 2.45107 23.9866 1.98223 23.5178C1.51339 23.0489 1.25 22.413 1.25 21.75V10.5Z" stroke="#5EDA42" stroke-width="1.75" stroke-linejoin="round"/>
<path d="M13.125 17.375H13.1367V17.3867H13.125V17.375Z" stroke="#5EDA42" stroke-width="2.625" stroke-linejoin="round"/>
</svg>
