<svg width="11" height="13" viewBox="0 0 11 13" fill="none" xmlns="http://www.w3.org/2000/svg">
<path fill-rule="evenodd" clip-rule="evenodd" d="M5.03875 12.8338C5.03875 12.8338 0.5 9.01125 0.5 5.25C0.5 3.92392 1.02678 2.65215 1.96447 1.71447C2.90215 0.776784 4.17392 0.25 5.5 0.25C6.82608 0.25 8.09785 0.776784 9.03553 1.71447C9.97322 2.65215 10.5 3.92392 10.5 5.25C10.5 9.01125 5.96125 12.8338 5.96125 12.8338C5.70875 13.0663 5.29313 13.0638 5.03875 12.8338ZM5.5 7.4375C5.78727 7.4375 6.07172 7.38092 6.33712 7.27099C6.60252 7.16105 6.84367 6.99992 7.0468 6.7968C7.24992 6.59367 7.41105 6.35252 7.52099 6.08712C7.63092 5.82172 7.6875 5.53727 7.6875 5.25C7.6875 4.96273 7.63092 4.67828 7.52099 4.41288C7.41105 4.14748 7.24992 3.90633 7.0468 3.7032C6.84367 3.50008 6.60252 3.33895 6.33712 3.22901C6.07172 3.11908 5.78727 3.0625 5.5 3.0625C4.91984 3.0625 4.36344 3.29297 3.9532 3.7032C3.54297 4.11344 3.3125 4.66984 3.3125 5.25C3.3125 5.83016 3.54297 6.38656 3.9532 6.7968C4.36344 7.20703 4.91984 7.4375 5.5 7.4375Z" fill="#EB4444"/>
</svg>
