<svg width="12" height="21" viewBox="0 0 12 21" fill="none" xmlns="http://www.w3.org/2000/svg">
<path d="M11.2572 1.84056C11.3512 1.74111 11.4247 1.62412 11.4735 1.49628C11.5222 1.36844 11.5453 1.23224 11.5415 1.09547C11.5376 0.958698 11.5068 0.824027 11.4509 0.699145C11.395 0.574264 11.315 0.461619 11.2156 0.367642C11.1161 0.273665 10.9991 0.200196 10.8713 0.15143C10.7435 0.102664 10.6073 0.0795554 10.4705 0.0834245C10.3337 0.0872936 10.199 0.118064 10.0742 0.17398C9.94928 0.229895 9.83664 0.30986 9.74266 0.409309L0.888492 9.78431C0.705641 9.97771 0.60376 10.2338 0.60376 10.4999C0.60376 10.7661 0.705641 11.0222 0.888492 11.2156L9.74266 20.5916C9.83602 20.6932 9.94864 20.7753 10.074 20.833C10.1993 20.8908 10.3349 20.923 10.4728 20.9279C10.6107 20.9328 10.7482 20.9103 10.8773 20.8616C11.0065 20.8129 11.1246 20.739 11.2249 20.6443C11.3253 20.5495 11.4058 20.4358 11.4618 20.3097C11.5178 20.1835 11.5482 20.0475 11.5512 19.9096C11.5542 19.7716 11.5298 19.6344 11.4793 19.506C11.4288 19.3775 11.3534 19.2604 11.2572 19.1614L3.07808 10.4999L11.2572 1.84056Z" fill="#666666"/>
</svg>
