<svg width="40" height="40" viewBox="0 0 40 40" fill="none" xmlns="http://www.w3.org/2000/svg">
<rect width="40" height="40" rx="20" fill="#FFF6F6"/>
<path d="M12.4166 29.75V12.4167C12.4166 11.842 12.6449 11.2909 13.0512 10.8846C13.4576 10.4783 14.0087 10.25 14.5833 10.25H25.4166C25.9913 10.25 26.5424 10.4783 26.9487 10.8846C27.355 11.2909 27.5833 11.842 27.5833 12.4167V29.75L24.3333 27.5833L22.1666 29.75L20 27.5833L17.8333 29.75L15.6666 27.5833L12.4166 29.75Z" stroke="#FFB0B0" stroke-width="2" stroke-linecap="round" stroke-linejoin="round"/>
<path d="M23.0333 15.6667C22.8371 15.3262 22.552 15.0456 22.2085 14.8548C21.865 14.6639 21.4761 14.5701 21.0833 14.5833H18.9167C18.342 14.5833 17.7909 14.8116 17.3846 15.2179C16.9783 15.6243 16.75 16.1754 16.75 16.75C16.75 17.3246 16.9783 17.8757 17.3846 18.2821C17.7909 18.6884 18.342 18.9167 18.9167 18.9167H21.0833C21.658 18.9167 22.2091 19.1449 22.6154 19.5513C23.0217 19.9576 23.25 20.5087 23.25 21.0833C23.25 21.658 23.0217 22.2091 22.6154 22.6154C22.2091 23.0217 21.658 23.25 21.0833 23.25H18.9167C18.5239 23.2632 18.135 23.1694 17.7915 22.9786C17.448 22.7877 17.1629 22.5071 16.9667 22.1667M20 13.5V24.3333" stroke="#FFB0B0" stroke-width="2" stroke-linecap="round" stroke-linejoin="round"/>
</svg>
