<svg width="20" height="20" viewBox="0 0 20 20" fill="none" xmlns="http://www.w3.org/2000/svg">
<path d="M18.2499 18.2502L14.2689 14.2691M14.2689 14.2691C14.9498 13.5881 15.49 12.7797 15.8586 11.8899C16.2271 11.0002 16.4168 10.0466 16.4168 9.08352C16.4168 8.12047 16.2271 7.16685 15.8586 6.2771C15.49 5.38736 14.9498 4.57892 14.2689 3.89794C13.5879 3.21696 12.7794 2.67678 11.8897 2.30823C11 1.93969 10.0463 1.75 9.08328 1.75C8.12023 1.75 7.1666 1.93969 6.27686 2.30823C5.38712 2.67678 4.57868 3.21696 3.89769 3.89794C2.52239 5.27324 1.74976 7.13855 1.74976 9.08352C1.74976 11.0285 2.52239 12.8938 3.89769 14.2691C5.273 15.6444 7.13831 16.417 9.08328 16.417C11.0282 16.417 12.8936 15.6444 14.2689 14.2691Z" stroke="#B3B3B3" stroke-width="1.875" stroke-linecap="round" stroke-linejoin="round"/>
</svg>
