<svg width="17" height="19" viewBox="0 0 17 19" fill="none" xmlns="http://www.w3.org/2000/svg">
    <path fill-rule="evenodd" clip-rule="evenodd" d="M14.4918 2.50921L2.94909 6.68279L6.79451 8.90846L10.1853 5.51679C10.3573 5.34491 10.5905 5.2484 10.8337 5.24848C11.0768 5.24857 11.31 5.34525 11.4819 5.51725C11.6538 5.68925 11.7503 5.92249 11.7502 6.16566C11.7501 6.40882 11.6534 6.64199 11.4814 6.81388L8.08976 10.2055L10.3173 14.05L14.4918 2.50921ZM14.7878 0.452209C15.8833 0.055292 16.9448 1.11679 16.5478 2.21221L11.706 15.6001C11.3082 16.6983 9.80851 16.8321 9.22276 15.821L6.27384 10.7262L1.17901 7.77729C0.167927 7.19154 0.301761 5.69188 1.39993 5.29404L14.7878 0.452209Z" fill="white"/>
</svg>
