<svg width="24" height="26" viewBox="0 0 24 26" fill="none" xmlns="http://www.w3.org/2000/svg">
<path d="M5.8125 6.07781C6.15269 6.19755 6.51477 6.24228 6.87388 6.20891C7.23298 6.17554 7.58062 6.06487 7.89293 5.8845C8.20523 5.70412 8.47482 5.4583 8.68317 5.16392C8.89153 4.86954 9.03372 4.53357 9.1 4.17906L9.5 2.02906C11.1448 1.65438 12.8527 1.65438 14.4975 2.02906L14.9 4.17906C14.9663 4.53357 15.1085 4.86954 15.3168 5.16392C15.5252 5.4583 15.7948 5.70412 16.1071 5.8845C16.4194 6.06487 16.767 6.17554 17.1261 6.20891C17.4852 6.24228 17.8473 6.19755 18.1875 6.07781L20.2488 5.35281C21.3961 6.58877 22.251 8.06689 22.75 9.67781L21.0875 11.1028C20.8137 11.3375 20.5939 11.6287 20.4432 11.9563C20.2925 12.2839 20.2145 12.6403 20.2145 13.0009C20.2145 13.3616 20.2925 13.7179 20.4432 14.0456C20.5939 14.3732 20.8137 14.6644 21.0875 14.8991L22.75 16.3228C22.251 17.9337 21.3961 19.4118 20.2488 20.6478L18.1862 19.9228C17.8461 19.8031 17.484 19.7583 17.1249 19.7917C16.7658 19.8251 16.4181 19.9357 16.1058 20.1161C15.7935 20.2965 15.5239 20.5423 15.3156 20.8367C15.1072 21.1311 14.965 21.467 14.8988 21.8216L14.5 23.9716C12.8552 24.3462 11.1473 24.3462 9.5025 23.9716L9.1 21.8216C9.03372 21.467 8.89153 21.1311 8.68317 20.8367C8.47482 20.5423 8.20523 20.2965 7.89293 20.1161C7.58062 19.9357 7.23298 19.8251 6.87388 19.7917C6.51477 19.7583 6.15269 19.8031 5.8125 19.9228L3.75125 20.6478C2.60387 19.4118 1.74904 17.9337 1.25 16.3228L2.9125 14.8978C3.1861 14.6631 3.4057 14.372 3.55626 14.0445C3.70682 13.717 3.78477 13.3608 3.78477 13.0003C3.78477 12.6398 3.70682 12.2836 3.55626 11.9561C3.4057 11.6286 3.1861 11.3375 2.9125 11.1028L1.25 9.67781C1.74867 8.067 2.60307 6.5889 3.75 5.35281L5.8125 6.07781ZM12 9.25031C12.9946 9.25031 13.9484 9.64539 14.6517 10.3487C15.3549 11.0519 15.75 12.0057 15.75 13.0003C15.75 13.9949 15.3549 14.9487 14.6517 15.652C13.9484 16.3552 12.9946 16.7503 12 16.7503C11.0054 16.7503 10.0516 16.3552 9.34835 15.652C8.64509 14.9487 8.25 13.9949 8.25 13.0003C8.25 12.0057 8.64509 11.0519 9.34835 10.3487C10.0516 9.64539 11.0054 9.25031 12 9.25031Z" stroke="#5EDA42" stroke-width="1.75" stroke-linecap="round" stroke-linejoin="round"/>
</svg>
