<svg width="159" height="52" viewBox="0 0 159 52" fill="none" xmlns="http://www.w3.org/2000/svg">
<g clip-path="url(#clip0_292_1656)">
<path d="M10.7031 42.4688C9.04948 42.4688 7.67578 42.319 6.58203 42.0195C5.5013 41.7201 4.62891 41.349 3.96484 40.9062C3.3138 40.4505 2.8125 40.0013 2.46094 39.5586C2.34375 39.3893 2.23958 39.2266 2.14844 39.0703C2.05729 38.9141 1.99219 38.7383 1.95312 38.543C1.90104 38.2826 1.84896 37.944 1.79688 37.5273C1.74479 37.0977 1.73828 36.6029 1.77734 36.043C1.79036 35.8086 1.83594 35.6458 1.91406 35.5547C2.00521 35.4505 2.15495 35.3724 2.36328 35.3203C2.74089 35.2292 3.22917 35.151 3.82812 35.0859C4.4401 35.0078 4.8763 34.9688 5.13672 34.9688C5.41016 34.9688 5.63151 35.0208 5.80078 35.125C5.97005 35.2292 6.17188 35.4049 6.40625 35.6523C6.66667 35.9258 7.11589 36.2773 7.75391 36.707C8.39193 37.1237 9.375 37.332 10.7031 37.332C11.9792 37.332 12.9427 37.0651 13.5938 36.5312C14.2448 35.9974 14.5703 35.2552 14.5703 34.3047C14.5703 33.7969 14.4141 33.3216 14.1016 32.8789C13.8021 32.4232 13.2487 31.974 12.4414 31.5312C11.6341 31.0755 10.4818 30.6003 8.98438 30.1055C6.51042 29.2721 4.72656 28.237 3.63281 27C2.53906 25.763 1.99219 24.0443 1.99219 21.8438C1.99219 20.0208 2.4349 18.4974 3.32031 17.2734C4.20573 16.0495 5.42969 15.125 6.99219 14.5C8.55469 13.875 10.3581 13.5625 12.4023 13.5625C13.9779 13.5625 15.2799 13.7513 16.3086 14.1289C17.3503 14.4935 18.1576 14.9102 18.7305 15.3789C19.3034 15.8346 19.6745 16.2057 19.8438 16.4922C19.9479 16.6615 20.013 16.7917 20.0391 16.8828C20.0781 16.9609 20.1042 17.0716 20.1172 17.2148C20.1562 17.6185 20.1693 18.0677 20.1562 18.5625C20.1432 19.0573 20.0977 19.6172 20.0195 20.2422C19.9805 20.4505 19.9089 20.5938 19.8047 20.6719C19.7135 20.737 19.5703 20.7695 19.375 20.7695C18.112 20.7956 17.1354 20.7305 16.4453 20.5742C16.1719 20.5091 15.9896 20.444 15.8984 20.3789C15.8073 20.3138 15.6901 20.2096 15.5469 20.0664C15.3385 19.819 15.0065 19.5326 14.5508 19.207C14.1081 18.8685 13.3919 18.6992 12.4023 18.6992C11.0352 18.6992 10.0651 19.0117 9.49219 19.6367C8.91927 20.2487 8.63281 20.9388 8.63281 21.707C8.63281 22.6185 9.05599 23.3346 9.90234 23.8555C10.7487 24.3633 12.0833 24.9427 13.9062 25.5938C15.4297 26.1276 16.7383 26.707 17.832 27.332C18.9258 27.957 19.7591 28.7578 20.332 29.7344C20.918 30.7109 21.2109 32 21.2109 33.6016C21.2109 35.5938 20.7487 37.2474 19.8242 38.5625C18.9128 39.8776 17.6628 40.8607 16.0742 41.5117C14.4987 42.1497 12.7083 42.4688 10.7031 42.4688ZM29.7859 42.4883C27.8719 42.4883 26.3484 41.9544 25.2156 40.8867C24.0958 39.806 23.5359 38.3216 23.5359 36.4336C23.5359 35.457 23.7117 34.5521 24.0633 33.7188C24.4279 32.8724 25.0529 32.1302 25.9383 31.4922C26.8367 30.8411 28.0867 30.3203 29.6883 29.9297C31.3029 29.5391 33.3602 29.3112 35.8602 29.2461C35.8602 28.0612 35.5607 27.2083 34.9617 26.6875C34.3758 26.1667 33.4904 25.9062 32.3055 25.9062C31.2378 25.9062 30.3654 26.0885 29.6883 26.4531C29.0112 26.8177 28.588 27.0651 28.4188 27.1953C28.2365 27.3516 28.0151 27.4102 27.7547 27.3711C27.4031 27.319 27.0255 27.2279 26.6219 27.0977C26.2313 26.9674 25.8081 26.8177 25.3523 26.6484C25.2872 26.6224 25.2156 26.5833 25.1375 26.5312C25.0594 26.4661 25.0138 26.375 25.0008 26.2578C25.0008 26.1927 25.0073 26.1146 25.0203 26.0234C25.0333 25.9193 25.0659 25.737 25.118 25.4766C25.1701 25.2161 25.2482 24.8971 25.3523 24.5195C25.4565 24.1289 25.5542 23.8294 25.6453 23.6211C25.7625 23.3997 25.9578 23.1914 26.2313 22.9961C26.4526 22.8138 27.1232 22.5208 28.243 22.1172C29.3628 21.7135 30.9839 21.5117 33.1063 21.5117C38.9526 21.5117 41.8758 24.3568 41.8758 30.0469V41.1016C41.8758 41.349 41.8042 41.5638 41.6609 41.7461C41.5307 41.9154 41.3029 42 40.9773 42H38.0477C37.8393 42 37.6505 41.974 37.4813 41.9219C37.325 41.8568 37.1753 41.7396 37.032 41.5703L35.8211 40.0078H35.6844C35.0854 40.8802 34.2781 41.5117 33.2625 41.9023C32.2599 42.293 31.101 42.4883 29.7859 42.4883ZM31.9344 37.957C33.1323 37.957 34.0372 37.651 34.6492 37.0391C35.2612 36.4271 35.6518 35.7956 35.8211 35.1445V32.9766C34.0112 32.9766 32.6505 33.1198 31.7391 33.4062C30.8406 33.6797 30.2417 34.0443 29.9422 34.5C29.6427 34.9427 29.493 35.4245 29.493 35.9453C29.493 36.7005 29.7273 37.2279 30.1961 37.5273C30.6648 37.8138 31.2443 37.957 31.9344 37.957ZM76.6633 42.4883C74.4628 42.4883 72.5487 42.1367 70.9211 41.4336C69.2935 40.7174 68.0305 39.6107 67.132 38.1133C66.2336 36.6159 65.7844 34.6823 65.7844 32.3125C65.7844 28.7578 66.6958 26.069 68.5188 24.2461C70.3417 22.4232 72.7635 21.5117 75.7844 21.5117C77.7505 21.5117 79.4107 21.8633 80.7648 22.5664C82.132 23.2695 83.1672 24.2396 83.8703 25.4766C84.5865 26.7135 84.9445 28.1263 84.9445 29.7148C84.9445 31.2643 84.5474 32.3451 83.7531 32.957C82.9589 33.569 81.8 33.875 80.2766 33.875H71.8977C72.0018 35.2161 72.4901 36.2383 73.3625 36.9414C74.2479 37.6445 75.4458 37.9961 76.9563 37.9961C78.1542 37.9961 79.1112 37.8203 79.8273 37.4688C80.5565 37.1042 81.0643 36.8177 81.3508 36.6094C81.5982 36.4271 81.8781 36.3424 82.1906 36.3555C82.438 36.3555 82.7896 36.4076 83.2453 36.5117C83.7141 36.6029 84.1763 36.7786 84.632 37.0391C84.9576 37.2083 85.1203 37.4427 85.1203 37.7422C85.1203 37.9115 85.0878 38.1523 85.0227 38.4648C84.9836 38.6471 84.9185 38.9141 84.8273 39.2656C84.7362 39.6042 84.619 39.9232 84.4758 40.2227C84.3977 40.3659 84.274 40.5026 84.1047 40.6328C83.8443 40.8151 83.4211 41.056 82.8352 41.3555C82.2622 41.6549 81.4745 41.9154 80.4719 42.1367C79.4693 42.3711 78.1997 42.4883 76.6633 42.4883ZM71.8586 29.8711H78.2258C78.8898 29.8711 79.2219 29.5651 79.2219 28.9531C79.2219 28.0286 78.9289 27.2539 78.343 26.6289C77.7701 25.9909 76.9042 25.6719 75.7453 25.6719C74.4823 25.6719 73.5513 26.0755 72.9523 26.8828C72.3664 27.6901 72.0018 28.6862 71.8586 29.8711ZM93.7539 42C92.4128 42 91.3906 41.8307 90.6875 41.4922C89.9974 41.1536 89.5286 40.6003 89.2812 39.832C89.0469 39.0638 88.9297 38.0417 88.9297 36.7656V19.2266C88.9297 17.9245 89.0469 16.8958 89.2812 16.1406C89.5286 15.3724 89.9974 14.8255 90.6875 14.5C91.3906 14.1615 92.4128 13.9922 93.7539 13.9922H99.125C102.25 13.9922 104.652 14.5651 106.332 15.7109C108.012 16.8568 108.852 18.4714 108.852 20.5547C108.852 21.5833 108.617 22.5208 108.148 23.3672C107.68 24.2135 107.061 24.9362 106.293 25.5352C105.538 26.1341 104.711 26.5833 103.812 26.8828V26.9609C104.958 27.1172 105.993 27.4948 106.918 28.0938C107.842 28.6797 108.578 29.4479 109.125 30.3984C109.685 31.3359 109.965 32.4167 109.965 33.6406C109.965 35.4635 109.522 37 108.637 38.25C107.764 39.487 106.553 40.4245 105.004 41.0625C103.467 41.6875 101.697 42 99.6914 42H93.7539ZM95.2383 34.9102C95.2383 35.7826 95.3945 36.4076 95.707 36.7852C96.0195 37.1628 96.6055 37.3516 97.4648 37.3516H98.9492C100.264 37.3516 101.319 37.013 102.113 36.3359C102.921 35.6589 103.324 34.7344 103.324 33.5625C103.324 32.4427 102.934 31.5638 102.152 30.9258C101.371 30.2878 100.362 29.9688 99.125 29.9688H99.1445C98.832 29.9688 98.5977 29.9232 98.4414 29.832C98.1029 29.6107 97.7513 29.3568 97.3867 29.0703C97.0352 28.7708 96.651 28.4128 96.2344 27.9961C96.1042 27.8268 96.0391 27.7031 96.0391 27.625C96.0391 27.5208 96.1042 27.3971 96.2344 27.2539C96.651 26.8372 97.0352 26.4792 97.3867 26.1797C97.7513 25.8802 98.1029 25.6263 98.4414 25.418C98.6237 25.3268 98.8581 25.2812 99.1445 25.2812H99.125C99.8932 25.2812 100.596 24.9948 101.234 24.4219C101.885 23.849 102.211 22.9505 102.211 21.7266C102.211 20.4896 101.866 19.6693 101.176 19.2656C100.486 18.849 99.6003 18.6406 98.5195 18.6406H97.4648C96.6055 18.6406 96.0195 18.8229 95.707 19.1875C95.3945 19.5521 95.2383 20.1771 95.2383 21.0625V34.9102ZM112.485 15.4375C112.485 15.2682 112.537 15.1185 112.641 14.9883C112.746 14.8581 112.882 14.6888 113.052 14.4805C113.416 14.0638 113.839 13.6276 114.321 13.1719C114.803 12.7031 115.291 12.2539 115.786 11.8242C116.098 11.5768 116.333 11.4531 116.489 11.4531C116.645 11.4531 116.886 11.5768 117.212 11.8242C118.266 12.7357 119.165 13.6211 119.907 14.4805C120.076 14.6758 120.213 14.8451 120.317 14.9883C120.434 15.1185 120.493 15.2682 120.493 15.4375C120.493 15.6068 120.434 15.7565 120.317 15.8867C120.213 16.0169 120.07 16.1927 119.887 16.4141C119.536 16.8177 119.126 17.2539 118.657 17.7227C118.188 18.1784 117.707 18.6146 117.212 19.0312C117.029 19.1875 116.886 19.2917 116.782 19.3438C116.678 19.3828 116.58 19.4023 116.489 19.4023C116.398 19.4023 116.3 19.3828 116.196 19.3438C116.105 19.2917 115.955 19.1875 115.747 19.0312C115.226 18.6146 114.738 18.1784 114.282 17.7227C113.826 17.2539 113.416 16.8047 113.052 16.375C112.882 16.1667 112.746 16.0039 112.641 15.8867C112.537 15.7565 112.485 15.6068 112.485 15.4375ZM119.555 40.9648C119.555 41.3555 119.471 41.6289 119.302 41.7852C119.145 41.9284 118.872 42 118.481 42H114.458C114.067 42 113.787 41.9284 113.618 41.7852C113.462 41.6289 113.384 41.3555 113.384 40.9648V23.0352C113.384 22.6445 113.462 22.3776 113.618 22.2344C113.787 22.0781 114.067 22 114.458 22H118.481C118.872 22 119.145 22.0781 119.302 22.2344C119.471 22.3776 119.555 22.6445 119.555 23.0352V40.9648ZM131.978 42.4883C127.629 42.4883 125.455 40.2292 125.455 35.7109V26.5508H123.248C122.857 26.5508 122.584 26.4727 122.427 26.3164C122.284 26.1471 122.213 25.8672 122.213 25.4766V23.0742C122.213 22.6836 122.284 22.4102 122.427 22.2539C122.584 22.0846 122.857 22 123.248 22H125.455V18.8555C125.455 18.543 125.52 18.3021 125.65 18.1328C126.197 17.4167 126.998 16.6419 128.052 15.8086C128.235 15.6784 128.397 15.6133 128.541 15.6133C128.697 15.6133 128.853 15.6784 129.009 15.8086C129.569 16.2383 130.038 16.6419 130.416 17.0195C130.806 17.3971 131.138 17.7682 131.412 18.1328C131.542 18.3021 131.607 18.543 131.607 18.8555V22H135.064C135.455 22 135.722 22.0846 135.865 22.2539C136.021 22.4102 136.099 22.6836 136.099 23.0742V25.4766C136.099 25.8672 136.021 26.1471 135.865 26.3164C135.722 26.4727 135.455 26.5508 135.064 26.5508H131.607V34.6367C131.607 36.7201 132.362 37.7617 133.873 37.7617C134.107 37.7617 134.322 37.7422 134.517 37.7031C134.713 37.651 134.882 37.599 135.025 37.5469C135.298 37.4427 135.487 37.4036 135.591 37.4297C135.709 37.4557 135.813 37.599 135.904 37.8594L137.037 40.8867C137.154 41.2122 137.076 41.4466 136.802 41.5898C136.607 41.681 136.132 41.8503 135.377 42.0977C134.634 42.3581 133.502 42.4883 131.978 42.4883ZM148.932 42.4883C146.732 42.4883 144.817 42.1367 143.19 41.4336C141.562 40.7174 140.299 39.6107 139.401 38.1133C138.502 36.6159 138.053 34.6823 138.053 32.3125C138.053 28.7578 138.965 26.069 140.788 24.2461C142.61 22.4232 145.032 21.5117 148.053 21.5117C150.019 21.5117 151.679 21.8633 153.034 22.5664C154.401 23.2695 155.436 24.2396 156.139 25.4766C156.855 26.7135 157.213 28.1263 157.213 29.7148C157.213 31.2643 156.816 32.3451 156.022 32.957C155.228 33.569 154.069 33.875 152.545 33.875H144.166C144.271 35.2161 144.759 36.2383 145.631 36.9414C146.517 37.6445 147.715 37.9961 149.225 37.9961C150.423 37.9961 151.38 37.8203 152.096 37.4688C152.825 37.1042 153.333 36.8177 153.62 36.6094C153.867 36.4271 154.147 36.3424 154.459 36.3555C154.707 36.3555 155.058 36.4076 155.514 36.5117C155.983 36.6029 156.445 36.7786 156.901 37.0391C157.226 37.2083 157.389 37.4427 157.389 37.7422C157.389 37.9115 157.357 38.1523 157.291 38.4648C157.252 38.6471 157.187 38.9141 157.096 39.2656C157.005 39.6042 156.888 39.9232 156.745 40.2227C156.666 40.3659 156.543 40.5026 156.373 40.6328C156.113 40.8151 155.69 41.056 155.104 41.3555C154.531 41.6549 153.743 41.9154 152.741 42.1367C151.738 42.3711 150.468 42.4883 148.932 42.4883ZM144.127 29.8711H150.495C151.159 29.8711 151.491 29.5651 151.491 28.9531C151.491 28.0286 151.198 27.2539 150.612 26.6289C150.039 25.9909 149.173 25.6719 148.014 25.6719C146.751 25.6719 145.82 26.0755 145.221 26.8828C144.635 27.6901 144.271 28.6862 144.127 29.8711Z" fill="white"/>
<mask id="mask0_292_1656" style="mask-type:luminance" maskUnits="userSpaceOnUse" x="69" y="12" width="2" height="1">
<path d="M69.5002 12.6477L70.0025 12.9322C69.8866 12.8696 69.7541 12.8355 69.6051 12.8582L69.1028 12.5737C69.2463 12.551 69.3843 12.5851 69.5002 12.6477Z" fill="white"/>
</mask>
<g mask="url(#mask0_292_1656)">
<path d="M69.6117 12.8583L69.1094 12.5738C69.1977 12.5624 69.2805 12.5681 69.3578 12.5852L69.86 12.8697C69.7828 12.8469 69.7 12.8412 69.6117 12.8583Z" fill="white"/>
<path d="M69.8534 12.8697L69.3511 12.5852C69.3952 12.5966 69.4339 12.6137 69.478 12.6307L69.9803 12.9152C69.9417 12.8925 69.8975 12.8811 69.8534 12.8697Z" fill="white"/>
<path d="M69.9809 12.9149L69.4786 12.6304L69.5007 12.6418L70.003 12.9263L69.9809 12.9149Z" fill="white"/>
</g>
<mask id="mask1_292_1656" style="mask-type:luminance" maskUnits="userSpaceOnUse" x="53" y="12" width="17" height="27">
<path d="M54.3734 38.7261L53.8711 38.4416C54.3844 36.6776 54.9088 34.908 55.4883 33.1611C58.077 25.3313 62.0124 17.2454 68.7683 12.7103C68.8843 12.6306 68.9946 12.5908 69.105 12.5737L69.6073 12.8582C69.5024 12.8753 69.3865 12.9151 69.2706 12.9948C62.5147 17.5299 58.5793 25.6158 55.9906 33.4456C55.411 35.1982 54.8812 36.9622 54.3734 38.7261Z" fill="white"/>
</mask>
<g mask="url(#mask1_292_1656)">
<path d="M54.3731 38.7261L53.8708 38.4416C54.3842 36.6776 54.9085 34.908 55.4881 33.1611C55.6813 32.5807 55.88 32.0059 56.0842 31.4255L56.5865 31.71C56.3822 32.2905 56.1835 32.8709 55.9904 33.4456C55.4108 35.1982 54.8809 36.9622 54.3731 38.7261Z" fill="white"/>
<path d="M56.5926 31.7102L56.0903 31.4257C56.99 28.9049 58.0332 26.3898 59.2806 24.0056L59.7829 24.2901C58.5355 26.6743 57.4923 29.1951 56.5926 31.7102Z" fill="white"/>
<path d="M59.7829 24.2898L59.2806 24.0053C60.0037 22.6169 60.7985 21.274 61.6651 19.9937L62.1674 20.2782C61.3008 21.5528 60.506 22.9014 59.7829 24.2898Z" fill="white"/>
<path d="M62.167 20.2785L61.6647 19.994C62.327 19.0153 63.039 18.0764 63.8007 17.1887L64.303 17.4732C63.5413 18.3609 62.8348 19.2998 62.167 20.2785Z" fill="white"/>
<path d="M64.3027 17.4731L63.8004 17.1886C64.4683 16.409 65.1748 15.6693 65.9199 14.9751L66.4222 15.2596C65.6771 15.9538 64.9706 16.6936 64.3027 17.4731Z" fill="white"/>
<path d="M66.4226 15.2594L65.9203 14.9749C66.6654 14.2807 67.4547 13.6377 68.2827 13.0459L68.7849 13.3304C67.9515 13.9222 67.1677 14.5652 66.4226 15.2594Z" fill="white"/>
<path d="M68.784 13.3304L68.2817 13.0459C68.4418 12.9321 68.6074 12.8183 68.773 12.7045C68.8116 12.6761 68.8503 12.6533 68.8889 12.6362L69.3912 12.9207C69.3525 12.9378 69.3139 12.9606 69.2753 12.989C69.1097 13.0971 68.9496 13.2109 68.784 13.3304Z" fill="white"/>
<path d="M69.3923 12.9265L68.89 12.642C68.9673 12.6079 69.039 12.5851 69.1108 12.5737L69.6131 12.8582C69.5413 12.8696 69.4696 12.8924 69.3923 12.9265Z" fill="white"/>
</g>
<mask id="mask2_292_1656" style="mask-type:luminance" maskUnits="userSpaceOnUse" x="43" y="16" width="12" height="26">
<path d="M54.0184 41.9182L53.5161 41.6337C53.3781 41.5541 53.2622 41.4232 53.196 41.2297C50.4859 33.3373 47.3839 25.6783 43.8955 18.2809C43.6085 17.6721 44.1218 17.0006 44.6076 16.9323C44.7179 16.9153 44.8283 16.9323 44.9277 16.9892L45.43 17.2738C45.3306 17.2169 45.2202 17.2055 45.1098 17.2169C44.6241 17.2851 44.1108 17.9566 44.3978 18.5654C47.8917 25.9628 50.9937 33.6219 53.6982 41.5142C53.7645 41.7077 53.8804 41.8386 54.0184 41.9182Z" fill="white"/>
</mask>
<g mask="url(#mask2_292_1656)">
<path d="M54.0185 41.9185L53.5163 41.6339C53.3783 41.5543 53.2624 41.4234 53.1961 41.2299C50.486 33.3376 47.384 25.6785 43.8957 18.2811C43.7853 18.0535 43.7908 17.8145 43.8681 17.604L44.3704 17.8885C44.2931 18.0991 44.2876 18.338 44.398 18.5657C47.8918 25.963 50.9938 33.6221 53.6984 41.5144C53.7646 41.7079 53.8806 41.8388 54.0185 41.9185Z" fill="white"/>
<path d="M44.3641 17.8827L43.8618 17.5982C43.8784 17.5527 43.9005 17.5072 43.9225 17.4617L44.4248 17.7462C44.4027 17.7917 44.3807 17.8372 44.3641 17.8827Z" fill="white"/>
<path d="M44.4251 17.7516L43.9229 17.4671C43.9449 17.4272 43.967 17.3931 43.9891 17.3533L44.4914 17.6378C44.4693 17.6719 44.4472 17.7118 44.4251 17.7516Z" fill="white"/>
<path d="M44.4915 17.6379L43.9893 17.3534C44.0113 17.3193 44.0389 17.2851 44.0665 17.251L44.5688 17.5355C44.5412 17.5696 44.5136 17.5981 44.4915 17.6379Z" fill="white"/>
<path d="M44.5686 17.5413L44.0663 17.2568C44.0939 17.2227 44.1215 17.1942 44.1546 17.1658L44.6569 17.4503C44.6238 17.4787 44.5962 17.5072 44.5686 17.5413Z" fill="white"/>
<path d="M44.6563 17.4502L44.1541 17.1657C44.1872 17.1372 44.2203 17.1088 44.2589 17.0803L44.7612 17.3648C44.7226 17.3933 44.6895 17.4217 44.6563 17.4502Z" fill="white"/>
<path d="M44.7625 17.3649L44.2603 17.0804C44.3044 17.0519 44.3486 17.0235 44.3927 17.0007L44.895 17.2852C44.8508 17.308 44.8067 17.3365 44.7625 17.3649Z" fill="white"/>
<path d="M44.894 17.2855L44.3917 17.001C44.4635 16.9668 44.5297 16.9441 44.6015 16.9327C44.6732 16.9213 44.745 16.927 44.8112 16.9441L45.3135 17.2286C45.2473 17.2115 45.1755 17.2058 45.1037 17.2172C45.032 17.2286 44.9602 17.2513 44.894 17.2855Z" fill="white"/>
<path d="M45.3137 17.2284L44.8114 16.9438C44.8445 16.9495 44.8721 16.9609 44.8997 16.978L45.402 17.2625C45.3744 17.2454 45.3413 17.2341 45.3137 17.2284Z" fill="white"/>
<path d="M45.408 17.2625L44.9058 16.978L44.9223 16.9894L45.4246 17.2739L45.408 17.2625Z" fill="white"/>
</g>
<path d="M69.6122 12.8583C70.3022 12.7559 70.7603 13.8029 70.0152 14.3036C68.3041 15.4531 66.7366 16.8643 65.3401 18.486C59.8316 24.8875 57.403 33.3205 55.1234 41.3096C55.0075 41.7193 54.7205 41.9469 54.428 41.9924C54.1354 42.0379 53.8263 41.8786 53.6994 41.5144C50.9893 33.6221 47.8873 25.963 44.399 18.5656C44.1119 17.9568 44.6253 17.2853 45.111 17.2171C45.3318 17.1829 45.547 17.2796 45.674 17.5528C48.9029 24.3982 51.8062 31.4655 54.3783 38.7262C54.8916 36.9622 55.416 35.1926 55.9955 33.4457C58.5842 25.6159 62.5196 17.53 69.2755 12.9949C69.3915 12.9152 69.5018 12.8754 69.6122 12.8583Z" fill="white"/>
<mask id="mask3_292_1656" style="mask-type:luminance" maskUnits="userSpaceOnUse" x="83" y="1" width="2" height="1">
<path d="M83.8196 1.06814L84.3219 1.35265C84.2281 1.30144 84.1177 1.27299 84.0073 1.29006L83.505 1.00554C83.6154 0.988474 83.7258 1.01123 83.8196 1.06814Z" fill="white"/>
</mask>
<g mask="url(#mask3_292_1656)">
<path d="M84.0077 1.2841L83.5054 0.999587C83.5716 0.988207 83.6378 0.999587 83.6986 1.01097L84.2008 1.29548C84.1401 1.27841 84.0739 1.27272 84.0077 1.2841Z" fill="white"/>
<path d="M84.1949 1.29599L83.6926 1.01147C83.7257 1.02286 83.7644 1.03424 83.7975 1.05131L84.2998 1.33582C84.2667 1.31875 84.2335 1.30737 84.1949 1.29599Z" fill="white"/>
<path d="M84.2999 1.33578L83.7976 1.05127L83.8197 1.06265L84.322 1.34716L84.2999 1.33578Z" fill="white"/>
</g>
<mask id="mask4_292_1656" style="mask-type:luminance" maskUnits="userSpaceOnUse" x="61" y="4" width="21" height="23">
<path d="M62.8717 26.3044L62.3694 26.0199C62.0658 25.8492 61.8616 25.4451 62.0548 24.9501C62.9048 22.7707 64.4006 20.9612 66.073 19.4761C67.762 17.9795 69.6387 16.8244 71.4435 15.5498C73.0939 14.3833 74.6725 13.0688 76.1186 11.5723C78.1719 9.44415 79.9547 7.02579 81.4229 4.40259L81.9252 4.6871C80.457 7.31031 78.6742 9.72867 76.6209 11.8568C75.1748 13.3534 73.5962 14.6678 71.9458 15.8343C70.1409 17.1089 68.2643 18.264 66.5753 19.7606C64.9029 21.24 63.4071 23.0552 62.5571 25.2346C62.3694 25.724 62.5681 26.1337 62.8717 26.3044Z" fill="white"/>
</mask>
<g mask="url(#mask4_292_1656)">
<path d="M62.8732 26.3045L62.3709 26.02C62.0729 25.855 61.8742 25.4624 62.0453 24.9844L62.5476 25.2689C62.3765 25.7469 62.5807 26.1395 62.8732 26.3045Z" fill="white"/>
<path d="M62.5467 25.2689L62.0444 24.9844L62.0555 24.9502C62.21 24.5576 62.3866 24.1706 62.5798 23.8008L63.0821 24.0853C62.8889 24.4552 62.7123 24.8421 62.5578 25.2347L62.5467 25.2689Z" fill="white"/>
<path d="M63.082 24.091L62.5797 23.8065C62.8115 23.3684 63.0654 22.9416 63.3414 22.5376L63.8437 22.8221C63.5677 23.2261 63.3138 23.6529 63.082 24.091Z" fill="white"/>
<path d="M63.8444 22.822L63.3422 22.5375C63.6457 22.0879 63.9769 21.6612 64.3302 21.2515L64.8324 21.536C64.4792 21.9457 64.148 22.3724 63.8444 22.822Z" fill="white"/>
<path d="M64.8326 21.5305L64.3303 21.2459C64.7719 20.7338 65.241 20.2501 65.7268 19.7949L66.229 20.0794C65.7378 20.5347 65.2686 21.0183 64.8326 21.5305Z" fill="white"/>
<path d="M66.2298 20.0793L65.7275 19.7948C65.8434 19.6866 65.9594 19.5842 66.0753 19.4818C66.8094 18.8274 67.5821 18.2413 68.3714 17.678L68.8737 17.9625C68.0844 18.5258 67.3172 19.1119 66.5775 19.7663C66.4616 19.8687 66.3457 19.9768 66.2298 20.0793Z" fill="white"/>
<path d="M68.8729 17.9627L68.3706 17.6782C69.3862 16.9555 70.4294 16.2727 71.445 15.5557C71.4891 15.5273 71.5333 15.4931 71.5775 15.459L72.0797 15.7435C72.0356 15.7776 71.9914 15.8061 71.9473 15.8402C70.9317 16.5572 69.8885 17.24 68.8729 17.9627Z" fill="white"/>
<path d="M72.0792 15.7491L71.5769 15.4646C72.747 14.6281 73.8786 13.7233 74.9493 12.7275L75.4516 13.0121C74.3808 14.0078 73.2438 14.9126 72.0792 15.7491Z" fill="white"/>
<path d="M75.4527 13.0121L74.9504 12.7275C75.3478 12.3577 75.7397 11.9764 76.1206 11.5838C76.5787 11.1058 77.0203 10.6165 77.4563 10.1157L77.9586 10.4002C77.5281 10.901 77.081 11.3903 76.6229 11.8683C76.242 12.2609 75.8501 12.6422 75.4527 13.0121Z" fill="white"/>
<path d="M77.9524 10.3945L77.4501 10.1099C78.2835 9.13691 79.0618 8.11835 79.7904 7.04858L80.2926 7.3331C79.5696 8.39717 78.7858 9.42142 77.9524 10.3945Z" fill="white"/>
<path d="M80.2927 7.33885L79.7904 7.05434C80.37 6.2008 80.9164 5.31881 81.4242 4.41406L81.9265 4.69858C81.4187 5.60333 80.8722 6.48531 80.2927 7.33885Z" fill="white"/>
</g>
<mask id="mask5_292_1656" style="mask-type:luminance" maskUnits="userSpaceOnUse" x="62" y="1" width="23" height="18">
<path d="M63.5985 18.0588L63.0962 17.7743C62.9637 17.7003 62.8644 17.5524 62.8313 17.3248C62.5498 15.3559 63.0741 13.3473 64.1725 11.5833C68.7924 4.16891 77.5629 6.77504 83.1321 1.20998C83.2591 1.08479 83.386 1.0222 83.5075 1.00513L84.0098 1.28964C83.8883 1.30671 83.7614 1.3693 83.6344 1.49449C78.0652 7.05956 69.2946 4.45342 64.6748 11.8678C63.5764 13.6375 63.052 15.6405 63.3335 17.6093C63.3667 17.8426 63.466 17.9848 63.5985 18.0588Z" fill="white"/>
</mask>
<g mask="url(#mask5_292_1656)">
<path d="M63.598 18.0587L63.0957 17.7742C62.9633 17.7002 62.8639 17.5522 62.8308 17.3246C62.6431 16.033 62.8087 14.7242 63.2503 13.478L63.7526 13.7625C63.311 15.0087 63.1454 16.3175 63.3331 17.6092C63.3662 17.8425 63.4656 17.9847 63.598 18.0587Z" fill="white"/>
<path d="M63.7536 13.7569L63.2513 13.4724C63.4004 13.057 63.577 12.653 63.7867 12.2546L64.289 12.5392C64.0793 12.9375 63.9026 13.3415 63.7536 13.7569Z" fill="white"/>
<path d="M64.2889 12.539L63.7866 12.2545C63.9081 12.0269 64.035 11.7992 64.173 11.5773C64.2613 11.4351 64.3551 11.2928 64.449 11.1562L64.9512 11.4408C64.8574 11.5773 64.7691 11.7196 64.6753 11.8618C64.5373 12.0838 64.4103 12.3114 64.2889 12.539Z" fill="white"/>
<path d="M64.9503 11.4409L64.448 11.1564C64.7019 10.7808 64.9724 10.4337 65.2483 10.1094L65.7506 10.3939C65.4746 10.7182 65.2097 11.0653 64.9503 11.4409Z" fill="white"/>
<path d="M65.7512 10.3937L65.2489 10.1092C65.5359 9.77343 65.834 9.46615 66.1375 9.18164L66.6398 9.46615C66.3307 9.75067 66.0382 10.0579 65.7512 10.3937Z" fill="white"/>
<path d="M66.6397 9.47198L66.1375 9.18747C66.4962 8.85743 66.866 8.55585 67.2524 8.28271L67.7547 8.56723C67.3683 8.84036 66.9985 9.14194 66.6397 9.47198Z" fill="white"/>
<path d="M67.7541 8.56747L67.2518 8.28296C67.8479 7.86188 68.4717 7.50339 69.1119 7.19043L69.6142 7.47494C68.9739 7.78791 68.3502 8.14639 67.7541 8.56747Z" fill="white"/>
<path d="M69.6148 7.47475L69.1125 7.19023C72.4519 5.5742 76.3321 5.2271 79.7211 3.59399L80.2234 3.87851C76.8344 5.51161 72.9541 5.85872 69.6148 7.47475Z" fill="white"/>
<path d="M80.2231 3.87847L79.7208 3.59396C80.3832 3.2753 81.029 2.90543 81.6471 2.46729L82.1494 2.7518C81.5312 3.18995 80.8855 3.55981 80.2231 3.87847Z" fill="white"/>
<path d="M82.1436 2.74626L81.6414 2.46175C82.0443 2.17723 82.4362 1.85858 82.8115 1.51147L83.3138 1.79599C82.9385 2.14309 82.5466 2.46175 82.1436 2.74626Z" fill="white"/>
<path d="M83.3138 1.79594L82.8115 1.51143C82.9164 1.4147 83.0268 1.31227 83.1317 1.20416C83.1427 1.19278 83.1482 1.18709 83.1592 1.1814L83.6615 1.46591C83.6615 1.46591 83.645 1.48298 83.6339 1.48867C83.5291 1.59109 83.4242 1.69352 83.3138 1.79594Z" fill="white"/>
<path d="M83.6618 1.46608L83.1595 1.18156C83.1871 1.15311 83.2147 1.13035 83.2479 1.11328L83.7501 1.39779C83.7225 1.42055 83.6949 1.44332 83.6618 1.46608Z" fill="white"/>
<path d="M83.7495 1.39757L83.2472 1.11305C83.2803 1.09029 83.3134 1.06753 83.3465 1.05615L83.8488 1.34067C83.8157 1.35774 83.7826 1.37481 83.7495 1.39757Z" fill="white"/>
<path d="M83.8491 1.33499L83.3468 1.05048C83.402 1.02203 83.4572 1.01065 83.5069 0.999268L84.0091 1.28378C83.9539 1.28947 83.9043 1.30654 83.8491 1.33499Z" fill="white"/>
</g>
<path d="M82.8644 1.44562C83.3557 1.37734 83.7475 2.06586 83.4992 2.6292C82.5498 4.75166 81.4073 6.7717 80.0936 8.66655C77.7478 12.0523 74.8556 14.96 71.6487 17.2361C68.3315 19.5918 64.3574 21.7598 62.6905 26.0389C62.5691 26.3576 62.3593 26.5112 62.1385 26.5453C61.6639 26.6136 61.1505 26.0901 61.4155 25.3959C62.2655 23.2165 63.7613 21.407 65.4337 19.9219C67.1227 18.4253 68.9993 17.2702 70.8042 15.9956C72.4546 14.8291 74.0331 13.5147 75.4793 12.0181C77.5325 9.88996 79.3154 7.4716 80.7836 4.84839C77.8472 6.5953 74.4858 7.07897 71.3672 8.1146C69.3802 8.77467 67.3103 9.70218 65.7594 11.432C64.3905 12.9513 63.3142 15.0795 63.6067 17.1223C63.695 17.7311 63.2148 18.2091 62.7898 18.2717C62.5083 18.3115 62.2489 18.1693 62.1882 17.7653C61.9067 15.7964 62.4311 13.7878 63.5295 12.0238C68.1493 4.6094 76.9199 7.21554 82.4891 1.65047C82.616 1.52529 82.743 1.46269 82.8644 1.44562Z" fill="white"/>
<mask id="mask6_292_1656" style="mask-type:luminance" maskUnits="userSpaceOnUse" x="42" y="2" width="2" height="1">
<path d="M43.1849 2.39134L43.6871 2.67585C43.5712 2.61326 43.4443 2.59619 43.3173 2.61326L42.8151 2.32874C42.942 2.31167 43.069 2.32874 43.1849 2.39134Z" fill="white"/>
</mask>
<g mask="url(#mask6_292_1656)">
<path d="M43.3222 2.61328L42.8199 2.32876C42.9027 2.31738 42.9855 2.31738 43.0628 2.34014L43.5651 2.62466C43.4878 2.6019 43.405 2.6019 43.3222 2.61328Z" fill="white"/>
<path d="M43.5638 2.62484L43.0615 2.34033C43.1002 2.35171 43.1333 2.36309 43.1664 2.38016L43.6687 2.66468C43.6356 2.64761 43.5969 2.63623 43.5638 2.62484Z" fill="white"/>
<path d="M43.6687 2.66464L43.1664 2.38013L43.1885 2.39151L43.6907 2.67602L43.6687 2.66464Z" fill="white"/>
</g>
<mask id="mask7_292_1656" style="mask-type:luminance" maskUnits="userSpaceOnUse" x="39" y="2" width="7" height="15">
<path d="M40.009 16.1055L39.5067 15.821C40.2519 16.2421 41.1074 16.4469 41.9684 16.3218C42.4707 16.2478 42.9785 16.06 43.4753 15.7357C45.4899 14.4098 45.4016 11.8663 44.9435 9.8747C44.4081 7.55307 43.3097 5.54441 42.1395 3.63249C41.7863 3.06346 42.2996 2.3977 42.8129 2.32373L43.3152 2.60824C42.8019 2.68222 42.2886 3.34229 42.6418 3.917C43.812 5.82893 44.9103 7.83758 45.4457 10.1592C45.9039 12.1508 45.9922 14.6943 43.9775 16.0202C43.4808 16.3445 42.973 16.5323 42.4707 16.6063C41.6041 16.7315 40.7541 16.5209 40.009 16.1055Z" fill="white"/>
</mask>
<g mask="url(#mask7_292_1656)">
<path d="M40.0095 16.1056L39.5072 15.821C39.5624 15.8552 39.6176 15.8836 39.6783 15.9121L40.1806 16.1966C40.1254 16.1682 40.0647 16.1397 40.0095 16.1056Z" fill="white"/>
<path d="M40.1809 16.1964L39.6786 15.9119C39.9435 16.0484 40.2195 16.1565 40.5065 16.2305L41.0088 16.515C40.7218 16.4411 40.4458 16.3329 40.1809 16.1964Z" fill="white"/>
<path d="M41.0083 16.5152L40.506 16.2307C40.9807 16.3559 41.4719 16.3957 41.9742 16.3217C42.3274 16.2705 42.6807 16.1624 43.0339 15.9917L43.5362 16.2762C43.183 16.4469 42.8297 16.555 42.4765 16.6062C41.9797 16.6802 41.4829 16.6404 41.0083 16.5152Z" fill="white"/>
<path d="M43.5305 16.2762L43.0282 15.9917C43.1772 15.9178 43.3263 15.8324 43.4753 15.7357C43.5139 15.7072 43.5526 15.6845 43.5912 15.656L44.0935 15.9405C44.0548 15.969 44.0162 15.9917 43.9776 16.0202C43.8285 16.1169 43.6795 16.2023 43.5305 16.2762Z" fill="white"/>
<path d="M44.1003 15.9463L43.598 15.6618C43.736 15.565 43.8574 15.4626 43.9734 15.3545L44.4756 15.639C44.3597 15.7471 44.2328 15.8495 44.1003 15.9463Z" fill="white"/>
<path d="M44.4748 15.639L43.9725 15.3545C44.0719 15.2578 44.1712 15.161 44.254 15.0586L44.7563 15.3431C44.668 15.4455 44.5742 15.5423 44.4748 15.639Z" fill="white"/>
<path d="M44.7564 15.3431L44.2542 15.0586C44.3425 14.9561 44.4197 14.8537 44.4915 14.7456L44.9938 15.0301C44.922 15.1382 44.8392 15.2407 44.7564 15.3431Z" fill="white"/>
<path d="M44.9995 15.0299L44.4972 14.7454C44.58 14.6259 44.6517 14.5007 44.718 14.3755L45.2203 14.66C45.154 14.7852 45.0823 14.9104 44.9995 15.0299Z" fill="white"/>
<path d="M45.2199 14.6601L44.7177 14.3756C44.8004 14.2106 44.8777 14.0398 44.9384 13.8691L45.4407 14.1537C45.38 14.3301 45.3082 14.4951 45.2199 14.6601Z" fill="white"/>
<path d="M45.4352 14.1538L44.9329 13.8693C45.3745 12.6175 45.2365 11.138 44.9495 9.88045C44.4141 7.55883 43.3157 5.55017 42.1455 3.63825C42.0075 3.41633 42.002 3.17734 42.0793 2.9668L42.5816 3.25131C42.5043 3.46185 42.5153 3.70084 42.6478 3.92276C43.818 5.83468 44.9163 7.84334 45.4517 10.165C45.7388 11.4225 45.8823 12.902 45.4352 14.1538Z" fill="white"/>
<path d="M42.5755 3.25118L42.0732 2.96666C42.0898 2.92683 42.1064 2.887 42.1229 2.84717L42.6252 3.13168C42.6031 3.17151 42.5866 3.21134 42.5755 3.25118Z" fill="white"/>
<path d="M42.6261 3.13149L42.1238 2.84698C42.1403 2.81284 42.1624 2.7787 42.1845 2.75024L42.6868 3.03476C42.6647 3.0689 42.6426 3.09735 42.6261 3.13149Z" fill="white"/>
<path d="M42.6858 3.03498L42.1835 2.75047C42.2055 2.71633 42.2276 2.68788 42.2552 2.65942L42.7575 2.94394C42.7299 2.97239 42.7078 3.00084 42.6858 3.03498Z" fill="white"/>
<path d="M42.7575 2.94384L42.2552 2.65933C42.2828 2.63088 42.3104 2.59674 42.338 2.57397L42.8403 2.85849C42.8127 2.88694 42.7851 2.91539 42.7575 2.94384Z" fill="white"/>
<path d="M42.8411 2.85278L42.3389 2.56826C42.372 2.53981 42.4051 2.51136 42.4437 2.48291L42.946 2.76742C42.9074 2.79018 42.8743 2.81864 42.8411 2.85278Z" fill="white"/>
<path d="M42.9461 2.76757L42.4438 2.48306C42.488 2.44892 42.5377 2.42616 42.5818 2.39771L43.0841 2.68222C43.0344 2.70498 42.9903 2.73343 42.9461 2.76757Z" fill="white"/>
<path d="M43.0842 2.68808L42.5819 2.40356C42.6592 2.36942 42.7365 2.34097 42.8137 2.32959L43.316 2.6141C43.2387 2.62548 43.1559 2.64824 43.0842 2.68808Z" fill="white"/>
</g>
<mask id="mask8_292_1656" style="mask-type:luminance" maskUnits="userSpaceOnUse" x="34" y="8" width="6" height="10">
<path d="M39.246 17.6646L38.7437 17.38C36.3041 16.0144 35.007 12.697 34.0466 9.89167C33.8534 9.31695 34.295 8.86173 34.7476 8.79345C34.8966 8.77069 35.0401 8.79345 35.1726 8.86173L35.6749 9.14624C35.5479 9.07227 35.3989 9.0552 35.2498 9.07796C34.7972 9.14624 34.3557 9.60146 34.5489 10.1762C35.5093 12.9872 36.8064 16.2989 39.246 17.6646Z" fill="white"/>
</mask>
<g mask="url(#mask8_292_1656)">
<path d="M39.245 17.6641L38.7427 17.3796C36.303 16.014 35.006 12.6965 34.0456 9.89125C33.9793 9.69779 33.9848 9.5157 34.0456 9.36206L34.5478 9.64657C34.4926 9.80021 34.4871 9.9823 34.5478 10.1758C35.5082 12.9868 36.8053 16.2985 39.245 17.6641Z" fill="white"/>
<path d="M34.5427 9.6467L34.0404 9.36219C34.0514 9.32805 34.068 9.29391 34.0846 9.25977L34.5868 9.54428C34.5703 9.57842 34.5537 9.61256 34.5427 9.6467Z" fill="white"/>
<path d="M34.5865 9.54435L34.0842 9.25984C34.1008 9.23139 34.1173 9.20294 34.1339 9.18018L34.6362 9.46469C34.6362 9.46469 34.6031 9.5159 34.5865 9.54435Z" fill="white"/>
<path d="M34.6357 9.45883L34.1334 9.17431C34.1334 9.17431 34.1721 9.1231 34.1886 9.10034L34.6909 9.38485C34.6909 9.38485 34.6523 9.43607 34.6357 9.45883Z" fill="white"/>
<path d="M34.6967 9.3851L34.1945 9.10059C34.1945 9.10059 34.2386 9.04937 34.2662 9.02661L34.7685 9.31112C34.7685 9.31112 34.7188 9.35665 34.6967 9.3851Z" fill="white"/>
<path d="M34.7685 9.31112L34.2662 9.02661C34.2938 8.99816 34.3269 8.9754 34.3601 8.95264L34.8623 9.23715C34.8292 9.25991 34.8016 9.28267 34.7685 9.31112Z" fill="white"/>
<path d="M34.8575 9.23673L34.3552 8.95222C34.3994 8.92377 34.4435 8.89532 34.4877 8.87256L34.99 9.15707C34.9458 9.17983 34.8961 9.20828 34.8575 9.23673Z" fill="white"/>
<path d="M34.9943 9.1573L34.4921 8.87278C34.5749 8.83295 34.6632 8.8045 34.746 8.79312C34.8398 8.78174 34.9391 8.78174 35.0275 8.8045L35.5297 9.08901C35.4414 9.06625 35.3421 9.06056 35.2482 9.07763C35.1599 9.08901 35.0716 9.11746 34.9943 9.1573Z" fill="white"/>
<path d="M35.5362 9.0892L35.0339 8.80469C35.0726 8.81607 35.1112 8.82745 35.1498 8.85021L35.6521 9.13472C35.6135 9.11765 35.5749 9.10058 35.5362 9.0892Z" fill="white"/>
<path d="M35.6517 9.13461L35.1494 8.8501L35.1715 8.86148L35.6738 9.14599L35.6517 9.13461Z" fill="white"/>
</g>
<path d="M43.3189 2.61392C43.5452 2.57978 43.766 2.65944 43.9206 2.90981C45.157 4.92416 46.3105 7.07508 46.868 9.52189C47.3261 11.5078 47.4807 13.8806 46.2167 15.8096C45.306 17.1923 43.8378 18.0516 42.4082 18.2564C42.2095 18.2849 42.0108 18.3019 41.8176 18.3019C37.6338 18.3589 35.8068 13.8351 34.5539 10.1706C34.3607 9.59586 34.8023 9.14064 35.2549 9.07236C35.5529 9.02683 35.851 9.15202 35.978 9.52758C36.7065 11.6728 37.4737 13.9318 39.0579 15.3999C39.9796 16.2591 41.216 16.7883 42.48 16.6006C42.9823 16.5266 43.4901 16.3388 43.9868 16.0145C46.0014 14.6886 45.9131 12.1451 45.455 10.1535C44.9196 7.83188 43.8212 5.82322 42.6511 3.9113C42.2978 3.34227 42.8111 2.67651 43.3245 2.60254L43.3189 2.61392Z" fill="white"/>
<mask id="mask9_292_1656" style="mask-type:luminance" maskUnits="userSpaceOnUse" x="38" y="5" width="2" height="1">
<path d="M38.641 5.47411L39.1432 5.75862C39.0439 5.70172 38.9335 5.68465 38.8176 5.70172L38.3153 5.4172C38.4312 5.40013 38.5416 5.4172 38.641 5.47411Z" fill="white"/>
</mask>
<g mask="url(#mask9_292_1656)">
<path d="M38.8175 5.70157L38.3152 5.41705C38.3869 5.40567 38.4587 5.41136 38.5304 5.42843L39.0327 5.71295C38.961 5.69588 38.8892 5.69019 38.8175 5.70157Z" fill="white"/>
<path d="M39.0324 5.71298L38.5302 5.42847C38.5633 5.43416 38.5909 5.45123 38.624 5.46261L39.1263 5.74712C39.0987 5.73005 39.0655 5.71867 39.0324 5.71298Z" fill="white"/>
<path d="M39.1268 5.74716L38.6245 5.46265L38.6411 5.47403L39.1434 5.75854L39.1268 5.74716Z" fill="white"/>
</g>
<mask id="mask10_292_1656" style="mask-type:luminance" maskUnits="userSpaceOnUse" x="37" y="5" width="6" height="12">
<path d="M42.7792 16.2857L42.277 16.0012C42.1831 15.95 42.0948 15.8589 42.0341 15.7281C40.5604 12.7407 39.0867 9.75328 37.6185 6.76021C37.3204 6.15704 37.8337 5.48559 38.325 5.41162L38.8272 5.69613C38.336 5.76442 37.8227 6.43587 38.1207 7.04472C39.5945 10.0321 41.0682 13.0195 42.5364 16.0126C42.6026 16.1434 42.6854 16.2345 42.7792 16.2857Z" fill="white"/>
</mask>
<g mask="url(#mask10_292_1656)">
<path d="M42.7787 16.2855L42.2764 16.001C42.1825 15.9497 42.0942 15.8587 42.0335 15.7278C40.5598 12.7404 39.0861 9.75305 37.6179 6.75998C37.5075 6.53237 37.5075 6.29338 37.5848 6.07715L38.087 6.36166C38.0098 6.5722 38.0098 6.81119 38.1202 7.04449C39.5939 10.0319 41.0676 13.0193 42.5358 16.0123C42.602 16.1432 42.6848 16.2343 42.7787 16.2855Z" fill="white"/>
<path d="M38.0819 6.36754L37.5796 6.08302C37.5961 6.0375 37.6127 5.99198 37.6348 5.95215L38.1371 6.23666C38.115 6.28218 38.0929 6.32202 38.0819 6.36754Z" fill="white"/>
<path d="M38.1377 6.23076L37.6354 5.94625C37.6575 5.90642 37.6795 5.87228 37.7016 5.83813L38.2039 6.12265C38.1818 6.15679 38.1597 6.19662 38.1377 6.23076Z" fill="white"/>
<path d="M38.2041 6.1227L37.7018 5.83819C37.7239 5.80405 37.7515 5.76991 37.7791 5.74146L38.2813 6.02597C38.2537 6.06011 38.2317 6.08856 38.2041 6.1227Z" fill="white"/>
<path d="M38.2811 6.02619L37.7788 5.74168C37.8064 5.70754 37.834 5.67909 37.8671 5.65063L38.3694 5.93515C38.3363 5.9636 38.3087 5.99205 38.2811 6.02619Z" fill="white"/>
<path d="M38.3687 5.93505L37.8665 5.65054C37.8996 5.62209 37.9327 5.59364 37.9713 5.56519L38.4736 5.8497C38.435 5.87815 38.4019 5.9066 38.3687 5.93505Z" fill="white"/>
<path d="M38.4736 5.84977L37.9713 5.56526C38.0155 5.53681 38.0596 5.50836 38.1038 5.4856L38.6061 5.77011C38.5619 5.79287 38.5177 5.82132 38.4736 5.84977Z" fill="white"/>
<path d="M38.6064 5.77028L38.1041 5.48576C38.1759 5.45162 38.2476 5.42886 38.3194 5.41748L38.8217 5.70199C38.7499 5.71337 38.6782 5.73613 38.6064 5.77028Z" fill="white"/>
</g>
<path d="M38.8204 5.70143C39.0412 5.66728 39.2565 5.75833 39.389 6.03146C40.8627 9.02453 42.3364 12.0119 43.8046 14.9993C44.1027 15.6025 43.5893 16.2682 43.1036 16.3422C42.8828 16.3763 42.6676 16.2853 42.5296 16.0122C41.0559 13.0248 39.5821 10.0374 38.1139 7.04433C37.8159 6.44116 38.3292 5.76971 38.8204 5.69574V5.70143Z" fill="white"/>
</g>
<defs>
<clipPath id="clip0_292_1656">
<rect width="159" height="52" fill="white"/>
</clipPath>
</defs>
</svg>
