<svg width="40" height="40" viewBox="0 0 40 40" fill="none" xmlns="http://www.w3.org/2000/svg">
<rect width="40" height="40" rx="20" fill="#F1FFF7"/>
<path d="M26.4791 12.6982L20.2291 10.3545C19.7604 10.1774 19.2395 10.1774 18.7708 10.3545L12.5208 12.6982C11.7083 13.0107 11.1666 13.7816 11.1666 14.6566V19.5524C11.1666 24.6982 14.5729 29.5212 19.1979 30.8337C19.3958 30.8857 19.6041 30.8857 19.7916 30.8337C24.427 29.5212 27.8333 24.6982 27.8333 19.5524V14.6566C27.8333 13.7816 27.2916 13.0107 26.4791 12.6982ZM22.4166 23.4066C22.0104 23.8128 21.3541 23.8128 20.9479 23.417L19.5 21.9795L18.052 23.417C17.8573 23.6118 17.5931 23.7212 17.3177 23.7212C17.0422 23.7212 16.7781 23.6118 16.5833 23.417C16.3885 23.2222 16.2791 22.9581 16.2791 22.6826C16.2791 22.4072 16.3885 22.143 16.5833 21.9482L18.0312 20.5003L16.5833 19.0524C16.3885 18.8576 16.2791 18.5935 16.2791 18.318C16.2791 18.0426 16.3885 17.7784 16.5833 17.5837C16.7781 17.3889 17.0422 17.2795 17.3177 17.2795C17.5931 17.2795 17.8573 17.3889 18.052 17.5837L19.5 19.0316L20.9479 17.5837C21.1426 17.3889 21.4068 17.2795 21.6823 17.2795C21.9577 17.2795 22.2219 17.3889 22.4166 17.5837C22.6114 17.7784 22.7208 18.0426 22.7208 18.318C22.7208 18.5935 22.6114 18.8576 22.4166 19.0524L20.9791 20.5003L22.4166 21.9378C22.8229 22.3441 22.8229 23.0003 22.4166 23.4066Z" fill="#72FFAF"/>
</svg>
