<svg width="40" height="40" viewBox="0 0 40 40" fill="none" xmlns="http://www.w3.org/2000/svg">
<rect width="40" height="40" rx="20" fill="#F0F8FF"/>
<path d="M20 28.75C18.335 29.5275 16.1462 30 13.75 30C12.4175 30 11.15 29.8537 10 29.5912C9.26125 29.4212 8.89125 29.3375 8.44875 28.9862C8.15917 28.7384 7.91948 28.4376 7.7425 28.1C7.5 27.5912 7.5 27.0962 7.5 26.1075V12.6425C7.5 11.4112 8.8 10.5662 10 10.8412C11.15 11.1037 12.4175 11.25 13.75 11.25C16.1462 11.25 18.335 10.7775 20 10C21.665 9.2225 23.8537 8.75 26.25 8.75C27.5825 8.75 28.85 8.89625 30 9.15875C30.7387 9.32875 31.1087 9.41375 31.5512 9.76375C31.8037 9.96375 32.1187 10.3587 32.2575 10.65C32.5 11.16 32.5 11.6537 32.5 12.6425V20M23.75 27.5H32.5" stroke="#70C1FF" stroke-width="1.5625" stroke-linecap="round" stroke-linejoin="round"/>
<path d="M11.875 21.25V21.2612M28.125 18.74V18.7525M23.125 20C23.125 20.8288 22.7958 21.6237 22.2097 22.2097C21.6237 22.7958 20.8288 23.125 20 23.125C19.1712 23.125 18.3763 22.7958 17.7903 22.2097C17.2042 21.6237 16.875 20.8288 16.875 20C16.875 19.1712 17.2042 18.3763 17.7903 17.7903C18.3763 17.2042 19.1712 16.875 20 16.875C20.8288 16.875 21.6237 17.2042 22.2097 17.7903C22.7958 18.3763 23.125 19.1712 23.125 20Z" stroke="#70C1FF" stroke-width="1.5625" stroke-linecap="round" stroke-linejoin="round"/>
</svg>
