<svg width="26" height="26" viewBox="0 0 26 26" fill="none" xmlns="http://www.w3.org/2000/svg">
<path d="M17.6876 0.812564C13.5344 0.812564 10.1876 4.15944 10.1876 8.31256C10.1876 8.53288 10.2222 8.831 10.2466 9.10381L2.2188 17.1307C1.7803 17.5664 1.43229 18.0844 1.19482 18.6551C0.95734 19.2258 0.835083 19.8379 0.835083 20.456C0.835083 21.0741 0.95734 21.6862 1.19482 22.2569C1.43229 22.8276 1.7803 23.3456 2.2188 23.7813C2.65447 24.2198 3.17256 24.5678 3.74326 24.8053C4.31395 25.0428 4.92598 25.165 5.54412 25.165C6.16225 25.165 6.77428 25.0428 7.34498 24.8053C7.91567 24.5678 8.43376 24.2198 8.86943 23.7813L16.8963 15.7535C17.1682 15.7779 17.4682 15.8126 17.6876 15.8126C21.8407 15.8126 25.1876 12.4657 25.1876 8.31256C25.1924 7.10414 24.8898 5.91434 24.3082 4.85506L23.7222 3.77131L22.8438 4.65069L18.8004 8.66319L17.336 7.19881L21.3485 3.15631L22.2297 2.27694L21.1451 1.691C20.0857 1.10974 18.8959 0.807454 17.6876 0.812564ZM17.6876 2.68756C18.1432 2.68756 18.4826 2.88444 18.8876 2.981L15.3438 6.52475L14.6688 7.19975L15.3438 7.84381L18.1563 10.6563L18.8013 11.3313L19.4744 10.6563L23.0201 7.11256C23.1166 7.51756 23.3126 7.85694 23.3126 8.31256C23.3126 11.4719 20.8469 13.9376 17.6876 13.9376C17.3126 13.9376 17.0126 13.9376 16.7782 13.8785L16.2813 13.7323L15.9007 14.1138L7.55037 22.4641C6.39724 23.6173 4.69099 23.6173 3.53787 22.4641L3.50787 22.4341C2.38287 21.281 2.39224 19.5935 3.53599 18.4498L11.8863 10.1004L12.2679 9.71975L12.1197 9.22288C12.0635 8.9885 12.0616 8.6885 12.0616 8.3135C12.0616 5.15413 14.5272 2.6885 17.6866 2.6885L17.6876 2.68756Z" fill="#5EDA42"/>
</svg>
