<svg width="11" height="19" viewBox="0 0 11 19" fill="none" xmlns="http://www.w3.org/2000/svg">
<g clip-path="url(#clip0_1443_24185)">
<path d="M6.27686 17.1253C5.84718 17.5403 5.14936 17.5403 4.71968 17.1253L0.319676 12.8753C0.00342558 12.5698 -0.0893869 12.1149 0.0824881 11.7165C0.254363 11.3181 0.653113 11.0591 1.09999 11.0591H9.89999C10.3434 11.0591 10.7456 11.3181 10.9175 11.7165C11.0894 12.1149 10.9931 12.5698 10.6803 12.8753L6.2803 17.1253H6.27686Z" fill="#B3B3B3"/>
</g>
<g clip-path="url(#clip1_1443_24185)">
<path d="M6.27686 1.87471C5.84718 1.45967 5.14936 1.45967 4.71968 1.87471L0.319676 6.12471C0.00342558 6.43018 -0.0893869 6.88506 0.0824881 7.2835C0.254363 7.68193 0.653113 7.94092 1.09999 7.94092H9.89999C10.3434 7.94092 10.7456 7.68193 10.9175 7.2835C11.0894 6.88506 10.9931 6.43018 10.6803 6.12471L6.2803 1.87471H6.27686Z" fill="#B3B3B3"/>
</g>
<defs>
<clipPath id="clip0_1443_24185">
<rect width="11" height="17" fill="white" transform="translate(0 1.5)"/>
</clipPath>
<clipPath id="clip1_1443_24185">
<rect width="11" height="17" fill="white" transform="matrix(1 0 0 -1 0 17.5)"/>
</clipPath>
</defs>
</svg>
