<svg width="39" height="31" viewBox="0 0 39 31" fill="none" xmlns="http://www.w3.org/2000/svg">
<rect x="0.5" y="0.5" width="38" height="30" rx="4" fill="#F6F6F6"/>
<path d="M14.9167 15.5003C14.9167 15.9866 14.7235 16.4529 14.3797 16.7967C14.0359 17.1405 13.5696 17.3337 13.0833 17.3337C12.5971 17.3337 12.1308 17.1405 11.787 16.7967C11.4432 16.4529 11.25 15.9866 11.25 15.5003C11.25 15.0141 11.4432 14.5478 11.787 14.204C12.1308 13.8601 12.5971 13.667 13.0833 13.667C13.5696 13.667 14.0359 13.8601 14.3797 14.204C14.7235 14.5478 14.9167 15.0141 14.9167 15.5003ZM21.3333 15.5003C21.3333 15.9866 21.1402 16.4529 20.7964 16.7967C20.4525 17.1405 19.9862 17.3337 19.5 17.3337C19.0138 17.3337 18.5475 17.1405 18.2036 16.7967C17.8598 16.4529 17.6667 15.9866 17.6667 15.5003C17.6667 15.0141 17.8598 14.5478 18.2036 14.204C18.5475 13.8601 19.0138 13.667 19.5 13.667C19.9862 13.667 20.4525 13.8601 20.7964 14.204C21.1402 14.5478 21.3333 15.0141 21.3333 15.5003ZM27.75 15.5003C27.75 15.9866 27.5568 16.4529 27.213 16.7967C26.8692 17.1405 26.4029 17.3337 25.9167 17.3337C25.4304 17.3337 24.9641 17.1405 24.6203 16.7967C24.2765 16.4529 24.0833 15.9866 24.0833 15.5003C24.0833 15.0141 24.2765 14.5478 24.6203 14.204C24.9641 13.8601 25.4304 13.667 25.9167 13.667C26.4029 13.667 26.8692 13.8601 27.213 14.204C27.5568 14.5478 27.75 15.0141 27.75 15.5003Z" fill="#B3B3B3"/>
</svg>
