<svg width="29" height="27" viewBox="0 0 29 27" fill="none" xmlns="http://www.w3.org/2000/svg">
<path d="M0.25 5.125C0.25 3.96468 0.710936 2.85188 1.53141 2.03141C2.35188 1.21094 3.46468 0.75 4.625 0.75H20.375C21.5353 0.75 22.6481 1.21094 23.4686 2.03141C24.2891 2.85188 24.75 3.96468 24.75 5.125V9.906C24.1077 9.52133 23.5222 9.04894 23.0105 8.5025L23 8.492V5.125C23 4.42881 22.7234 3.76113 22.2312 3.26884C21.7389 2.77656 21.0712 2.5 20.375 2.5H4.625C3.92881 2.5 3.26113 2.77656 2.76884 3.26884C2.27656 3.76113 2 4.42881 2 5.125V20.875C2 21.5712 2.27656 22.2389 2.76884 22.7312C3.26113 23.2234 3.92881 23.5 4.625 23.5H13.9385C14.2908 24.1258 14.7084 24.7124 15.1845 25.25H4.625C3.46468 25.25 2.35188 24.7891 1.53141 23.9686C0.710936 23.1481 0.25 22.0353 0.25 20.875V5.125ZM27.55 12.4172C25.4063 12.4172 23.483 11.5247 21.747 9.7135C21.6832 9.64625 21.6064 9.59269 21.5213 9.55609C21.4361 9.51949 21.3444 9.50061 21.2518 9.50061C21.1591 9.50061 21.0674 9.51949 20.9822 9.55609C20.8971 9.59269 20.8203 9.64625 20.7565 9.7135C19.0152 11.5265 17.0902 12.4172 14.95 12.4172C14.565 12.4172 14.25 12.7428 14.25 13.1453V17.522L14.257 17.9455C14.3917 22.408 16.6842 25.453 21.0295 26.9632C21.173 27.0122 21.327 27.0122 21.4705 26.9632C25.9523 25.4057 28.25 22.2155 28.25 17.522V13.147L28.2395 13.014C28.2132 12.8493 28.1296 12.6992 28.0035 12.59C27.8773 12.4809 27.7168 12.4197 27.55 12.4172ZM18.87 14.9425L21.25 17.3225L23.6212 14.9512C23.7457 14.8353 23.9102 14.7722 24.0802 14.7752C24.2502 14.7782 24.4124 14.8471 24.5327 14.9673C24.6529 15.0876 24.7218 15.2498 24.7248 15.4198C24.7278 15.5898 24.6647 15.7543 24.5487 15.8787L22.1775 18.25L24.5487 20.6212C24.6647 20.7457 24.7278 20.9102 24.7248 21.0802C24.7218 21.2502 24.6529 21.4124 24.5327 21.5327C24.4124 21.6529 24.2502 21.7218 24.0802 21.7248C23.9102 21.7278 23.7457 21.6647 23.6212 21.5487L21.25 19.1775L18.8787 21.5487C18.7543 21.6647 18.5898 21.7278 18.4198 21.7248C18.2498 21.7218 18.0876 21.6529 17.9673 21.5327C17.8471 21.4124 17.7782 21.2502 17.7752 21.0802C17.7722 20.9102 17.8353 20.7457 17.9512 20.6212L20.3225 18.25L17.9425 15.87C17.8266 15.7456 17.7635 15.5811 17.7665 15.411C17.7695 15.241 17.8383 15.0788 17.9586 14.9586C18.0788 14.8383 18.241 14.7695 18.411 14.7665C18.5811 14.7635 18.7456 14.8266 18.87 14.9425Z" fill="#B3B3B3"/>
</svg>
