<svg width="24" height="24" viewBox="0 0 24 24" fill="none" xmlns="http://www.w3.org/2000/svg">
<path d="M12 0.75C5.78531 0.75 0.75 5.78531 0.75 12C0.75 18.2147 5.78531 23.25 12 23.25C18.2147 23.25 23.25 18.2147 23.25 12C23.25 11.5463 23.2172 11.1 23.1619 10.6556C22.7733 10.9204 22.314 11.0622 21.8438 11.0625C21.3648 11.0611 20.8978 10.913 20.5056 10.6381C20.1133 10.3632 19.8148 9.97472 19.65 9.525C19.0464 9.91488 18.3435 10.1231 17.625 10.125C15.5531 10.125 13.875 8.44688 13.875 6.375C13.875 5.68687 14.0719 5.04938 14.3991 4.4925C14.3809 4.49683 14.3624 4.49934 14.3438 4.5C14.0359 4.50037 13.7309 4.44 13.4464 4.32235C13.1619 4.20469 12.9034 4.03207 12.6856 3.81436C12.4679 3.59665 12.2953 3.33813 12.1777 3.0536C12.06 2.76908 11.9996 2.46414 12 2.15625C12 1.63219 12.1763 1.15687 12.465 0.76875C12.3113 0.76125 12.1575 0.75 12 0.75ZM19.0312 0.75C18.8466 0.75 18.6637 0.786374 18.4931 0.857044C18.3225 0.927715 18.1675 1.0313 18.0369 1.16188C17.9063 1.29246 17.8027 1.44749 17.732 1.6181C17.6614 1.78872 17.625 1.97158 17.625 2.15625C17.625 2.34092 17.6614 2.52378 17.732 2.6944C17.8027 2.86501 17.9063 3.02004 18.0369 3.15062C18.1675 3.2812 18.3225 3.38478 18.4931 3.45546C18.6637 3.52613 18.8466 3.5625 19.0312 3.5625C19.4042 3.5625 19.7619 3.41434 20.0256 3.15062C20.2893 2.8869 20.4375 2.52921 20.4375 2.15625C20.4375 1.78329 20.2893 1.4256 20.0256 1.16188C19.7619 0.898158 19.4042 0.75 19.0312 0.75ZM10.1719 2.80125C10.2646 3.38738 10.479 3.94757 10.8015 4.44572C11.124 4.94387 11.5473 5.36891 12.0441 5.69344C12.0156 5.91952 12.0009 6.14713 12 6.375C12 9.47719 14.5228 12 17.625 12C18.09 12 18.555 11.9409 19.0022 11.8238C19.6468 12.4186 20.4608 12.7978 21.3309 12.9084C20.8734 17.6531 16.8638 21.375 12 21.375C6.82875 21.375 2.625 17.1712 2.625 12C2.625 7.455 5.87719 3.65437 10.1719 2.80031V2.80125ZM17.625 5.4375C17.1094 5.4375 16.6875 5.85938 16.6875 6.375C16.6875 6.89062 17.1094 7.3125 17.625 7.3125C18.1406 7.3125 18.5625 6.89062 18.5625 6.375C18.5625 5.85938 18.1406 5.4375 17.625 5.4375ZM10.125 6.375C9.60938 6.375 9.1875 6.79688 9.1875 7.3125C9.1875 7.82812 9.60938 8.25 10.125 8.25C10.6406 8.25 11.0625 7.82812 11.0625 7.3125C11.0625 6.79688 10.6406 6.375 10.125 6.375ZM22.3125 6.375C21.7969 6.375 21.375 6.79688 21.375 7.3125C21.375 7.82812 21.7969 8.25 22.3125 8.25C22.8281 8.25 23.25 7.82812 23.25 7.3125C23.25 6.79688 22.8281 6.375 22.3125 6.375ZM7.3125 9.1875C6.81522 9.1875 6.33831 9.38504 5.98668 9.73668C5.63504 10.0883 5.4375 10.5652 5.4375 11.0625C5.4375 11.5598 5.63504 12.0367 5.98668 12.3883C6.33831 12.74 6.81522 12.9375 7.3125 12.9375C7.80978 12.9375 8.28669 12.74 8.63832 12.3883C8.98996 12.0367 9.1875 11.5598 9.1875 11.0625C9.1875 10.5652 8.98996 10.0883 8.63832 9.73668C8.28669 9.38504 7.80978 9.1875 7.3125 9.1875ZM12 11.0625C11.4844 11.0625 11.0625 11.4844 11.0625 12C11.0625 12.5156 11.4844 12.9375 12 12.9375C12.5156 12.9375 12.9375 12.5156 12.9375 12C12.9375 11.4844 12.5156 11.0625 12 11.0625ZM8.71875 14.8125C8.34579 14.8125 7.9881 14.9607 7.72438 15.2244C7.46066 15.4881 7.3125 15.8458 7.3125 16.2188C7.3125 16.5917 7.46066 16.9494 7.72438 17.2131C7.9881 17.4768 8.34579 17.625 8.71875 17.625C9.09171 17.625 9.4494 17.4768 9.71312 17.2131C9.97684 16.9494 10.125 16.5917 10.125 16.2188C10.125 15.8458 9.97684 15.4881 9.71312 15.2244C9.4494 14.9607 9.09171 14.8125 8.71875 14.8125ZM15.2812 15.75C14.9083 15.75 14.5506 15.8982 14.2869 16.1619C14.0232 16.4256 13.875 16.7833 13.875 17.1562C13.875 17.5292 14.0232 17.8869 14.2869 18.1506C14.5506 18.4143 14.9083 18.5625 15.2812 18.5625C15.6542 18.5625 16.0119 18.4143 16.2756 18.1506C16.5393 17.8869 16.6875 17.5292 16.6875 17.1562C16.6875 16.7833 16.5393 16.4256 16.2756 16.1619C16.0119 15.8982 15.6542 15.75 15.2812 15.75Z" fill="#5EDA42"/>
</svg>
