<svg width="25" height="23" viewBox="0 0 25 23" fill="none" xmlns="http://www.w3.org/2000/svg">
<path d="M0.5 4.25C0.5 3.25544 0.895088 2.30161 1.59835 1.59835C2.30161 0.895088 3.25544 0.5 4.25 0.5H17.75C18.7446 0.5 19.6984 0.895088 20.4016 1.59835C21.1049 2.30161 21.5 3.25544 21.5 4.25V8.348C20.9495 8.01828 20.4476 7.61338 20.009 7.145L20 7.136V4.25C20 3.65326 19.7629 3.08097 19.341 2.65901C18.919 2.23705 18.3467 2 17.75 2H4.25C3.65326 2 3.08097 2.23705 2.65901 2.65901C2.23705 3.08097 2 3.65326 2 4.25V17.75C2 18.3467 2.23705 18.919 2.65901 19.341C3.08097 19.7629 3.65326 20 4.25 20H12.233C12.5349 20.5364 12.8929 21.0392 13.301 21.5H4.25C3.25544 21.5 2.30161 21.1049 1.59835 20.4016C0.895088 19.6984 0.5 18.7446 0.5 17.75V4.25ZM23.9 10.5005C22.0625 10.5005 20.414 9.7355 18.926 8.183C18.8713 8.12535 18.8055 8.07945 18.7325 8.04808C18.6595 8.0167 18.5809 8.00052 18.5015 8.00052C18.4221 8.00052 18.3435 8.0167 18.2705 8.04808C18.1975 8.07945 18.1317 8.12535 18.077 8.183C16.5845 9.737 14.9345 10.5005 13.1 10.5005C12.77 10.5005 12.5 10.7795 12.5 11.1245V14.876L12.506 15.239C12.6215 19.064 14.5865 21.674 18.311 22.9685C18.434 23.0105 18.566 23.0105 18.689 22.9685C22.5305 21.6335 24.5 18.899 24.5 14.876V11.126L24.491 11.012C24.4684 10.8708 24.3968 10.7421 24.2887 10.6486C24.1806 10.555 24.043 10.5026 23.9 10.5005ZM16.46 12.665L18.5 14.705L20.5325 12.6725C20.6391 12.5731 20.7802 12.519 20.9259 12.5216C21.0716 12.5242 21.2107 12.5832 21.3137 12.6863C21.4168 12.7893 21.4758 12.9284 21.4784 13.0741C21.481 13.2198 21.4269 13.3609 21.3275 13.4675L19.295 15.5L21.3275 17.5325C21.4269 17.6391 21.481 17.7802 21.4784 17.9259C21.4758 18.0716 21.4168 18.2107 21.3137 18.3137C21.2107 18.4168 21.0716 18.4758 20.9259 18.4784C20.7802 18.481 20.6391 18.4269 20.5325 18.3275L18.5 16.295L16.4675 18.3275C16.3609 18.4269 16.2198 18.481 16.0741 18.4784C15.9284 18.4758 15.7893 18.4168 15.6863 18.3137C15.5832 18.2107 15.5242 18.0716 15.5216 17.9259C15.519 17.7802 15.5731 17.6391 15.6725 17.5325L17.705 15.5L15.665 13.46C15.5656 13.3534 15.5115 13.2123 15.5141 13.0666C15.5167 12.9209 15.5757 12.7818 15.6788 12.6788C15.7818 12.5757 15.9209 12.5167 16.0666 12.5141C16.2123 12.5115 16.3534 12.5656 16.46 12.665Z" fill="#B3B3B3"/>
</svg>
