<svg width="51" height="50" viewBox="0 0 51 50" fill="none" xmlns="http://www.w3.org/2000/svg">
<g clip-path="url(#clip0_1417_11242)">
<path d="M38 35.4169C40.7627 35.4169 43.4122 34.3194 45.3657 32.3659C47.3192 30.4124 48.4167 27.7629 48.4167 25.0002C48.4167 22.2375 47.3192 19.588 45.3657 17.6345C43.4122 15.681 40.7627 14.5835 38 14.5835C37.4475 10.9921 35.4909 7.76717 32.5606 5.61832C29.6304 3.46947 25.9665 2.57266 22.375 3.1252C18.7836 3.67773 15.5587 5.63434 13.4098 8.5646C11.261 11.4949 10.3642 15.1587 10.9167 18.7502C8.70657 18.7502 6.58695 19.6282 5.02415 21.191C3.46135 22.7538 2.58337 24.8734 2.58337 27.0835C2.58337 29.2937 3.46135 31.4133 5.02415 32.9761C6.58695 34.5389 8.70657 35.4169 10.9167 35.4169H13M19.25 29.1669L25.5 22.9169M25.5 22.9169L31.75 29.1669M25.5 22.9169V47.9169" stroke="#5EDA42" stroke-width="3.33333" stroke-linecap="round" stroke-linejoin="round"/>
</g>
<defs>
<clipPath id="clip0_1417_11242">
<rect width="50" height="50" fill="white" transform="translate(0.5)"/>
</clipPath>
</defs>
</svg>
