<svg width="30" height="30" viewBox="0 0 30 30" fill="none" xmlns="http://www.w3.org/2000/svg">
    <path d="M10.8875 9.63761L13.75 6.76261V18.7501C13.75 19.0816 13.8817 19.3996 14.1161 19.634C14.3505 19.8684 14.6685 20.0001 15 20.0001C15.3315 20.0001 15.6495 19.8684 15.8839 19.634C16.1183 19.3996 16.25 19.0816 16.25 18.7501V6.76261L19.1125 9.63761C19.2287 9.75478 19.367 9.84777 19.5193 9.91123C19.6716 9.97469 19.835 10.0074 20 10.0074C20.165 10.0074 20.3284 9.97469 20.4807 9.91123C20.633 9.84777 20.7713 9.75478 20.8875 9.63761C21.0047 9.52141 21.0977 9.38316 21.1611 9.23084C21.2246 9.07851 21.2572 8.91513 21.2572 8.75011C21.2572 8.5851 21.2246 8.42172 21.1611 8.26939C21.0977 8.11707 21.0047 7.97882 20.8875 7.86261L15.8875 2.86261C15.7686 2.74881 15.6284 2.65961 15.475 2.60011C15.1707 2.47509 14.8293 2.47509 14.525 2.60011C14.3716 2.65961 14.2314 2.74881 14.1125 2.86261L9.1125 7.86261C8.99595 7.97916 8.9035 8.11753 8.84043 8.2698C8.77735 8.42208 8.74489 8.58529 8.74489 8.75011C8.74489 8.91494 8.77735 9.07815 8.84043 9.23043C8.9035 9.3827 8.99595 9.52107 9.1125 9.63761C9.22905 9.75416 9.36741 9.84661 9.51969 9.90969C9.67197 9.97276 9.83518 10.0052 10 10.0052C10.1648 10.0052 10.328 9.97276 10.4803 9.90969C10.6326 9.84661 10.771 9.75416 10.8875 9.63761ZM26.25 15.0001C25.9185 15.0001 25.6005 15.1318 25.3661 15.3662C25.1317 15.6007 25 15.9186 25 16.2501V23.7501C25 24.0816 24.8683 24.3996 24.6339 24.634C24.3995 24.8684 24.0815 25.0001 23.75 25.0001H6.25C5.91848 25.0001 5.60054 24.8684 5.36612 24.634C5.1317 24.3996 5 24.0816 5 23.7501V16.2501C5 15.9186 4.8683 15.6007 4.63388 15.3662C4.39946 15.1318 4.08152 15.0001 3.75 15.0001C3.41848 15.0001 3.10054 15.1318 2.86612 15.3662C2.6317 15.6007 2.5 15.9186 2.5 16.2501V23.7501C2.5 24.7447 2.89509 25.6985 3.59835 26.4018C4.30161 27.105 5.25544 27.5001 6.25 27.5001H23.75C24.7446 27.5001 25.6984 27.105 26.4017 26.4018C27.1049 25.6985 27.5 24.7447 27.5 23.7501V16.2501C27.5 15.9186 27.3683 15.6007 27.1339 15.3662C26.8995 15.1318 26.5815 15.0001 26.25 15.0001Z"
          fill="#666666"/>
</svg>
