<svg width="97" height="100" viewBox="0 0 97 100" fill="none" xmlns="http://www.w3.org/2000/svg">
<path d="M92.2917 57.3334C90.7465 55.2004 89.9145 52.6339 89.9145 50.0001C89.9145 47.3662 90.7465 44.7997 92.2917 42.6667L95.4584 38.2917C95.8456 37.7575 96.1003 37.1389 96.2018 36.487C96.3032 35.835 96.2483 35.1683 96.0417 34.5417C95.833 33.9217 95.4836 33.3583 95.021 32.8957C94.5584 32.4331 93.9951 32.0838 93.375 31.8751L88.25 30.2084C85.7394 29.3986 83.5511 27.8119 82.0008 25.6775C80.4506 23.5431 79.6186 20.9714 79.625 18.3334V12.9167C79.6245 12.2591 79.4684 11.6109 79.1693 11.0252C78.8703 10.4394 78.4369 9.93281 77.9045 9.54673C77.3721 9.16064 76.7559 8.90606 76.1062 8.8038C75.4566 8.70155 74.7919 8.75452 74.1667 8.9584L69 10.6251C66.4917 11.4367 63.791 11.4346 61.284 10.6188C58.777 9.80314 56.5921 8.21566 55.0417 6.08339L51.875 1.70839C51.4707 1.20135 50.9573 0.791918 50.373 0.510525C49.7887 0.229132 49.1485 0.0830078 48.5 0.0830078C47.8515 0.0830078 47.2113 0.229132 46.627 0.510525C46.0427 0.791918 45.5293 1.20135 45.125 1.70839L41.9584 6.08339C40.4079 8.21566 38.223 9.80314 35.716 10.6188C33.209 11.4346 30.5083 11.4367 28 10.6251L22.8334 8.9584C22.2081 8.75452 21.5435 8.70155 20.8938 8.8038C20.2442 8.90606 19.628 9.16064 19.0956 9.54673C18.5632 9.93281 18.1297 10.4394 17.8307 11.0252C17.5317 11.6109 17.3755 12.2591 17.375 12.9167V18.3334C17.3814 20.9714 16.5495 23.5431 14.9992 25.6775C13.449 27.8119 11.2606 29.3986 8.75002 30.2084L3.62502 31.8751C3.00499 32.0838 2.44164 32.4331 1.97903 32.8957C1.51642 33.3583 1.16709 33.9217 0.958358 34.5417C0.75174 35.1683 0.69688 35.835 0.798295 36.487C0.899709 37.1389 1.1545 37.7575 1.54169 38.2917L4.70836 42.6667C6.25354 44.7997 7.0855 47.3662 7.0855 50.0001C7.0855 52.6339 6.25354 55.2004 4.70836 57.3334L1.54169 61.7084C1.1545 62.2426 0.899709 62.8612 0.798295 63.5131C0.69688 64.1651 0.75174 64.8318 0.958358 65.4584C1.16709 66.0784 1.51642 66.6418 1.97903 67.1044C2.44164 67.567 3.00499 67.9163 3.62502 68.1251L8.75002 69.7917C11.2606 70.6016 13.449 72.1882 14.9992 74.3226C16.5495 76.457 17.3814 79.0288 17.375 81.6667V87.0834C17.3755 87.741 17.5317 88.3892 17.8307 88.975C18.1297 89.5607 18.5632 90.0673 19.0956 90.4534C19.628 90.8395 20.2442 91.0941 20.8938 91.1963C21.5435 91.2986 22.2081 91.2456 22.8334 91.0417L27.9584 89.3751C30.472 88.5497 33.1829 88.5449 35.6995 89.3613C38.2161 90.1777 40.4079 91.773 41.9584 93.9167L45.125 98.2917C45.514 98.8214 46.0223 99.2521 46.6086 99.5489C47.1949 99.8457 47.8428 100 48.5 100C49.1572 100 49.8051 99.8457 50.3915 99.5489C50.9778 99.2521 51.486 98.8214 51.875 98.2917L55.0417 93.9167C56.5947 91.776 58.7867 90.183 61.3024 89.3669C63.8181 88.5508 66.5277 88.5537 69.0417 89.3751L74.1667 91.0417C74.7919 91.2456 75.4566 91.2986 76.1062 91.1963C76.7559 91.0941 77.3721 90.8395 77.9045 90.4534C78.4369 90.0673 78.8703 89.5607 79.1693 88.975C79.4684 88.3892 79.6245 87.741 79.625 87.0834V81.6667C79.6186 79.0288 80.4506 76.457 82.0008 74.3226C83.5511 72.1882 85.7394 70.6016 88.25 69.7917L93.375 68.1251C93.9951 67.9163 94.5584 67.567 95.021 67.1044C95.4836 66.6418 95.833 66.0784 96.0417 65.4584C96.2483 64.8318 96.3032 64.1651 96.2018 63.5131C96.1003 62.8612 95.8456 62.2426 95.4584 61.7084L92.2917 57.3334ZM68.125 44.6126L47.2917 65.4459C46.5103 66.227 45.4507 66.6658 44.3459 66.6658C43.241 66.6658 42.1814 66.227 41.4 65.4459L28.9 52.9459C28.5021 52.5615 28.1846 52.1018 27.9663 51.5934C27.7479 51.0851 27.633 50.5383 27.6281 49.9851C27.6233 49.4318 27.7288 48.8832 27.9383 48.3711C28.1478 47.859 28.4572 47.3938 28.8484 47.0026C29.2396 46.6114 29.7048 46.302 30.2169 46.0925C30.7289 45.883 31.2776 45.7775 31.8309 45.7823C32.3841 45.7872 32.9309 45.9021 33.4392 46.1205C33.9476 46.3388 34.4073 46.6563 34.7917 47.0542L44.3334 56.6084L62.2209 38.7209C63.0067 37.9619 64.0592 37.5419 65.1517 37.5514C66.2442 37.5609 67.2892 37.9991 68.0618 38.7716C68.8343 39.5442 69.2725 40.5892 69.282 41.6817C69.2915 42.7742 68.8715 43.8267 68.1125 44.6126H68.125Z" fill="#5EDA42"/>
</svg>
