<svg width="40" height="40" viewBox="0 0 40 40" fill="none" xmlns="http://www.w3.org/2000/svg">
<rect width="40" height="40" rx="20" fill="#F1F7F7"/>
<path d="M12.6666 14.5V20H14.5V16.3333H18.1666V14.5H12.6666ZM27.3333 25.5H21.8333V23.6667H25.5V20H27.3333V25.5Z" fill="#9DCED4"/>
<path fill-rule="evenodd" clip-rule="evenodd" d="M12.6667 10.833C11.6942 10.833 10.7616 11.2193 10.0739 11.9069C9.38631 12.5946 9 13.5272 9 14.4997V25.4997C9 26.4721 9.38631 27.4048 10.0739 28.0924C10.7616 28.78 11.6942 29.1663 12.6667 29.1663H27.3333C28.3058 29.1663 29.2384 28.78 29.9261 28.0924C30.6137 27.4048 31 26.4721 31 25.4997V14.4997C31 13.5272 30.6137 12.5946 29.9261 11.9069C29.2384 11.2193 28.3058 10.833 27.3333 10.833H12.6667ZM27.3333 12.6663H12.6667C12.1804 12.6663 11.7141 12.8595 11.3703 13.2033C11.0265 13.5471 10.8333 14.0134 10.8333 14.4997V25.4997C10.8333 25.9859 11.0265 26.4522 11.3703 26.796C11.7141 27.1399 12.1804 27.333 12.6667 27.333H27.3333C27.8196 27.333 28.2859 27.1399 28.6297 26.796C28.9735 26.4522 29.1667 25.9859 29.1667 25.4997V14.4997C29.1667 14.0134 28.9735 13.5471 28.6297 13.2033C28.2859 12.8595 27.8196 12.6663 27.3333 12.6663Z" fill="#9DCED4"/>
</svg>
